<svg xmlns="http://www.w3.org/2000/svg" viewBox="0 0 147.92 142.71"><defs><style>.cls-1{fill:#7cbf6e;}.cls-2{fill:#ff960b;}.cls-3{fill:#81c275;}.cls-4{fill:#47c46e;}.cls-5{fill:#ff9100;}.cls-6{fill:#fefefe;}.cls-7{font-size:39.74px;fill:#43c450;font-family:BerlinSansFB-Bold, Berlin Sans FB;font-weight:700;}</style></defs><g id="Layer_2" data-name="Layer 2"><g id="OBJECTS"><path class="cls-1" d="M90.82,127.23l0,0-.07-.06a1.53,1.53,0,0,0-.69-.26H90a6.15,6.15,0,0,0-.84-.09h-.78c-.28,0-.57,0-.85,0l-.19,0-.14,0-.47,0-.82.06-.33,0L85,127l-.87.09-.72.09-.12,0-.85.1-.6,0-.24,0-.26,0-.56,0-.57,0-.24,0h-.3l-.49,0-.28,0-1.45.06H75.8l-1.25,0-.55,0h-.42l-.3,0H73.2l-.89,0h-.9l-.22,0H71l-.61,0-.85-.08-.36,0-.47-.05-.6,0-.27,0-.5,0-.32,0h-.1l-.76-.07-.89-.11-.86-.12c-.2,0-.41-.06-.62-.09l-.18,0-1.73-.26-.25,0-.58-.09-.92-.19-.58-.11-.25,0-.64-.13-.13,0-.08,0-.75-.15-.83-.18L56,125.2l-.37-.09-.42-.11-.37-.08-.36-.08-.45-.11-.33-.08-.08,0-.27-.07-.14,0-.29-.09-.13,0-.37-.12-.43-.14-1-.32-.58-.19-1.58-.54-.71-.26-.06,0-.76-.27-.07,0-.32-.12-.21-.08-.18-.08-.8-.3-.53-.19-.19-.08-.16-.06-.58-.22-.42-.18-.3-.13-.67-.31-.79-.4-.51-.26-.16-.08-.44-.22-.73-.38-.32-.19-.14-.07-.16-.09-.13-.08-.09,0-.09-.05-.14-.09-.13-.07-.16-.13h0a.78.78,0,0,0-.15-.1l-.07,0-.1-.07-.16-.1-.1-.06a.16.16,0,0,0-.12,0h-.09l-.05,0h0a.17.17,0,0,0-.1,0,.23.23,0,0,0-.09.12l0,.13-.06.22c0,.08,0,.16-.06.23l0,.11c-.06.25-.11.51-.16.8s-.08.56-.11.83,0,.54-.07.78,0,.56,0,.86,0,.56,0,.82,0,.57.06.81V124c0,.1,0,.2,0,.3s0,.31.05.46.07.55.11.81v.06c0,.25.08.52.13.77a7.54,7.54,0,0,0,.19.81,7.72,7.72,0,0,0,.25.78l.15.39c0,.12.1.24.15.36l0,.06c.11.25.23.5.36.77s.25.42.39.62l.06.09.2.29c.06.09.14.18.21.27l.06.07.18.22.07.08c.11.13.2.24.3.34s.39.39.56.56l.6.54.3.25a2.48,2.48,0,0,0,.26.19l.08.06c.2.14.42.28.67.43l.72.4.75.36.08,0,.65.28.35.13h0l.42.13L46,135l.07,0,.42.09a4.64,4.64,0,0,0,.78.09h.79c.3,0,.59,0,.87-.07l.79-.09.69-.13.11,0h0l.71-.15c.62-.16,1.25-.3,1.88-.43h.06l.3-.05.45-.06h.08a3.16,3.16,0,0,1,.32,0h.44l.46,0,.19.05h.06l.19.06h0c.47.16.92.37,1.36.57l0,0,.41.2.31.15c.22.11.46.22.69.35s.33.17.5.27l.19.1.68.39,1,.56.45.26.5.3.19.11a6.35,6.35,0,0,0,.74.38l.15.07a5.45,5.45,0,0,0,.55.25,7.56,7.56,0,0,0,.77.27l.4.1.44.08a4.71,4.71,0,0,0,.8.08h.39l.35,0h.11l.38,0h0l.36,0,.68-.13.68-.14a11,11,0,0,0,1.34-.4l.58-.25.15-.07.2-.09.3-.14,0,0h0l0,0,.76-.38.46-.23.07,0c.2-.1.4-.2.61-.28l.75-.28c.25-.09.49-.16.73-.23l.32-.09h0l.21-.05.23-.07,1.57-.38,1.35-.3.31-.07.46-.09.18,0,.5-.09.36-.06.38-.07.51-.09.53-.11,1.11-.22h0l.31-.06.22-.05.19,0,.67-.17.11,0,.72-.2.35-.1h0l.31-.1.33-.12.07,0,.32-.13.36-.18a2.93,2.93,0,0,0,.39-.21c.22-.12.45-.26.67-.4l.2-.15.05,0c.11-.09.22-.18.31-.27a7.42,7.42,0,0,0,.56-.57l.24-.27.26-.31c.05-.08.11-.15.16-.22l0-.07c.08-.11.16-.23.22-.33a4.4,4.4,0,0,0,.35-.65,5.55,5.55,0,0,0,.28-.77l.1-.36c0-.12,0-.24.07-.37s0-.22,0-.31a.15.15,0,0,1,0-.07s0-.1,0-.15,0-.08,0-.11a.33.33,0,0,0,0-.14Z"/><path class="cls-1" d="M138,54.41c0-.23-.07-.47-.13-.77,0-.13-.05-.26-.08-.4v0c0-.1,0-.2-.07-.3a8,8,0,0,0-.48-1.45c-.1-.21-.22-.45-.34-.68s-.25-.44-.38-.68l-.17-.29-.12-.18-.09-.14-.05-.06c-.07-.11-.14-.2-.2-.28l0,0-.1-.14-.1-.11-.05-.06c-.07-.09-.15-.17-.22-.25l-.28-.29,0,0-.22-.21h0l-.14-.12-.17-.12h0c-.35-.25-.72-.46-1.07-.67l-.19-.12c-.19-.11-.35-.21-.49-.31l-.43-.34a4.5,4.5,0,0,1-.59-.65l-.15-.25a3.45,3.45,0,0,1-.14-.34l-.06-.17a1.16,1.16,0,0,1,0-.18v0a3,3,0,0,1-.06-.42c0-.2,0-.37,0-.53l0-.23v0c0-.1,0-.19,0-.28s0-.2.07-.3a2.85,2.85,0,0,1,.14-.41l.2-.33,0,0,.06-.09,0,0,.07-.08,0,0,.17-.19.27-.27c.1-.11.21-.22.32-.32l.19-.18.5-.51a6.6,6.6,0,0,0,.49-.55c.16-.2.3-.41.42-.59l.2-.32c.07-.12.13-.24.18-.34l.18-.37s0-.08,0-.11v0l0,0,.06-.14c0-.12.08-.25.12-.39s.07-.24.1-.36v0a6.77,6.77,0,0,0,.14-.73,2.66,2.66,0,0,0,0-.28V36a.49.49,0,0,0,0-.12v-.06a1.27,1.27,0,0,0,0-.2v-.25a.61.61,0,0,0,0-.14v-.07a2.54,2.54,0,0,0,0-.29v-.07c0-.09,0-.19-.06-.29v-.08c0-.1-.05-.21-.08-.32s-.14-.5-.23-.76l0-.06c-.08-.22-.16-.45-.25-.67,0,0,0-.07,0-.1a2.44,2.44,0,0,0-.1-.24l0-.08-.13-.27c-.12-.23-.24-.46-.38-.68l0,0-.2-.3,0-.06-.2-.28L133,30a9.79,9.79,0,0,0-2.25-2.09c-.38-.26-.8-.53-1.32-.84-.15-.1-.31-.18-.47-.27l-.18-.09c-.25-.14-.51-.26-.76-.38l-.3-.13-.41-.17-.7-.24a3.44,3.44,0,0,0-.38-.11c-.14-.05-.27-.08-.42-.12s-.46-.1-.68-.14h-.06l-.32-.05h0l-.45-.06-.31,0-.45,0h0c-.22,0-.46,0-.69,0h-2.33l-.44,0h-2.6l-.54,0-.57-.05c-.35,0-.71-.1-1-.17a3.59,3.59,0,0,1-.52-.13h0l-.25-.1c-.11,0-.21-.08-.3-.11l-.82-.37-.24-.11-.27-.14-.39-.2-.65-.3h0a6.37,6.37,0,0,0-.7-.27l-.68-.19a7.26,7.26,0,0,0-1.4-.18l-.69,0h0l-.79,0c-.47,0-.95.08-1.44.14s-1,.16-1.54.26c-.27.05-.51.11-.74.17s-.43.13-.68.22-.44.15-.66.24l-.13.06-.53.22-.44.18c-.29.13-.6.25-.89.39l-.27.11-.36.16-.29.13-.34.18-.18.1-.46.25-.32.18L98,26.1l-.72.42-.59.36-.3.17-.14.09-.19.12-.68.42c-.42.27-.83.56-1.23.85-.19.13-.4.27-.6.42l-.31.24-.31.24-.27.2-.3.22a4.78,4.78,0,0,0-.42.34l-.17.13c-.2.17-.37.3-.52.44s-.39.33-.59.48h0l-.53.44a3.73,3.73,0,0,0-.36.32l-.18.16a5,5,0,0,0-.44.47.42.42,0,0,0-.08.12.19.19,0,0,0,0,.08.2.2,0,0,0,0,.14.21.21,0,0,0,.17.08.65.65,0,0,0,.24-.06l.25-.11h0l.33-.17.3-.15.36-.19.42-.21.39-.21.81-.38.13-.06.64-.28L94,30.9c.43-.15.88-.29,1.37-.44l.73-.2.76-.19c.48-.13,1-.24,1.46-.35l.69-.16.69-.17c.13,0,.28-.07.43-.09l.25-.05.18,0,.39-.07.4-.07.83-.13c.27,0,.54-.06.82-.09l.61,0h.61c.21,0,.43,0,.64,0l.32,0,.31.05h0l.45.1h0l.54.17a8.48,8.48,0,0,1,1,.37l.28.15.14.09.12.09.27.25a1.82,1.82,0,0,1,.2.25,2.11,2.11,0,0,1,.18.32c0,.09.08.19.12.28v0a4.11,4.11,0,0,1,.15.46l.06.19c.06.21.14.45.2.69a2.17,2.17,0,0,1,0,.25l0,.08.06.39a2.17,2.17,0,0,1,0,.25v.09l.06.38a5.59,5.59,0,0,0,.15.71,2.37,2.37,0,0,0,.27.64,3.39,3.39,0,0,0,.4.49.39.39,0,0,0,.1.08l0,0,.12.1h0l.28.21a2.07,2.07,0,0,0,.24.17l0,0,.26.16,0,0,.26.14h0l.33.17a4.41,4.41,0,0,0,.69.24,2.22,2.22,0,0,0,.31.07l.06,0,.29,0c.38.08.77.12,1.14.17l.28,0,.62.08c.23,0,.46.06.7.1l.14,0,.13,0c.26.06.48.1.68.16l.43.11.26.08c.21,0,.43.12.7.2l.28.1.08,0,.31.13a5.93,5.93,0,0,1,.63.35l.24.16,0,0,.28.21.35.32a2.14,2.14,0,0,1,.27.31,4.5,4.5,0,0,1,.36.73v0c0,.14.09.27.12.41a3.34,3.34,0,0,1,0,.4,2.22,2.22,0,0,1,0,.37,2.87,2.87,0,0,1,0,.31v.06a5.65,5.65,0,0,1-.18.69c-.08.25-.16.48-.24.7l-.28.68-.13.3-.16.4c-.1.23-.2.45-.29.67s-.2.45-.29.68-.09.2-.13.3-.09.22-.14.34-.08.23-.12.34a2.82,2.82,0,0,0-.07.31v.05c-.06.27-.1.48-.13.68s0,.38-.05.62,0,.34,0,.51v.07a5.14,5.14,0,0,0,.24,1.4,3.47,3.47,0,0,0,.27.59,2.26,2.26,0,0,0,.16.26A2.74,2.74,0,0,0,120,52l.21.23a2.73,2.73,0,0,0,.25.23h0a6.48,6.48,0,0,0,1,.69l.51.27,0,0,.24.11.24.1c.18.07.36.14.54.19l.53.14.53.12h.06l.57.11.65.11.6.09H126l.19,0,1.15.15.67.08.34,0,.34,0,.62.11h0l.39.07.24,0,.88.18.47.1.48.11.2.05.11,0,.58.13.31.07.34.07.63.17.43.14.21.07.11,0,.18.06.29.11,0,0,.38.16h0l.28.14.13.08.14.08.22.12,0,0,.14.07.08,0,0,0,.11,0,.08,0H137l.15,0h0l.16,0a.2.2,0,0,0,.11,0h0l.05.06a.17.17,0,0,0,.1,0,.19.19,0,0,0,.16-.09l0-.07a1.55,1.55,0,0,0,.12-.22.52.52,0,0,0,.06-.13l0-.09v0l0-.16v0a3.91,3.91,0,0,0,0-.61c0-.24,0-.47,0-.69S138,54.69,138,54.41Z"/><path class="cls-1" d="M135,40.69a1.88,1.88,0,0,0-.19.2,3.68,3.68,0,0,0-.32.51,2.74,2.74,0,0,0-.23.54,3.3,3.3,0,0,0-.11.47,4,4,0,0,0-.07.54,4.68,4.68,0,0,0,0,.53,2,2,0,0,0,0,.25v.05c0,.13,0,.23,0,.33a1.74,1.74,0,0,0,.2.58,1,1,0,0,0,.17.24c.05.07.11.12.16.18a1.4,1.4,0,0,0,.22.17h0l.21.13.29.09.26,0,.36,0h.17a.22.22,0,0,0,.14,0h.27a1,1,0,0,0,.29-.09h0a1.43,1.43,0,0,0,.21-.12,1.56,1.56,0,0,0,.23-.22,2.68,2.68,0,0,0,.55-1.09c0-.18.06-.37.08-.61a5.4,5.4,0,0,0,0-.57,3.16,3.16,0,0,0-.12-.58l-.09-.22,0,0c0-.1-.08-.2-.13-.3s-.09-.16-.14-.24a2.27,2.27,0,0,0-.18-.25l-.2-.22a1.08,1.08,0,0,0-.2-.18,3.63,3.63,0,0,0-.48-.32,1.33,1.33,0,0,0-.54-.2h-.17l-.17,0a.9.9,0,0,0-.27.12A1.47,1.47,0,0,0,135,40.69Z"/><path class="cls-1" d="M139.19,47.6l0-.16-.08-.17a1.26,1.26,0,0,0-.2-.27l-.22-.2a1.8,1.8,0,0,0-.25-.17,1.11,1.11,0,0,0-.49-.12h-.11a1,1,0,0,0-.29.08.8.8,0,0,0-.23.11.52.52,0,0,0-.11.1l-.1.13L137,47a1.46,1.46,0,0,0-.15.64.78.78,0,0,0,0,.16A.49.49,0,0,0,137,48a.22.22,0,0,0,.05.08h0a.81.81,0,0,0,.11.13l.22.19a1.4,1.4,0,0,0,.22.14l.09,0,0,0a.77.77,0,0,0,.19,0,1,1,0,0,0,.24,0h.26l.1,0h.07a.23.23,0,0,0,.11,0,1,1,0,0,0,.3-.2,1.71,1.71,0,0,0,.11-.14.83.83,0,0,0,.07-.13A1,1,0,0,0,139.19,47.6Z"/><path class="cls-1" d="M90.6,21c-.19.41-.35.83-.46,1.15s-.22.68-.34,1.15c0,.18-.1.38-.14.57v.05a2.74,2.74,0,0,1-.05.28c0,.11,0,.22,0,.33s0,.39,0,.56,0,.22,0,.33,0,.2,0,.3a3.09,3.09,0,0,0,.09.63,5,5,0,0,0,.15.58l.12.33a1.45,1.45,0,0,0,.12.25,1.37,1.37,0,0,0,.2.26,1,1,0,0,0,.25.19l.21.1h0a.31.31,0,0,0,.12.05h0l.12,0h.45a1.85,1.85,0,0,0,.46-.1L92,28l.08,0,0,0,.22-.09.06,0,.16-.08.09-.05.24-.12.13-.07a3.18,3.18,0,0,0,.32-.16l.2-.11,0,0,.2-.11h0l.38-.23.1-.06,1-.6.35-.23.13-.09.06,0,.45-.31.47-.33.34-.26.13-.09c.15-.11.31-.23.46-.36l.21-.16.26-.21c.3-.24.61-.49.91-.75l.24-.2.21-.18.46-.39.25-.21.2-.17.29-.26.15-.13.74-.7.15-.14c.13-.12.28-.27.42-.42s.28-.33.41-.51a8.38,8.38,0,0,0,.68-1,7.42,7.42,0,0,0,.56-1.09,1.13,1.13,0,0,0,.08-.24l0-.05c0-.09.05-.19.08-.28s.09-.35.13-.59.08-.42.11-.62,0-.19,0-.28,0-.18,0-.29,0-.21,0-.34a2.5,2.5,0,0,0,0-.29,3.25,3.25,0,0,0-.19-.58,3.5,3.5,0,0,0-.63-1.06,4.32,4.32,0,0,0-.48-.44,3.13,3.13,0,0,0-.8-.44l-.27-.1-.6-.16q-.32-.07-.63-.12a5.72,5.72,0,0,0-.6,0h0a5.34,5.34,0,0,0-.58,0,3.16,3.16,0,0,0-.32,0h0l-.25,0a4.22,4.22,0,0,0-.59.15c-.18.06-.4.13-.6.22l-.52.28-.55.37c-.15.11-.31.23-.49.39s-.33.27-.46.38l-.44.4-.44.44c-.27.3-.55.62-.81,1s-.52.67-.73,1l-.09.12-.28.41c-.08.11-.16.23-.23.35l-.1.15c-.23.34-.43.7-.63,1.06l-.1.18-.18.33-.16.3-.12.23c-.09.18-.19.36-.28.55S90.7,20.75,90.6,21Z"/><path class="cls-1" d="M86.67,14.27c0,.1,0,.21,0,.33s0,.16,0,.24v0l0,.08c0,.07,0,.14,0,.21s.06.19.09.3a6.11,6.11,0,0,0,.23.59,2.25,2.25,0,0,0,.12.21l0,0,.15.26c.23.37.45.7.69,1,.12.16.26.31.37.44l.05,0,.15.16.23.2a1.87,1.87,0,0,0,.51.25h.06a.18.18,0,0,0,.17-.12h0l.09,0a.27.27,0,0,0,.12-.06l.11-.08a.27.27,0,0,0,.07-.08h0l0,0A.92.92,0,0,0,90.3,18c0-.14.09-.29.13-.44s0-.23.07-.34l0-.15c0-.13.06-.28.08-.41v-.06s0-.08,0-.12v-.06l0-.11,0-.11c.08-.44.14-.8.17-1.13l0-.4v-.17l0-.29L91,14c0-.2,0-.4.05-.6s0-.26,0-.39,0-.12,0-.18v0c0-.11,0-.21,0-.32v-.17a.57.57,0,0,1,0-.13c0-.21,0-.41,0-.6s0-.37,0-.54a3.1,3.1,0,0,0-.11-.59l-.09-.29a1.55,1.55,0,0,0-.38-.63,2.43,2.43,0,0,0-.25-.2,1,1,0,0,0-.29-.12,1.55,1.55,0,0,0-.31-.06,1.56,1.56,0,0,0-.3,0,1.18,1.18,0,0,0-.38.07,3.18,3.18,0,0,0-.55.28,2.11,2.11,0,0,0-.27.18,1.47,1.47,0,0,0-.23.18,2.27,2.27,0,0,0-.39.47,3.66,3.66,0,0,0-.31.48h0c0,.1-.11.19-.15.29l-.1.29c0,.18-.11.38-.15.57s0,.2-.05.3v0l0,.27c0,.19,0,.39,0,.55v.14a3.38,3.38,0,0,0,0,.45c0,.17,0,.34,0,.51Z"/><path class="cls-1" d="M23.35,100.91c.17-.08.37-.18.56-.29s.4-.23.6-.36l.47-.34,0,0,.24-.19h0l.22-.18c.19-.17.34-.32.49-.48a3.14,3.14,0,0,0,.37-.49l.18-.31.13-.31a3,3,0,0,0,.17-.65,2.51,2.51,0,0,0,0-.3,2.08,2.08,0,0,0,0-.35,1.6,1.6,0,0,0-.07-.33,1.53,1.53,0,0,0-.11-.27,3.14,3.14,0,0,0-.18-.31l-.18-.24h0a2.5,2.5,0,0,0-.23-.23v0l-.24-.2a5.06,5.06,0,0,0-.51-.35l-.58-.31c-.22-.11-.41-.19-.59-.26l-.62-.22-.65-.18-1.08-.25-.2,0L21,93.25h0l-.05,0h-.06l-.1,0h0l-.24-.06c-.22-.06-.41-.13-.59-.19l-.31-.12h0l-.26-.11-.07,0-.5-.25-.57-.3-.55-.28-.37-.2-.2-.1-.19-.1-.37-.19L15.88,91l-.6-.27L15,90.56l-.2-.08-.1,0a8.09,8.09,0,0,0-1.24-.36,5.67,5.67,0,0,0-.64-.11l-.22,0h-.09l-.26,0h-.69l-.65.08a2.14,2.14,0,0,0-.59.18,5.65,5.65,0,0,0-.55.25l-.08,0-.18.1-.29.17L9,90.89l-.05,0L8.8,91l-.13.1-.24.18-.23.22a3.51,3.51,0,0,0-.42.48l0,0-.15.19-.18.28c-.11.17-.2.36-.3.54l0,0c-.07.14-.14.3-.23.51l0,.1,0,0,0,.11c0,.1-.07.21-.1.31a3.1,3.1,0,0,0-.13.58l0,.29a2.44,2.44,0,0,0,0,.26h0v.14h0a4.82,4.82,0,0,0,0,.62c0,.24.06.43.09.6a4.92,4.92,0,0,0,.18.63l.09.21,0,.07c0,.1.09.2.13.29v0c0,.08.08.17.12.24l.19.33.14.19,0,.07.18.25a2.11,2.11,0,0,0,.19.23,1.84,1.84,0,0,0,.23.25l.23.21.21.17,0,0,.47.34h0c.18.11.35.23.54.33l0,0,0,0h0l.28.19.27.16.23.13.08,0,.27.15.6.28.52.2h0c.19.07.39.14.61.2a5.1,5.1,0,0,0,.63.15l.11,0,.53.09.64.07.66.06h2l.51,0c.39,0,.84-.06,1.31-.12a11.82,11.82,0,0,0,1.26-.21l.14,0c.16,0,.32-.07.48-.12s.42-.12.64-.2h0l.59-.21.58-.26Z"/><path class="cls-1" d="M28.52,99.42a1,1,0,0,0-.18-.26A.92.92,0,0,0,28.1,99a.8.8,0,0,0-.33-.08h-.05a2.23,2.23,0,0,0-.63.15,1.32,1.32,0,0,0-.27.13c-.09,0-.18.12-.28.19s-.28.24-.45.4a5.82,5.82,0,0,0-.4.45c-.1.12-.21.25-.3.38l-.09.1-.36.47-.16.22-.18.25-.22.32c0,.06-.07.12-.11.17l0,0-.3.46-.3.49c-.07.12-.14.26-.22.41s-.12.25-.18.37l0,.06h0v0a4.85,4.85,0,0,0-.23.54c-.06.15-.11.31-.16.46a5.68,5.68,0,0,0-.39,1,4.08,4.08,0,0,0-.11.59c0,.18-.05.37-.07.55a3.69,3.69,0,0,0,0,.47,1.89,1.89,0,0,0,.08.53,2.88,2.88,0,0,0,.18.49,1.32,1.32,0,0,0,.16.25,1.52,1.52,0,0,0,.22.22,2.71,2.71,0,0,0,.41.28,1.78,1.78,0,0,0,.29.12l.29.08.3,0h.44l.36,0,.31-.06a1.34,1.34,0,0,0,.26-.08h0a3.62,3.62,0,0,0,.45-.2l0,0,.08,0,.07,0,.07,0,.26-.22a6.68,6.68,0,0,0,.86-.91c.11-.16.21-.33.31-.49l0,0,.14-.25c.05-.08.09-.16.13-.24l0,0a6.11,6.11,0,0,0,.23-.59c0-.09.05-.18.07-.29s0-.2.05-.3v0c0-.19,0-.38,0-.58s0-.39,0-.59,0-.39-.05-.59a.49.49,0,0,1,0-.12c0-.06,0-.11,0-.17v-.36c0-.21,0-.43,0-.64l0-.36c0-.1,0-.2,0-.3v0l.21-1.14v0a2.36,2.36,0,0,0,.05-1.15A1.32,1.32,0,0,0,28.52,99.42Z"/><path class="cls-1" d="M21.39,103.43a1.06,1.06,0,0,0-.2-.24,1.57,1.57,0,0,0-.26-.19,1.3,1.3,0,0,0-.27-.1l-.21,0h-.12a1.06,1.06,0,0,0-.28.06,1.4,1.4,0,0,0-.27.11c-.17.08-.33.18-.49.27a8.87,8.87,0,0,0-1,.7l-.45.38-.12.09-.33.28-.42.41,0,0a4.74,4.74,0,0,0-.37.39,3,3,0,0,0-.38.51,3.49,3.49,0,0,0-.27.55c0,.09-.06.18-.09.26a3,3,0,0,0-.07.32.78.78,0,0,0,0,.14,1.13,1.13,0,0,0,0,.26,1.8,1.8,0,0,0,.07.27,1.18,1.18,0,0,0,.38.54,1.63,1.63,0,0,0,.34.19,2.05,2.05,0,0,0,.28.08,2.19,2.19,0,0,0,.31.05h.28a2,2,0,0,0,.34,0,.83.83,0,0,0,.21-.06,4.11,4.11,0,0,0,.45-.13l.56-.22a4,4,0,0,0,.48-.28l.26-.2.2-.17,0,0a2.09,2.09,0,0,0,.22-.2l.13-.14h0l.05-.06a4.52,4.52,0,0,0,.37-.47,5.47,5.47,0,0,0,.31-.5,4,4,0,0,0,.27-.55,3.45,3.45,0,0,0,.16-.52v0a2.8,2.8,0,0,0,.1-.59,3.85,3.85,0,0,0,0-.59A1.33,1.33,0,0,0,21.39,103.43Z"/><path class="cls-1" d="M63.19,139.6l-.21-.2a1.54,1.54,0,0,0-.24-.17,2.28,2.28,0,0,0-.54-.28l-.55-.21-.2-.07-.39-.13c-.21-.09-.5-.2-.77-.34s-.49-.28-.71-.42-.29-.21-.44-.33l-.4-.33,0,0-.22-.18-.21-.18c-.17-.14-.31-.26-.45-.36l-.12-.1-.17-.13-.33-.22a2.73,2.73,0,0,0-.59-.26h0a1.5,1.5,0,0,0-.27-.07,1.42,1.42,0,0,0-.31,0h-.27l-.23,0a1,1,0,0,0-.28.08,1.82,1.82,0,0,0-.28.14,1,1,0,0,0-.22.19,1,1,0,0,0-.16.24,1.78,1.78,0,0,0-.19.53,3.47,3.47,0,0,0-.07.59,2.26,2.26,0,0,0,0,.27c0,.1,0,.21,0,.33l.09.27q0,.13.09.24a2,2,0,0,0,.14.3c0,.1.1.18.14.27s.2.32.31.48h0c.1.15.21.3.35.48s.25.3.4.44a4.11,4.11,0,0,0,.45.38h0c.11.13.22.24.33.35s.29.23.43.33l0,0,.29.18h0l.25.15c.21.11.39.2.56.27a3.94,3.94,0,0,0,.61.21l.48.12.09,0,.6.13.6.06h.62c.2,0,.41,0,.61-.06l.35-.08a1.07,1.07,0,0,0,.27-.09,3,3,0,0,0,.54-.29l.22-.17h0l.23-.21a1.33,1.33,0,0,0,.19-.24,1.24,1.24,0,0,0,.1-.29v0s0-.07,0-.11a1.21,1.21,0,0,0,0-.19,1.23,1.23,0,0,0,0-.29A2.16,2.16,0,0,0,63.19,139.6Z"/><path class="cls-1" d="M53.53,137.09a1.43,1.43,0,0,0-.34-.5,1.68,1.68,0,0,0-.37-.27l-.06,0a2.78,2.78,0,0,0-.46-.21,2.43,2.43,0,0,0-.51-.1h-.2a1.66,1.66,0,0,0-.32,0l-.26.06a1.52,1.52,0,0,0-.28.09l-.19.09h0a1.09,1.09,0,0,0-.23.14,1.55,1.55,0,0,0-.32.35l0,.07,0,0a1.29,1.29,0,0,0-.2.25,1,1,0,0,0-.11.21c0,.05,0,.11-.05.16a.8.8,0,0,0,0,.15v0c0,.1,0,.2,0,.3v0c0,.07,0,.17,0,.27a2.42,2.42,0,0,0,0,.25v0l0,.16a1,1,0,0,0,.07.21,2.1,2.1,0,0,0,.31.5,2.49,2.49,0,0,0,.23.23l.24.17,0,0a1.57,1.57,0,0,0,.23.13A1.23,1.23,0,0,0,51,140c.11,0,.23,0,.33,0h.28a2.9,2.9,0,0,0,.6-.07l.28-.11.29-.17a1.32,1.32,0,0,0,.25-.21,1.94,1.94,0,0,0,.2-.21,1.05,1.05,0,0,0,.16-.26,1.33,1.33,0,0,0,.11-.24c0-.1.07-.2.1-.29a2,2,0,0,0,0-.24v0a3.54,3.54,0,0,0,0-.57A2,2,0,0,0,53.53,137.09Z"/><path class="cls-2" d="M146,67c0-.37-.09-.74-.16-1.11a15.09,15.09,0,0,0-.53-2c-.05-.15-.11-.3-.17-.45s-.11-.27-.17-.4c-.16-.34-.32-.67-.49-1s-.3-.55-.47-.81-.17-.25-.26-.38l-.18-.24-.21-.25a14.37,14.37,0,0,0-1.45-1.47,17.6,17.6,0,0,0-1.71-1.27l-.86-.56-.93-.58a15.26,15.26,0,0,0-1.67-.83c-.61-.26-1.24-.47-1.86-.67l-.85-.27c-.35-.09-.71-.17-1.06-.23s-.71-.13-1.06-.18a8.9,8.9,0,0,0-1-.11c-.35,0-.69-.06-1-.07l-.53,0h-.53c-.34,0-.68,0-1,0s-.66,0-1,0l-1,0a6.77,6.77,0,0,1-1-.06c-.52-.09-1-.19-1.55-.32-.25-.06-.49-.14-.74-.22s-.54-.18-.81-.29l-.26-.14a1.88,1.88,0,0,1-.23-.16,3.31,3.31,0,0,1-.27-.26,2.09,2.09,0,0,1-.22-.28,4.57,4.57,0,0,1-.35-.7,3.41,3.41,0,0,1-.13-.53,2.18,2.18,0,0,1,0-.25c0-.11,0-.22,0-.32a9.8,9.8,0,0,1,.22-1c.11-.36.24-.7.37-1s.28-.69.41-1,.29-.74.45-1.1.23-.53.35-.79l.38-.87c.13-.3.25-.6.35-.91a4,4,0,0,0,.2-1.53c0-.12,0-.24,0-.36a1.55,1.55,0,0,0-.07-.31,3.92,3.92,0,0,0-.48-1c-.17-.26-.34-.52-.54-.77s-.19-.22-.29-.32-.19-.22-.3-.33a9.09,9.09,0,0,0-.74-.63,5.64,5.64,0,0,0-.77-.5,5.24,5.24,0,0,0-.85-.35,6.77,6.77,0,0,0-1-.23,5.17,5.17,0,0,0-.55-.07l-.41,0c-.34,0-.67,0-1,0h-.49a3.42,3.42,0,0,0-.45,0c-.32,0-.63.09-1,.14l-.75.11h-.62l-.14,0a3.58,3.58,0,0,1-.45-.09,3.43,3.43,0,0,1-.45-.16l-.26-.13-.23-.16-.17-.16-.14-.18a3.1,3.1,0,0,1-.3-.57,5.88,5.88,0,0,1-.23-1.09c-.06-.39-.12-.77-.16-1.15,0-.2,0-.39-.07-.59,0,0,0-.1,0-.15h0v0h0c0-.21,0-.42-.06-.63a6.42,6.42,0,0,0-.1-.75,5.19,5.19,0,0,0-.45-1.27c-.1-.2-.22-.39-.34-.58a6.85,6.85,0,0,0-.45-.61,4.34,4.34,0,0,0-.54-.51c-.22-.17-.45-.33-.68-.48s-.43-.28-.65-.4a6,6,0,0,0-1.55-.6,7,7,0,0,0-.91-.18,5.55,5.55,0,0,0-.82-.07c-.31,0-.61,0-.92,0l-.8.06-.71.11c-.25,0-.5.08-.75.14s-.52.15-.78.23l-.65.22-.31.09-.31.12-.73.29-.33.14-.39.17L96.4,29h0l-.23.13-.35.2.06,0a2,2,0,0,1-.32.18l-.44.29c-.26.17-.52.36-.79.51l-.6.34c-.17.11-.34.24-.52.34l-.68.38-.56.29c-.12.06-.24.11-.36.18l-.12.08-.08,0a.38.38,0,0,1-.19,0l-.26.11-.33.09a1.47,1.47,0,0,1-.29,0,6.41,6.41,0,0,1-1.24-.09c-.23,0-.45-.09-.67-.15a3.86,3.86,0,0,1-.6-.21c-.16-.08-.32-.16-.47-.25s-.24-.16-.35-.25a1.75,1.75,0,0,1-.23-.24.41.41,0,0,1-.05-.09,1.05,1.05,0,0,1,0-.19v-.13c0-.13.06-.27.1-.41s.09-.28.14-.42l.36-.94c.23-.58.44-1.17.62-1.76.09-.28.16-.57.23-.86s.13-.6.18-.91.09-.64.11-1a5,5,0,0,0,0-1.09c0-.28-.07-.56-.12-.84s-.07-.3-.11-.45-.09-.32-.14-.48-.22-.61-.34-.91-.3-.62-.46-.92-.31-.56-.48-.84a8.77,8.77,0,0,0-.61-.89,1.54,1.54,0,0,1-.17-.19l-.14-.13-.36-.35c-.27-.23-.54-.46-.82-.67s-.52-.38-.79-.55l-.51-.31-.18-.09-.36-.2c-.14-.08-.3-.14-.45-.21l-.39-.18-.55-.22-.2-.08-.41-.15c-.3-.12-.61-.21-.91-.32s-.7-.2-1-.29a9.21,9.21,0,0,0-.91-.2l-1.16-.2-1-.14c-.35,0-.69-.08-1-.11l-1-.06-.85,0h-.23c-.72,0-1.43.06-2.14.12l-1,.11-.54.08-.51.08c-.32.05-.64.1-1,.17L66.3,14l-1.12.24-1,.23-1,.24-.58.15-.2.06-.47.15c-.62.19-1.23.4-1.84.6L58,16.43c-.65.21-1.29.44-1.93.67s-1.19.44-1.78.68l-1,.41-1,.43-1.84.85-1.87.91-.85.44-.93.5L46,21.8c-.33.18-.64.37-1,.56l-.87.51-.91.57c-.63.39-1.26.78-1.88,1.18s-1.17.73-1.73,1.12-1.18.84-1.76,1.28c-1.13.85-2.27,1.71-3.36,2.62s-2.13,1.87-3.17,2.84L29.85,33.9l-.71.69-.45.47c-.13.13-.25.27-.38.41s-.46.51-.68.77-.42.45-.62.68c-.51.57-1,1.15-1.51,1.72s-.88,1.1-1.32,1.65l-1.27,1.65c-.41.56-.82,1.12-1.21,1.69l-.66,1-.55.81c-.81,1.21-1.58,2.44-2.35,3.68Q17.59,50,17.06,51c-.14.25-.28.51-.41.77l-.54,1.13c-.13.28-.26.57-.4.86l-.49,1c-.14.3-.28.61-.41.92s-.29.69-.42,1-.23.62-.34.93-.24.63-.35,1-.22.67-.34,1-.22.7-.33,1c-.21.65-.4,1.3-.59,2-.09.34-.18.68-.26,1s-.19.7-.28,1.06c-.38,1.44-.68,2.91-1,4.38-.14.65-.27,1.3-.39,2l-.18,1c-.07.37-.11.74-.16,1.11-.09.65-.17,1.31-.24,2l-.12,1c0,.36-.05.72-.07,1.09s0,.61-.05.91,0,.74,0,1.11c0,.68,0,1.35.05,2,0,.33.06.67.1,1s.11.66.17,1c.12.62.27,1.23.42,1.83.08.33.17.66.27,1a9.53,9.53,0,0,0,.38,1.06c.12.29.26.57.4.85s.29.51.44.76a8.39,8.39,0,0,0,.56.77l.33.37a3.89,3.89,0,0,0,.36.34l.43.35.42.31.37.24.4.22c.13.07.28.13.42.19l.38.14a9.32,9.32,0,0,0,.9.27,11.25,11.25,0,0,0,1.74.27l.83,0,1,0,1.8,0c.62,0,1.23,0,1.85,0l.84,0,.79.1c.24,0,.47.08.7.14s.51.12.76.2a11.75,11.75,0,0,1,1.25.46,4,4,0,0,1,.46.23,3.08,3.08,0,0,1,.48.32,5.77,5.77,0,0,1,.78.86,6.65,6.65,0,0,1,.39.63c.13.26.25.53.36.8s.09.26.13.4.08.32.11.48.07.34.1.51l.06.51c0,.32.07.64.09,1s0,.68,0,1a14.39,14.39,0,0,1-.15,2l-.18.94-.18,1c-.1.61-.21,1.22-.3,1.83a7.89,7.89,0,0,0-.1.85c0,.29,0,.57-.07.86A14.78,14.78,0,0,0,30,109a10.14,10.14,0,0,0,.24,1.73c.06.29.13.58.21.86a9.25,9.25,0,0,0,.32.88,10.77,10.77,0,0,0,.77,1.36c.14.22.3.43.45.63a3.61,3.61,0,0,0,.25.3l.34.36.61.52q.34.28.69.54c.49.36,1,.68,1.5,1,1,.64,2,1.27,3.05,1.9l1.65,1c.24.14.48.28.73.41s.57.32.86.46c1,.53,2.13,1,3.2,1.42L48.3,124c.29.14.57.26.86.38l1,.38,1.85.75c.55.22,1.11.43,1.67.63s1.09.35,1.64.5c1.17.32,2.35.64,3.53.91l1.9.44,1.87.44c1.21.28,2.44.5,3.66.71l1.94.37c.66.13,1.31.23,2,.34s1.37.18,2.06.27c.31,0,.62.07.94.08l1.08,0c.64,0,1.28,0,1.92,0l.48-.05.41,0,1-.15,1.86-.3,1.92-.32c.63-.1,1.26-.21,1.87-.35.35-.08.69-.16,1-.26l1-.29c.62-.18,1.24-.38,1.85-.6l.81-.28.9-.32.07,0,.85-.33.87-.38c.56-.26,1.09-.56,1.63-.84s1.13-.63,1.69-.94,1.19-.64,1.8-.95l.91-.44,1-.44c.66-.3,1.32-.61,2-.94l.8-.43.92-.5.38-.23.38-.23.9-.58.73-.51c.29-.19.57-.37.85-.57.56-.38,1.13-.76,1.72-1.12l.82-.5c.31-.19.62-.4.94-.58.6-.36,1.2-.69,1.81-1s1.25-.68,1.86-1,1.15-.67,1.71-1,1.2-.75,1.78-1.16l.71-.53.85-.69c.27-.21.53-.44.79-.67l.8-.67c.52-.45,1-.89,1.58-1.33l.7-.58.45-.37c.15-.12.28-.25.43-.38l.7-.65.76-.72.77-.8c.23-.23.45-.48.68-.71.48-.51,1-1,1.46-1.52s1-1,1.5-1.54l.6-.6.41-.4.51-.46c.24-.22.5-.43.75-.64l.9-.77q.84-.7,1.65-1.44c.26-.24.53-.48.78-.73l.34-.34.41-.45c.25-.29.5-.57.74-.86l.73-.89c.41-.5.82-1,1.21-1.52.2-.26.4-.52.58-.79s.19-.27.28-.41l.33-.54c.16-.27.32-.55.46-.84s.3-.6.45-.9c.3-.6.6-1.2.91-1.8l.44-.85c.17-.32.34-.64.5-1,.31-.61.65-1.2,1-1.78s.65-1.2,1-1.81.52-1.12.76-1.69.48-1.2.7-1.81.44-1.26.62-1.9c.09-.3.16-.6.24-.9s.14-.66.21-1c.13-.69.25-1.39.36-2.08s.17-1.38.24-2.07c0-.15,0-.31,0-.46s0-.38,0-.57c0-.34,0-.68,0-1A8.59,8.59,0,0,0,146,67Zm-.73,1.92c0,.22,0,.44,0,.66l-.12,1.2c0,.4-.09.78-.14,1.17-.13.76-.26,1.51-.4,2.26-.07.37-.16.73-.25,1.09s-.2.77-.32,1.14c-.22.7-.47,1.39-.72,2.08s-.51,1.26-.79,1.89-.49,1-.77,1.56-.57,1-.87,1.55-.59,1.09-.87,1.64c-.14.25-.27.5-.4.75l-.41.8c-.28.52-.54,1.05-.8,1.58-.13.25-.25.51-.37.76s-.29.55-.44.81-.31.53-.48.79-.34.5-.52.75c-.36.5-.76,1-1.14,1.45l.07-.08-1.1,1.34-.66.76-.34.38c-.13.15-.27.28-.41.42l-.76.7-.78.7-1.53,1.31c-.54.46-1.09.91-1.6,1.4l-1.49,1.49-1.5,1.54-1.44,1.52c-.2.21-.39.42-.59.62l-.4.39c-.14.14-.28.28-.43.41l-.88.83c-.29.27-.59.52-.89.77l-1.76,1.46-1.78,1.51c-.29.25-.58.48-.88.72l-.42.34c-.16.12-.32.25-.48.36-.56.39-1.12.76-1.7,1.12l-1.71,1c-.61.36-1.23.7-1.85,1s-1.2.65-1.79,1c-.3.17-.58.35-.87.53l-.94.58c-.57.34-1.13.71-1.69,1.09l-.75.51-.84.58-.82.53c-.29.19-.59.37-.89.54l-.63.35-.77.41c-.51.27-1,.52-1.55.77l-.82.39-.44.19-.45.21-.72.35-.78.39-1.49.8-1.44.81-.68.36-.71.36c-.47.22-1,.43-1.45.63l-.56.21-.63.22-.69.24c-.51.18-1,.36-1.54.52l-1.6.46c-.57.17-1.15.28-1.72.4s-1.07.19-1.6.27l-1.64.27c-1,.17-2,.35-3.08.47l-.66,0c-.26,0-.52,0-.78,0h-.18c-.46,0-.92,0-1.39,0-.24,0-.49,0-.73,0s-.53-.06-.79-.09l-.84-.1-.72-.1c-.63-.11-1.26-.2-1.88-.32l-2-.38c-1.22-.21-2.44-.42-3.65-.7L61,127.24l-1.88-.43q-1-.23-1.92-.48l-.79-.21-.89-.24c-.52-.14-1-.29-1.53-.46s-1.09-.39-1.62-.61l-1.77-.71c-.58-.23-1.17-.46-1.75-.71-1-.46-2-.94-3-1.4-.51-.23-1-.47-1.55-.68s-1-.42-1.46-.63l-.55-.26-.6-.3-.56-.31-.6-.34c-.4-.24-.79-.49-1.18-.74L38.19,118,36,116.63a24,24,0,0,1-2.12-1.45l-.38-.32c-.14-.13-.29-.25-.43-.39l-.36-.39c-.1-.12-.19-.25-.29-.38-.2-.3-.4-.61-.58-.93a8,8,0,0,1-.47-1A10,10,0,0,1,31,110.6c-.08-.39-.15-.78-.2-1.18a14.9,14.9,0,0,1,0-1.89c0-.33.05-.66.07-1s.07-.66.12-1c.1-.6.2-1.2.31-1.79s.25-1.28.35-1.92q.06-.41.09-.81c0-.32.05-.65.05-1s0-.53,0-.8,0-.66-.07-1-.06-.6-.11-.9a8.27,8.27,0,0,0-.22-1.08c0-.14-.09-.29-.14-.43s-.11-.28-.16-.41a9.23,9.23,0,0,0-.42-.83,6.83,6.83,0,0,0-1-1.3,4.08,4.08,0,0,0-.39-.31,4.28,4.28,0,0,0-.42-.26,8.76,8.76,0,0,0-.82-.39c-.41-.16-.82-.3-1.24-.42a11.57,11.57,0,0,0-1.42-.3,19.25,19.25,0,0,0-2.63-.16l-1.29,0c-.46,0-.92,0-1.37,0l-1.34,0-.64,0-.63-.08a9.27,9.27,0,0,1-2.13-.61L15,90.5l-.16-.1a1.64,1.64,0,0,1-.22-.14q-.46-.32-.9-.66a4.72,4.72,0,0,1-.5-.5c-.16-.18-.31-.37-.45-.56a10.27,10.27,0,0,1-.61-1l-.3-.63c-.09-.2-.17-.41-.25-.62-.13-.38-.25-.76-.35-1.15s-.21-.86-.31-1.29-.16-.73-.23-1.1-.13-.77-.17-1.16a32.46,32.46,0,0,1,0-4.41c0-.37.05-.73.08-1.09s.08-.74.13-1.11c.08-.78.18-1.55.28-2.32.21-1.32.48-2.63.76-3.93.3-1.45.62-2.9,1-4.34.19-.7.36-1.4.56-2.1.08-.3.18-.59.27-.88L14,60.35c.21-.67.44-1.34.68-2,.11-.29.21-.59.32-.89s.25-.69.4-1l.33-.79.42-.89.43-.91c.3-.66.6-1.32.94-2s.68-1.26,1.05-1.87l1.14-1.84c.37-.59.74-1.18,1.12-1.75s.81-1.2,1.22-1.79l.57-.85.67-1,.52-.69.77-1,1-1.29.57-.7.84-1c.42-.48.86-1,1.28-1.43l.71-.79c.26-.29.53-.57.8-.85l.67-.64.74-.72c1-1,2.06-1.94,3.13-2.87.28-.25.57-.49.86-.73s.58-.48.87-.71q.81-.64,1.62-1.26c.63-.47,1.27-.95,1.91-1.41.23-.17.46-.34.7-.49l1-.65,1.88-1.17.77-.49.44-.27.58-.34.86-.51c.31-.19.63-.37,1-.55l.83-.46c.31-.18.62-.34.94-.5l1.83-.91c.61-.3,1.22-.59,1.84-.86s1.28-.58,1.93-.84l.85-.35.79-.31c.54-.2,1.08-.4,1.63-.58l1.71-.58,1.81-.61.9-.3,1-.32.35-.09.48-.12.87-.21,1-.23,1.08-.23c.59-.12,1.17-.23,1.76-.33l1-.15.94-.11.76-.07c.34,0,.68-.05,1-.06a16.62,16.62,0,0,1,1.73,0c.61,0,1.21.07,1.81.13s1.14.17,1.7.25l.6.11.59.14,1.08.29.47.16.55.19.62.23.32.14.28.12L82,16l.33.16c.22.12.44.23.65.36l.73.46.28.19.34.26c.24.19.48.39.7.6l.23.23.2.22c.1.12.2.25.29.38.26.39.49.8.71,1.21.12.21.23.42.33.64a5.3,5.3,0,0,1,.28.65c0,.14.1.27.14.41a5.9,5.9,0,0,1,.17.6,9.73,9.73,0,0,1,.18,1.08,5.9,5.9,0,0,1,0,.84,6.88,6.88,0,0,1-.1.9c0,.27-.1.54-.16.81s-.14.61-.23.91c-.18.59-.4,1.17-.62,1.75l-.34.87-.15.43a3.25,3.25,0,0,0-.12.54,1.84,1.84,0,0,0,0,.33,1.5,1.5,0,0,0,.34.83,1.14,1.14,0,0,0,.16.15l.17.15c.13.1.25.19.39.28a6.18,6.18,0,0,0,.9.43,3.59,3.59,0,0,0,.43.14l.57.12c.3,0,.6.09.91.12h.45a2.28,2.28,0,0,0,.45,0,2.94,2.94,0,0,0,.66-.19,5.79,5.79,0,0,0,.67-.31c.22-.12.44-.23.66-.36l.83-.49c.52-.29,1-.59,1.54-.9.35-.21.7-.44,1.05-.68l.18-.08.74-.33.72-.32c.22-.1.44-.19.67-.27l.26-.1-.1,0,.75-.24.87-.29a7.18,7.18,0,0,1,.92-.2c.3-.05.6-.1.89-.13s.75-.07,1.12-.07a7.66,7.66,0,0,1,1.17.07,7.77,7.77,0,0,1,.93.21,6.61,6.61,0,0,1,.85.3c.14.07.28.14.41.22a3.87,3.87,0,0,1,.43.27,7.48,7.48,0,0,1,.79.56A2.58,2.58,0,0,1,108,30c.1.11.18.23.27.35s.25.38.36.57a5.69,5.69,0,0,1,.26.56,6.13,6.13,0,0,1,.18.61,4.63,4.63,0,0,1,.1.65l0,.34,0,.38c0,.22.05.44.08.66s.06.57.1.86.11.75.19,1.12a3.66,3.66,0,0,0,.26.79,2.75,2.75,0,0,0,.57.82,2.79,2.79,0,0,0,.43.34,3.3,3.3,0,0,0,.53.27,4.8,4.8,0,0,0,1.41.3,1.41,1.41,0,0,0,.29,0l.28,0,.51-.07c.38-.05.75-.13,1.13-.17.21,0,.41,0,.62,0h.68l.65,0c.24,0,.48,0,.72.07s.47.09.7.15.51.17.76.27l.47.26a5.89,5.89,0,0,1,.57.41,5.79,5.79,0,0,1,.57.54,6.93,6.93,0,0,1,.56.64c.11.15.21.31.31.47a4.7,4.7,0,0,1,.39.69c0,.09.05.19.08.28a.85.85,0,0,1,0,.23,3.37,3.37,0,0,1,0,.71,5.57,5.57,0,0,1-.27,1c-.15.4-.33.79-.5,1.18s-.23.51-.34.76-.25.58-.37.87-.24.6-.36.9-.23.59-.35.89-.2.56-.28.84a5.47,5.47,0,0,0-.21.91,3.55,3.55,0,0,0-.06.47,2.53,2.53,0,0,0,0,.48,2.29,2.29,0,0,0,.07.36,2.67,2.67,0,0,0,.13.4,4.24,4.24,0,0,0,.47.86,3,3,0,0,0,.6.64c.11.09.23.17.35.25l.21.1.32.13c.26.11.54.2.82.29a8.5,8.5,0,0,0,.9.25l.84.17c.32.06.64.11,1,.14a15.61,15.61,0,0,0,1.81,0h.55l.62,0c.48,0,1,0,1.45,0s.84,0,1.26.08l.66.06.61.08c.39.06.78.13,1.16.22a11.66,11.66,0,0,1,1.16.31c.76.25,1.52.51,2.26.82a9.7,9.7,0,0,1,1,.51l.6.33c.22.13.43.27.64.41.43.27.84.55,1.26.83s.72.51,1.07.79l.46.41c.18.18.37.35.54.54l.46.5c.17.19.33.4.48.6l.15.21c.07.12.14.24.22.36s.25.45.37.68.25.51.37.76.18.44.26.66.15.45.21.67.16.54.22.82.11.52.15.78.08.53.11.8,0,.35,0,.52,0,.42,0,.63Z"/><path class="cls-3" d="M132.21,102c-.18.18-.36.35-.55.51l-.29.23-.31.24a.38.38,0,0,0-.12.28.41.41,0,0,0,.11.28.45.45,0,0,0,.28.13l.1,0a.39.39,0,0,0,.19-.1c.19-.14.39-.3.58-.46s.38-.34.56-.51a.41.41,0,0,0,0-.57.4.4,0,0,0-.56,0Z"/><path class="cls-3" d="M136,103.77l-.62.19-.73.23-.66.21q-.36.1-.72.24l-.21.08h0l-.55.19-.35.15-.27.12a.4.4,0,0,0,.38.71,2.31,2.31,0,0,1,.45-.21l.7-.25-.07,0,.29-.11a5.8,5.8,0,0,1,.59-.19l.65-.21.68-.22.59-.17a.41.41,0,0,0,.3-.48.41.41,0,0,0-.39-.31Z"/><path class="cls-3" d="M131.84,107.53a.4.4,0,0,0,.12.29.4.4,0,0,0,.27.12c.39,0,.78.08,1.17.13l.61.06.59.05.59,0,.55.05c.37,0,.74.08,1.11.09l.27,0h.34a.37.37,0,0,0,.28-.11.39.39,0,0,0-.27-.68c-.14,0-.29,0-.44,0l-.21,0-.29,0-.56,0-.54,0-.57,0-.61,0-1.17-.13c-.28,0-.55-.07-.83-.09h0a.41.41,0,0,0-.39.39Z"/><path class="cls-3" d="M132.16,110.14a.35.35,0,0,0-.19.24.39.39,0,0,0,0,.3l.06.09a.4.4,0,0,0,.18.1l.51.2.7.31.73.29.67.25.28.1.21.08.1,0a.42.42,0,0,0,.29,0A.37.37,0,0,0,136,112a.37.37,0,0,0,.05-.29.37.37,0,0,0-.19-.25c-.34-.16-.7-.28-1.05-.41s-.78-.29-1.16-.45l-.5-.23c-.22-.1-.45-.17-.67-.26a.18.18,0,0,0-.1,0,.42.42,0,0,0-.2,0Z"/><path class="cls-3" d="M131.74,112.89a.41.41,0,0,0-.13.28.38.38,0,0,0,.12.28l.5.38.19.16,0,0,.42.33a.39.39,0,0,0,.3,0,.41.41,0,0,0,.25-.18.39.39,0,0,0,0-.3l0-.1a.54.54,0,0,0-.15-.15c-.12-.09-.24-.17-.35-.27l0,0-.12-.1,0,0-.49-.37h0l-.08-.07a.47.47,0,0,0-.2-.06h0a.36.36,0,0,0-.27.12Z"/><path class="cls-3" d="M26.88,8.36a.39.39,0,0,0-.24.51c.2.47.4,1,.64,1.42a.4.4,0,0,0,.72-.16V10a.36.36,0,0,0-.06-.2c-.2-.4-.37-.82-.55-1.23A.41.41,0,0,0,27,8.33a.31.31,0,0,0-.13,0Z"/><path class="cls-3" d="M30.77,5.29a.42.42,0,0,0-.28.14.5.5,0,0,0-.09.29,4.19,4.19,0,0,0,0,.5c0,.17,0,.35.05.53,0,.37,0,.73.06,1.1s0,.77.07,1.16a5.48,5.48,0,0,0,.15,1.14.4.4,0,0,0,.51.24.38.38,0,0,0,.22-.21.39.39,0,0,0,0-.3v0a7,7,0,0,1-.1-.92c0-.38,0-.77-.07-1.15s0-.72-.06-1.08c0-.17,0-.34-.05-.5s0-.35,0-.53a.4.4,0,0,0-.4-.37Z"/><path class="cls-3" d="M34.42,5.15c0,.2-.05.39-.08.58s-.07.42-.1.63c-.06.41-.13.82-.19,1.23,0,.2-.06.39-.08.58s-.06.38-.09.57l-.09.59c0,.19-.07.37-.09.56a3,3,0,0,0,0,.52.41.41,0,0,0,.42.37.4.4,0,0,0,.37-.43v-.1l.06-.47c0-.2.06-.39.09-.58s.07-.39.1-.58,0-.39.08-.58c.05-.41.12-.83.19-1.24,0-.2.05-.4.09-.59s.06-.39.08-.59l.06-.32a.4.4,0,0,0-.32-.46h-.07a.41.41,0,0,0-.4.32Z"/><path class="cls-3" d="M39.49,6.56a.33.33,0,0,0-.27.14c-.1.14-.19.28-.28.42l-.24.41c-.15.27-.32.53-.47.81l-.51.9q-.21.39-.45.78l-.12.18c0,.05-.07.1-.1.16a.88.88,0,0,0-.1.22.42.42,0,0,0,0,.31.45.45,0,0,0,.2.23.42.42,0,0,0,.31,0,.41.41,0,0,0,.23-.2.94.94,0,0,1,.1-.23.41.41,0,0,0,.07-.11l.25-.38.25-.44c.15-.28.31-.55.46-.82s.31-.56.48-.83l.43-.74.12-.17a.43.43,0,0,0,.09-.28.42.42,0,0,0-.14-.28.39.39,0,0,0-.26-.09Z"/><path class="cls-3" d="M41.62,10a.47.47,0,0,0-.27.14l-.32.34-.33.33-.64.64a2.09,2.09,0,0,0-.22.2.43.43,0,0,0-.1.29.37.37,0,0,0,.15.27.4.4,0,0,0,.28.1.47.47,0,0,0,.28-.14l.09-.09h0l0,0c.25-.23.48-.48.72-.71l.34-.34c.11-.12.22-.24.34-.35a.38.38,0,0,0,.09-.29.42.42,0,0,0-.14-.27.4.4,0,0,0-.26-.1Zm-1.06,2.06,0,0h0l0,0,0,0Zm0,0,0,0,0,0Z"/><path class="cls-4" d="M49.18,33.82c0-.29,0-.58-.07-.83h0c0-.2,0-.41-.07-.61A11.21,11.21,0,0,0,48.87,31c0-.25-.1-.5-.16-.78s-.09-.39-.14-.57v0l0-.14c-.13-.51-.29-1-.42-1.46,0-.19-.12-.4-.21-.68s-.11-.32-.16-.48l0-.11,0-.11-.18-.53v0l-.06-.16c-.1-.26-.2-.51-.29-.72L47,25,47,24.88l-.15-.32,0-.06-.32-.66c-.21-.41-.46-.84-.77-1.36s-.56-.87-.84-1.28-.63-.84-.92-1.2-.62-.72-1-1.14c-.15-.16-.31-.33-.46-.47l-.05-.06-.54-.52c-.29-.27-.6-.52-.91-.76l-.22-.18-.51-.39-.07,0L39.62,16c-.38-.26-.78-.5-1.15-.73s-.91-.49-1.36-.7-.65-.29-1-.42h0l-1.05-.42A9.17,9.17,0,0,0,34,13.4l-.12,0-.18,0h0l-.09,0h-.05l-.06,0-.64-.14L32.08,13l-.64-.09-.46,0h0l-.21,0-.25,0h-.08l-.34,0-.41,0h-.23c-.44,0-.89-.06-1.34-.08h-.71l-.43,0h-.22l-.61,0a6.14,6.14,0,0,0-.7.07l-.73.1c-.21,0-.43.07-.64.12h0l-.52.11h0l-.09,0-.64.14-.28.07-.37.09-.66.2h0c-.34.11-.69.23-1,.36l-.37.14-.05,0-.11,0a3.36,3.36,0,0,0-.5.21l-.53.29-.12.07h0l-.16.09-.22.14-.1.06h0a2.23,2.23,0,0,0-.48.09,7.39,7.39,0,0,0-.77.29l-1,.45h0l0,0-.66.29c-.57.26-1.1.5-1.59.76l-.85.44-.83.47-.42.26-.34.23-.06,0-.35.26-.11.08-.26.21-.77.6-.22.18-.07,0,0,0-.36.28-.13.11,0,0-.55.46-.71.61L6.79,22c-.25.23-.45.43-.65.64A16.75,16.75,0,0,0,5,24.05c-.39.55-.72,1.06-1,1.56s-.6,1.12-.84,1.62v0l-.18.38,0,0c-.19.4-.4.82-.58,1.23l-.12.25v0c-.09.18-.17.37-.25.56l0,.11v0l-.12.29v0c-.06.15-.11.3-.16.45-.23.64-.43,1.28-.6,1.89l-.18.7-.06.2c-.08.33-.15.61-.21.9-.14.68-.24,1.37-.31,1.9q-.06.42-.12.93c0,.27,0,.54-.07.8v.13c0,.65,0,1.31,0,1.87,0,.27,0,.55,0,.81v.09c0,.36.05.64.09.9a14.45,14.45,0,0,0,.38,1.81c.15.55.32,1.09.49,1.61l0,.14c.06.2.14.41.2.6h0c0,.1.07.2.1.29s.18.51.3.8l.36.88c.14.3.3.59.46.89s.29.47.44.7h0l0,.07.4.59h0l.1.15c.37.53.77,1.05,1.07,1.44l.2.25v0l.94,1.17a8.87,8.87,0,0,0,.6.67l.08.08h0c.16.18.34.35.52.52h0l.29.26.36.28c.22.16.47.34.78.54s.55.34.83.49.56.31.81.44c.57.28,1.15.55,1.72.8h0a5.22,5.22,0,0,0,.61.25l.2.08.24.08.15.06.08,0,.4.14.55.18.26.08.11,0,.81.25c.26.08.56.17.86.24l.8.19L17,59h0l1.39.3.36.07.09,0,.41.09.63.11h0l.16,0,.76.14c.3.05.59.13.83.19L22,60l.37.1h0l.6.16c.38.12.77.26,1.15.42a8.72,8.72,0,0,1,1.06.53l.05,0,.23.15a4.33,4.33,0,0,1,.37.27,6,6,0,0,1,.65.53l.43.4.15.15.2.19,0,0,.39.37.27.29.05.06.06.06q.26.28.54.57c.34.37.7.78,1.16,1.34.3.37.6.77.9,1.15l.11.15c.28.36.55.74.79,1.08l.12.18c.08.1.15.21.22.31l0,.06a.83.83,0,0,1,.08.12l.17.25c.08.15.18.29.27.43h0l.18.28c.17.27.33.54.47.8l.21.39.18.33c.11.21.23.42.39.67a3.62,3.62,0,0,0,.22.32l0,.06a3.27,3.27,0,0,0,.39.51l.32.31a3.57,3.57,0,0,0,.37.31,4.61,4.61,0,0,0,.77.46,3.86,3.86,0,0,0,.82.24,3.53,3.53,0,0,0,.86.06,4.21,4.21,0,0,0,.5,0l.43-.07.44-.09.52-.14L40,73.6a4.39,4.39,0,0,0,.44-.21c.3-.15.61-.28.9-.45l.42-.25.38-.23.46-.31.37-.28.34-.28c.12-.09.23-.19.34-.29s.25-.23.36-.36l0,0,.17-.15c.12-.11.23-.23.34-.35a4,4,0,0,0,.26-.32,3,3,0,0,0,.37-.68,5.64,5.64,0,0,0,.24-.72,2,2,0,0,0,0-.34v-.28a6.34,6.34,0,0,0-.07-.75,4.89,4.89,0,0,0-.09-.53,2.36,2.36,0,0,0,0-.28l0-.15a2.7,2.7,0,0,0-.14-.56L45,65.35l0-.07a.19.19,0,0,1,0-.07L44.81,65a10.44,10.44,0,0,0-.41-1l-.1-.19c0-.05,0-.11-.08-.16L44,63.3c-.06-.14-.13-.28-.2-.42s-.27-.53-.4-.8-.13-.27-.2-.4L43,61.25c-.08-.13-.14-.27-.22-.41l-.23-.43c-.15-.26-.28-.54-.41-.82l-.19-.42c0-.12-.08-.23-.11-.35l0-.07c0-.17-.06-.31-.08-.45a3.94,3.94,0,0,1,0-.5,5.51,5.51,0,0,1,.1-.79c.06-.25.13-.49.2-.72l0-.12c.1-.34.22-.69.32-1l.21-.61,0-.07c.18-.4.37-.78.52-1.07l.24-.45.07-.14.33-.62c.09-.17.18-.35.26-.53l.07-.13a1.24,1.24,0,0,1,.1-.2v0c.06-.13.13-.25.18-.38l.58-1.2,0-.07.18-.39.1-.21c.1-.22.19-.44.29-.68s.31-.76.45-1.13l0,0L46.1,47l.12-.3h0c.13-.34.27-.7.39-1l.24-.66.12-.35a3,3,0,0,1,.11-.32c.08-.22.15-.45.23-.69l.09-.25v-.06c0-.11.08-.21.11-.31l.12-.37c0-.12.08-.24.11-.36s0-.16.08-.23l0-.06v0l.1-.31c.11-.33.21-.66.3-.94s.17-.65.24-1h0c.06-.24.11-.48.17-.72s.09-.4.13-.6l0-.1c.09-.46.16-1,.21-1.46,0-.23,0-.49.06-.75s0-.52,0-.78,0-.22,0-.33v-.1a2.81,2.81,0,0,0,0-.29C49.19,34.29,49.19,34.05,49.18,33.82Z"/><path class="cls-5" d="M39.71,77.5h0Z"/><path class="cls-5" d="M49.37,75.66h0v0Z"/><path class="cls-5" d="M49.83,73.67l-.09-.25a1.86,1.86,0,0,0-.1-.25,2.56,2.56,0,0,0-.27-.45,4.07,4.07,0,0,0-.4-.43,1.7,1.7,0,0,0-.19-.19L48.56,72a2.2,2.2,0,0,0-.51-.25l-.22,0a2.25,2.25,0,0,0,.08-.24,2.76,2.76,0,0,0,.07-.49,2.52,2.52,0,0,0,0-.55,3.49,3.49,0,0,0-.12-.54,2.56,2.56,0,0,0-.17-.43A3.14,3.14,0,0,0,47.4,69a2.49,2.49,0,0,0-.34-.38l-.22-.16a1.35,1.35,0,0,0-.26-.15,2.25,2.25,0,0,0-.77-.16h-.08a1.84,1.84,0,0,0-.33,0,3.39,3.39,0,0,0-.45.15.18.18,0,0,0-.11.24.19.19,0,0,0,.25.11,2,2,0,0,1,.34-.12,1.87,1.87,0,0,1,.34,0l.25,0,.26,0,.3.13a2.3,2.3,0,0,1,.34.28l.08.1a3.33,3.33,0,0,1-.28.48,5.19,5.19,0,0,1-.36.46c-.13.15-.26.29-.4.43s-.57.58-.87.85l-.43.4-.43.41c-.14.12-.28.25-.43.36l-.47.38-.46.36q-.25.19-.51.36a10.25,10.25,0,0,1-1.18.71l-.11.06-.07,0,0,0h0l-.05,0h0l-.07,0-.59.31-.49.23-.54.22-.55.22-.54.18a8.16,8.16,0,0,1-1,.26l-.49.11-.44.11-.25.05-.14,0-.21,0h0l0,0a2.85,2.85,0,0,1-.25-.63,3,3,0,0,1-.09-.66,2.7,2.7,0,0,1,.09-.48,1.39,1.39,0,0,1,.12-.28,1.35,1.35,0,0,1,.2-.27l0,0h.08a.19.19,0,0,0,0-.38.59.59,0,0,0-.17,0,.42.42,0,0,0-.14.09,1.43,1.43,0,0,0-.2.23c-.06.09-.11.19-.16.28a1.6,1.6,0,0,0-.1.31,1.27,1.27,0,0,0-.06.28,1.51,1.51,0,0,0,0,.3,2.5,2.5,0,0,0,.07.54,1.67,1.67,0,0,0,.08.3,1.34,1.34,0,0,0,.09.26,2.4,2.4,0,0,0,.2.39v0a.18.18,0,0,0,.1.11,3.16,3.16,0,0,0,.71.75,2.87,2.87,0,0,0,.49.31,2.26,2.26,0,0,0,.56.17l.24,0-.06.1c0,.08-.08.17-.12.25a2.49,2.49,0,0,0-.11.29,1.66,1.66,0,0,0-.06.55,5.25,5.25,0,0,0,.09.55,3,3,0,0,0,.18.5,1.17,1.17,0,0,0,.15.27l.15.19a2.66,2.66,0,0,0,.23.24,1.66,1.66,0,0,0,.21.16,5.48,5.48,0,0,0,.52.31l.25.11.12,0h0l0,0h.11a1.26,1.26,0,0,0,.28,0,3.19,3.19,0,0,0,1.11-.12,5.47,5.47,0,0,0,.58-.15,2.46,2.46,0,0,0,.29-.09L41.7,81l.39-.15a1.18,1.18,0,0,0,.13.18l.17.21.18.2.23.21.2.18a1.56,1.56,0,0,0,.2.16l.27.15.23.13a1.28,1.28,0,0,0,.24.11l.32.09.25,0a1.51,1.51,0,0,0,.3,0,2.32,2.32,0,0,0,.53,0c.19,0,.39-.1.58-.16a3.33,3.33,0,0,0,.52-.21l.29-.17.21-.14c.14-.1.27-.21.4-.32l.41-.33.37-.33a4.25,4.25,0,0,0,.35-.39,1.77,1.77,0,0,0,.16-.22c.06-.08.11-.17.16-.25a2.4,2.4,0,0,0,.11-.23,2.45,2.45,0,0,0,.08-.29,2.11,2.11,0,0,0,0-.26c0-.07,0-.15,0-.23a4.76,4.76,0,0,0-.1-.52c0-.16-.09-.31-.14-.46a2.34,2.34,0,0,0-.09-.24,1.63,1.63,0,0,0-.11-.23l-.15-.25-.12-.17a.41.41,0,0,0-.07-.11v0a7.13,7.13,0,0,0,.62-.61,4,4,0,0,0,.27-.31l.13-.17.14-.21a1.59,1.59,0,0,0,.13-.22l.12-.23c0-.07.07-.14.11-.22a1.22,1.22,0,0,0,.09-.27,1.61,1.61,0,0,0,.08-.48,1.4,1.4,0,0,0,0-.29A2.47,2.47,0,0,0,49.83,73.67Zm-8.67,1Zm-4.1,2.68a3,3,0,0,1-.45-.19A3.55,3.55,0,0,1,36.3,77l-.3-.28-.13-.16h.07l.17,0h0l.32-.06.24-.06.53-.12.28-.06.26-.06.54-.17.54-.18.54-.21.54-.22.54-.25.54-.28.12-.07.06,0,0,0h0l.51-.26.51-.3c.34-.22.66-.45,1-.69l.49-.39.47-.38.47-.41.45-.43c.14-.14.29-.27.44-.4L46,71l.41-.42c.15-.15.28-.31.42-.47a4.45,4.45,0,0,0,.45-.68.86.86,0,0,1,.07.1c0,.1.09.2.13.3s.07.21.1.31a3.16,3.16,0,0,1,.08.68,2.9,2.9,0,0,1-.09.59c0,.11-.08.22-.13.33a2.39,2.39,0,0,1-.13.28l-.22.32a2.91,2.91,0,0,1-.26.33l-.3.33-.34.35a7.7,7.7,0,0,1-.89.71l-.48.34-.48.32-.39.28-.43.29-.44.29-.44.26,0,0-.36.21-.32.18c-.16.09-.32.18-.49.26a4.59,4.59,0,0,1-.5.24c-.17.08-.35.14-.52.21a5.62,5.62,0,0,1-.58.19l-.21.06h.05l-.27.06c-.32.07-.64.15-1,.2a7.42,7.42,0,0,1-.94.06l-.23,0Zm.39,1.48a1.8,1.8,0,0,1,.06-.32l.09-.24c0-.08.08-.17.13-.25a1.27,1.27,0,0,1,.13-.19l.06,0,.46,0a4.62,4.62,0,0,0,.63-.11l.33-.07.33-.08.59-.16.58-.22c.17-.07.34-.13.51-.21l.5-.26.47-.26.44-.25h0c.16-.09.32-.18.47-.28s.33-.22.49-.33l.47-.3.44-.31c.33-.22.65-.45,1-.68a6.55,6.55,0,0,0,.91-.76l.38-.4.31-.34c.09-.12.18-.24.26-.37l.15-.23.06-.13h0a1.19,1.19,0,0,1,.26,0,1.43,1.43,0,0,1,.28.13l.28.19.13.11a.15.15,0,0,0,0,.11v.13a.17.17,0,0,1,0,.07.14.14,0,0,1,0,.07,1.22,1.22,0,0,1-.07.17l-.1.17a4.71,4.71,0,0,1-.33.45c-.06.09-.13.17-.19.25l-.21.23-.43.43-.23.23-.2.19-.48.47-.46.42h0l0,0,0,0-.23.21c-.31.27-.64.52-1,.76s-.64.47-1,.69l-.34.21L43,78c-.24.14-.48.28-.73.41l-.51.24-.51.22c-.35.16-.71.3-1.07.44l-.24.1-.28.11-.54.16a4.61,4.61,0,0,1-.53.15L38.1,80l-.16,0-.07,0h-.11l0,0a2,2,0,0,1-.11-.26l-.09-.27A3.09,3.09,0,0,1,37.45,78.85ZM37.77,80h0Zm10.8-.48-.06.17-.1.18L48.3,80a1.33,1.33,0,0,1-.14.19c-.09.11-.18.22-.27.31l-.34.31-.4.32-.19.16-.2.14-.19.15-.21.12a4,4,0,0,1-.47.22l-.5.15-.29,0-.32,0-.29,0-.3-.08a1.69,1.69,0,0,1-.37-.15l-.21-.12.16-.08h0a1.51,1.51,0,0,1,.18-.09l.31-.16,0,0c.15-.09.3-.15.46-.23l.51-.29.5-.29.5-.31.51-.31c.17-.1.33-.22.5-.33l.46-.34c.15-.11.31-.23.46-.36s.26-.22.38-.34l.06-.07a2.93,2.93,0,0,1,.05.29,1.77,1.77,0,0,1,0,.32A1,1,0,0,1,48.57,79.54Zm-.34-1.83c.07.14.12.29.18.44a.43.43,0,0,1,0,0l-.07.11-.16.17a10.36,10.36,0,0,1-.89.72l-.48.35-.51.32-.4.24c-.14.09-.28.19-.43.27l-.79.46-.69.35,0,0-.49.25,0,0a2.17,2.17,0,0,1-.35.15h0l-.07-.06L43,81.34a1,1,0,0,1-.15-.14,2.91,2.91,0,0,1-.24-.27l-.14-.16,0,0,0,0,.26-.11.52-.24c.18-.09.37-.18.54-.28.34-.19.67-.38,1-.58l.48-.29.46-.31.24-.16.21-.16.41-.32.81-.64.2-.15.19-.16.1-.09.07.1c.08.12.17.24.24.37Zm1.22-3.06a1.34,1.34,0,0,1-.07.18,1.24,1.24,0,0,1-.1.2c0,.07-.07.15-.11.22a1.62,1.62,0,0,1-.1.18l-.06.09,0,0a5.47,5.47,0,0,1-.41.54l-.23.24-.23.23-.37.31-.37.32-.41.32-.42.33-.8.62c-.15.12-.31.22-.46.32l-.47.3-.65.39-.62.36-.49.25-.52.24-.52.21-.52.2q-.44.15-.87.27a4.61,4.61,0,0,1-1,.17,2.42,2.42,0,0,1-.47-.07h-.08L39,81a2.35,2.35,0,0,1-.45-.22l-.24-.15-.11-.09-.11-.1,0,0,.19,0,.49-.14.52-.14.54-.17.28-.1.24-.1.53-.22c.35-.13.7-.29,1-.45l.54-.26c.2-.09.38-.2.57-.3l.25-.15.26-.15.51-.32c.34-.23.67-.47,1-.71s.66-.51,1-.78l0,0,.46-.41.43-.41.44-.43.45-.45a6,6,0,0,0,.73-.85,3.48,3.48,0,0,0,.34-.51,1.78,1.78,0,0,0,.12-.29.28.28,0,0,0,0-.09,3.28,3.28,0,0,1,.27.38,1.48,1.48,0,0,1,.12.29,2.3,2.3,0,0,1,.12.34l0,.15v.19A2.34,2.34,0,0,1,49.45,74.65Z"/><path class="cls-5" d="M48.54,77.49v.05Z"/><polygon class="cls-5" points="45.89 75.89 45.89 75.89 45.88 75.89 45.89 75.89"/><polygon class="cls-5" points="45.88 75.89 45.88 75.89 45.88 75.89 45.88 75.89"/><polygon class="cls-5" points="41.2 74.67 41.19 74.67 41.19 74.68 41.2 74.67"/><polygon class="cls-5" points="41.18 74.68 41.18 74.68 41.19 74.68 41.18 74.68"/><path class="cls-6" d="M34.19,41.19a2.71,2.71,0,0,0-.69.13,4.77,4.77,0,0,0-.52.22l-.22.13c-.12.08-.23.17-.34.26a2,2,0,0,0-.48.57l-.08.13a2,2,0,0,0-.12.31,2.27,2.27,0,0,0-.06.25,2.41,2.41,0,0,0-.05.54,3,3,0,0,0,0,.52,2.5,2.5,0,0,0,.05.29l.06.27.12.47c.09.31.2.63.3.94a1.72,1.72,0,0,1,.07.21c-.18.11-.36.22-.55.32s-.45.25-.68.36l-.94.45h0l-.74.35c-.25.11-.51.21-.77.3s-.54.19-.81.26-.52.14-.79.19l-.13,0h0l-.06-.1-.53-.83-.54-.81a6.38,6.38,0,0,0-.66-.8c-.11-.11-.23-.21-.35-.31a2.32,2.32,0,0,0-.46-.31L24,45.41l-.28-.1a3.43,3.43,0,0,0-.56-.08,1.81,1.81,0,0,0-.46,0,1.09,1.09,0,0,0-.26.05l-.24.1-.23.12a2,2,0,0,0-.21.2,1.19,1.19,0,0,0-.24.36,1.21,1.21,0,0,0-.11.32,1.23,1.23,0,0,0,0,.51c0,.1,0,.2.07.3a2.31,2.31,0,0,0,.22.51c.07.13.15.26.23.38a2.24,2.24,0,0,0,1.13,1,2.11,2.11,0,0,0,.48.17l.48.11a5.66,5.66,0,0,0,1,.09,7.93,7.93,0,0,0,1-.06l.47-.08h0l.49.74.52.8.56.89.54.88c.18.29.35.59.51.88.33.59.64,1.19,1,1.78l.45.84c.17.31.35.61.52.91.32.58.66,1.15,1,1.72l1.05,1.75c.34.59.69,1.18,1,1.76s.7,1.19,1,1.79L36,65.59l.42.76.37.73c.14.29.27.59.41.89l.38.92c.13.31.25.63.38.94l.36,1c.13.3.24.62.35.93l.18.49a3.52,3.52,0,0,1,.13.43l0,.11v.08a.31.31,0,0,0,.32.22.39.39,0,0,0,.22-.11.26.26,0,0,0,.07-.22,3.15,3.15,0,0,0-.12-.55c0-.16-.11-.32-.17-.47-.11-.31-.22-.62-.34-.93l-.36-.92c-.12-.33-.25-.65-.38-1l-.19-.45c-.06-.15-.12-.31-.19-.46-.13-.3-.26-.61-.41-.91s-.33-.67-.5-1-.31-.57-.47-.86c-.65-1.18-1.32-2.35-2-3.51l-2.1-3.55-.51-.84c-.18-.31-.35-.62-.52-.93s-.31-.55-.46-.83l-.5-.91c-.17-.29-.32-.58-.47-.87l-.52-.93c-.16-.29-.34-.58-.52-.86l-.52-.83c-.35-.58-.72-1.14-1.09-1.7l-.12-.17.24,0,.46-.12a9.24,9.24,0,0,0,.89-.29,7.67,7.67,0,0,0,.84-.32c.28-.12.56-.26.83-.39l.8-.37c.31-.15.62-.32.91-.49l.33-.19c0,.07.05.13.07.19.12.31.25.61.37.92.06.16.12.31.19.47s.12.31.19.46l.39.92c.14.31.27.62.4.93s.27.61.4.92c.27.62.53,1.23.81,1.84s.56,1.27.85,1.9l.21.48c.06.15.14.31.21.46.14.31.27.61.4.92s.26.62.39.93l.38.93c.12.3.24.59.37.88s.28.64.41,1c.26.6.54,1.2.82,1.79l.39.88.18.44c.06.15.12.3.17.45l.36.88c.12.28.23.57.35.85s.23.56.35.83l.33.86c.07.2.14.39.22.58s.17.38.25.58.16.37.23.55l.21.48a.37.37,0,0,1,0,.11.31.31,0,0,0,.39.2.38.38,0,0,0,.19-.16.29.29,0,0,0,0-.24.64.64,0,0,0-.08-.19c0-.1-.08-.2-.13-.3l-.17-.42-.33-.76c-.12-.29-.23-.58-.34-.87s-.21-.55-.32-.83c-.24-.56-.47-1.12-.7-1.69-.12-.28-.24-.57-.35-.86s-.24-.61-.38-.92c-.27-.61-.55-1.21-.82-1.81L39,60.69l-.41-.93-.36-.89c-.12-.31-.25-.63-.38-.94s-.26-.62-.4-.93-.27-.61-.41-.91-.27-.63-.42-1l-.43-1-.82-1.86c-.13-.3-.27-.61-.4-.92l-.39-.93c-.27-.61-.54-1.22-.8-1.84-.12-.3-.24-.62-.37-.92s-.25-.63-.37-1l0-.06.73-.49a7.77,7.77,0,0,0,.75-.65,7.06,7.06,0,0,0,.66-.68c.1-.12.19-.24.28-.37a4,4,0,0,0,.28-.43,2.26,2.26,0,0,0,.19-.42,4.1,4.1,0,0,0,.14-.5,1.79,1.79,0,0,0,0-.46,1.53,1.53,0,0,0-.11-.48,2.56,2.56,0,0,0-.11-.24,1.14,1.14,0,0,0-.21-.28,2.09,2.09,0,0,0-.22-.2,1.59,1.59,0,0,0-.64-.27,2.7,2.7,0,0,0-.49,0Zm.28.63.39.07.19.09a1,1,0,0,1,.18.17,1.27,1.27,0,0,1,.13.19c0,.09.07.18.1.27a1.93,1.93,0,0,1,0,.24,2.93,2.93,0,0,1-.13.57.87.87,0,0,1-.1.24l-.15.27a6,6,0,0,1-.62.79c-.12.13-.25.25-.38.37l-.38.36-.24.2-.36.24-.3.2c0-.11-.07-.21-.1-.32l-.15-.45c-.05-.16-.1-.33-.14-.5s-.08-.33-.11-.49,0-.26-.05-.39a2.28,2.28,0,0,1,0-.37,2.71,2.71,0,0,1,.1-.51,3.41,3.41,0,0,1,.17-.33,2.7,2.7,0,0,1,.28-.31,2.22,2.22,0,0,1,.35-.25l.23-.13.25-.11.32-.08a2.91,2.91,0,0,1,.51,0Zm-11.5,4h.26l.41.08a2.73,2.73,0,0,1,.48.25l.39.32c.11.11.22.22.32.34s.37.5.55.76l.54.83.23.35-.43.06a6.49,6.49,0,0,1-1.08,0,5.58,5.58,0,0,1-1.15-.23,2.38,2.38,0,0,1-.45-.23,1.7,1.7,0,0,1-.33-.27,2.45,2.45,0,0,1-.26-.37l-.25-.44a2.27,2.27,0,0,1-.17-.5,1.79,1.79,0,0,1,0-.23.5.5,0,0,1,0-.16,1.63,1.63,0,0,1,.09-.19,1.07,1.07,0,0,1,.14-.16l.15-.1.28-.1.27,0Zm7.08,1.71,0,0,0,0ZM27,48.66h0Z"/><path class="cls-4" d="M130.65,106.6c0-.13,0-.28-.05-.47l0-.22v-.07a0,0,0,0,0,0,0,.17.17,0,0,0,0-.07v-.08c0-.12,0-.25-.06-.37s-.07-.31-.12-.48-.09-.27-.14-.39-.11-.27-.17-.41a3.91,3.91,0,0,0-.2-.41l-.19-.32-.07-.1-.22-.38-.24-.39-.16-.26-.33-.51c-.17-.26-.34-.5-.56-.79l0,0-.24-.32a4.43,4.43,0,0,0-.31-.39l-.15-.17-.12-.14-.06-.08-.28-.32-.66-.72,0,0-.33-.36-.36-.35a8.1,8.1,0,0,0-.73-.61l-.82-.58-.13-.09c-.23-.16-.47-.33-.71-.48l-.88-.53c-.26-.15-.57-.33-.88-.48a9.7,9.7,0,0,0-.93-.41l-.53-.2-.29-.09-.22-.08-.57-.2-.42-.16c-.29-.1-.58-.18-.91-.27l-.45-.12-.3-.07-.12,0-.09,0-.41-.08-.52-.07-.46,0h-.41a2.61,2.61,0,0,0-.28,0h-.65l-.46,0-.42.06h-.1l-.53.09h-.06l-.45.11-.38.11-.09,0-.49.17-.21.08-.26.09-.48.2-.48.22-.47.24-.07,0-.36.2-.44.26c-.28.18-.56.36-.83.55s-.56.41-.83.64l-.36.35-.15.16-.06.06-.1.11c-.21.19-.47.45-.73.72l-.12.13,0,0h0l-.16.2-.34.46a.86.86,0,0,1-.1.16l-.15.24c-.1.14-.18.29-.26.42l-.2.33-.07.13,0,.08-.21.37-.1.16a2.69,2.69,0,0,1-.16.29l-.2.39,0,.09c-.18.36-.32.65-.45.93a8.94,8.94,0,0,0-.4,1l-.09.25c0,.08,0,.16-.08.25s-.09.29-.14.47a7.92,7.92,0,0,0-.2.85c0,.26-.07.53-.1.79v.19h0c0,.17,0,.34,0,.51s0,.34,0,.52,0,.33,0,.49,0,.33.07.5v0l0,.1,0,.16c0,.08,0,.15,0,.23v0c0,.2.08.36.12.51a8.54,8.54,0,0,0,.27.9l.18.46.17.44.19.47c.06.12.13.28.21.43s.31.54.48.81l.09.15c.06.09.12.18.17.27l.27.41c.15.23.3.48.44.72l.1.17.24.42c.06.1.12.22.18.34a3,3,0,0,1,.13.39,2.6,2.6,0,0,1,.1.4v.06h0a3.68,3.68,0,0,1-.1,1.43c-.06.2-.12.37-.17.52v0h0c-.08.18-.17.36-.26.52a5.06,5.06,0,0,1-.27.46l-.07.1-.21.32-.54.85c-.1.14-.18.28-.28.41l-.13.2a.35.35,0,0,0,0,.08l0,0,0,0s0,0,0,0l-.27.37h0l-.12.17h0c-.12.16-.21.29-.29.42s-.19.3-.28.43a1.76,1.76,0,0,1-.14.23.86.86,0,0,1-.1.16l-.14.25-.06.1-.15.29-.12.29c0,.07,0,.15-.06.25a1,1,0,0,0,0,.17c0,.06,0,.11,0,.17a1.46,1.46,0,0,0,.1.34,3.41,3.41,0,0,0,.21.44,4.15,4.15,0,0,0,.27.41c.09.12.19.25.32.4l.34.36.38.37.07.06c.1.1.2.2.31.29a3.7,3.7,0,0,0,.4.34l.43.31.22.15.14.09a8.41,8.41,0,0,0,.77.44l.2.09.16.07a1.24,1.24,0,0,0,.2.1l.13.06.34.15.26.12a1.25,1.25,0,0,0,.25.09l.2,0h.18L107,129a1.15,1.15,0,0,0,.33-.21h0a2.52,2.52,0,0,0,.25-.21l.23-.24,0,0,.29-.33.29-.39c.19-.26.36-.52.53-.77l.18-.28.27-.41.3-.46.31-.45.13-.2c.08-.11.15-.23.23-.35l0-.06c.11-.17.22-.34.34-.51h0l.07-.09,0,0,.12-.16.12-.17.15-.2.16-.21a4.17,4.17,0,0,1,.36-.47l.19-.2.16-.16a1.92,1.92,0,0,1,.31-.18,4,4,0,0,1,.45-.15,5.4,5.4,0,0,1,.58-.11l.14,0h.16l.31,0,.28,0,.56-.08h.07c.46-.07.92-.12,1.37-.17l.63-.08.92-.08H118l.38,0h.13l.24,0,.26,0a10.39,10.39,0,0,0,1-.12l.31,0,.18,0,.48-.09c.12,0,.24-.06.36-.09l.11,0,.42-.12a3.59,3.59,0,0,0,.35-.12l.07,0,.46-.16.92-.38a4.74,4.74,0,0,0,.44-.23l.16-.09.26-.15c.13-.07.25-.16.42-.27l.1-.08.3-.21a4.26,4.26,0,0,0,.39-.36l.06,0,.12-.12.07-.06.12-.11.36-.37.22-.24.11-.13.07-.08c.08-.09.17-.18.25-.28l.12-.15.16-.2h0a9.6,9.6,0,0,0,.64-.79l.05-.08.21-.3c.07-.1.13-.2.19-.3l0,0,.12-.18.12-.19.24-.4c.18-.3.32-.55.45-.79l.18-.36v0l.1-.2.09-.18a8.41,8.41,0,0,0,.36-.94c.07-.2.12-.4.17-.6l0-.18,0-.13,0-.18,0-.16a2.5,2.5,0,0,0,.05-.29l0-.2a.88.88,0,0,0,0-.16c0-.22.06-.45.09-.7s0-.34,0-.52a3.23,3.23,0,0,0,0-.44v-1C130.71,107.28,130.68,106.94,130.65,106.6Z"/><path class="cls-5" d="M107.74,129.53a2.16,2.16,0,0,0-.16-.55l-.11-.23a2,2,0,0,1-.1-.21v0a.18.18,0,0,0-.11-.1.17.17,0,0,0-.14,0,.14.14,0,0,0-.1.1.17.17,0,0,0,0,.14,2.37,2.37,0,0,0,.17.36,1.66,1.66,0,0,1,.14.37,1,1,0,0,1,.05.3,1.48,1.48,0,0,1,0,.21,1.43,1.43,0,0,1,0,.22l0,.08-.14.05H107l-.27-.05-.32-.08-.57-.17-.22-.08-.52-.2c-.18-.08-.37-.15-.55-.24l-.25-.12-.25-.13-.5-.27a4.11,4.11,0,0,1-.39-.24l-.09,0-.1-.08-.29-.19a4.59,4.59,0,0,1-.44-.33,4,4,0,0,1-.44-.38c-.14-.12-.28-.26-.41-.39l-.38-.37c-.12-.12-.22-.24-.33-.37l-.3-.33h0l0,0c-.11-.12-.2-.24-.3-.37s-.16-.23-.24-.35l-.12-.2-.09-.15-.12-.21.1-.09a1.88,1.88,0,0,1,.23-.16,2.52,2.52,0,0,1,.33-.15l.32-.11a.84.84,0,0,1,.27,0,2.3,2.3,0,0,1,.26,0l.12.05.06,0a.18.18,0,0,0,.26,0,.17.17,0,0,0,0-.26.87.87,0,0,0-.27-.14,1,1,0,0,0-.3,0h-.15a1.8,1.8,0,0,0-.46.1,3.11,3.11,0,0,0-.5.21,1.75,1.75,0,0,0-.29.18,1.06,1.06,0,0,0-.2.17,2.28,2.28,0,0,0-.22.22,1.77,1.77,0,0,0-.16.22,2.15,2.15,0,0,0-.14.26,1,1,0,0,0-.11.29.89.89,0,0,0,0,.28,2.09,2.09,0,0,0,0,.25h0a.33.33,0,0,0-.14,0h-.14a3.13,3.13,0,0,0-.53.12,2,2,0,0,0-.5.25l-.2.17a1,1,0,0,0-.2.22,1.1,1.1,0,0,0-.14.21l-.07.15s0,.09,0,.13,0,.18-.07.26-.06.2-.08.3a2.45,2.45,0,0,0,0,.27,1.41,1.41,0,0,0,0,.29,2,2,0,0,0,0,.25,1.57,1.57,0,0,0,.08.31,2.69,2.69,0,0,0,.26.54c.1.15.21.31.32.45l.11.12a.52.52,0,0,0-.1.11l-.12.19a2.1,2.1,0,0,0-.13.26,2.13,2.13,0,0,0-.07.27,2.21,2.21,0,0,0,0,.25,2.28,2.28,0,0,0,0,.26c0,.08,0,.17,0,.25a1.55,1.55,0,0,0,0,.31,2.91,2.91,0,0,0,.55,1.06,4.33,4.33,0,0,0,.79.81l.18.15.21.16.22.15.21.14a3,3,0,0,0,1,.36l.25,0h.26l.2,0,.25-.07a2.41,2.41,0,0,0,.51-.25,2.11,2.11,0,0,0,.37-.3c.08-.09.17-.17.25-.27a.42.42,0,0,1,.06-.08l0,0h0l0-.05.39.16.23.09.28.08a3.86,3.86,0,0,0,.57.12,3.25,3.25,0,0,0,.54,0,2.22,2.22,0,0,0,.51-.06,2.31,2.31,0,0,0,.52-.19,2.15,2.15,0,0,0,.48-.3,2.86,2.86,0,0,0,.36-.42.41.41,0,0,1,0-.09.16.16,0,0,0,.08-.06.28.28,0,0,0,0-.13.66.66,0,0,0,.09-.19,2.36,2.36,0,0,0,.12-.51,2.26,2.26,0,0,0,0-.45.83.83,0,0,0,0-.15.45.45,0,0,0,0-.11l0,0h.06a1.31,1.31,0,0,0,.28-.09c.08,0,.14-.08.21-.11a3.21,3.21,0,0,0,.48-.34,1.1,1.1,0,0,0,.2-.23,1.28,1.28,0,0,0,.15-.25.85.85,0,0,0,.09-.22,2,2,0,0,0,.07-.26,1.13,1.13,0,0,0,0-.25A1.5,1.5,0,0,0,107.74,129.53Zm-10.38-2.68.18-.12a1.76,1.76,0,0,1,.4-.16,2.67,2.67,0,0,1,.48-.08h.13l0,0a2.41,2.41,0,0,0,.08.25,3.89,3.89,0,0,0,.21.51,4.66,4.66,0,0,0,.32.53l.34.47c.11.15.24.29.36.43a6.09,6.09,0,0,0,.44.44l.43.37a3.83,3.83,0,0,0,.44.36c.14.1.28.21.43.3l.23.15.23.14c.15.1.31.19.47.28s.34.2.52.29l.25.1.26.1.56.2a4.54,4.54,0,0,0,.53.12,4.33,4.33,0,0,0,.5.08h.55s0,0,0,0l.07.09a.14.14,0,0,0,0,.06l0,.17a1.5,1.5,0,0,1,0,.2,1.57,1.57,0,0,1,0,.37c0,.05,0,.11-.05.17l-.07.15,0,0-.13,0a4,4,0,0,1-.84-.11l-.51-.15-.55-.22-.53-.22c-.17-.08-.34-.16-.5-.25l-.24-.14c-.34-.19-.68-.38-1-.6l-.47-.32-.46-.32-.57-.45c-.17-.15-.35-.31-.51-.47s-.52-.53-.78-.79-.25-.27-.38-.41l-.19-.2a1.63,1.63,0,0,0-.17-.2,2.61,2.61,0,0,0-.24-.23,2,2,0,0,1-.28-.35l0,0-.15-.25-.1-.17,0,0a.41.41,0,0,1-.05-.09.24.24,0,0,1,.06-.08A1.22,1.22,0,0,1,97.36,126.85Zm8.37,6.07Zm-5.23,1.61a1.19,1.19,0,0,1-.26.05,3.32,3.32,0,0,1-.55-.09,1.73,1.73,0,0,1-.32-.11,1.64,1.64,0,0,1-.3-.14,1.67,1.67,0,0,1-.28-.18l-.3-.22-.29-.23-.26-.23a4.4,4.4,0,0,1-.35-.39l-.18-.23-.15-.24a2.33,2.33,0,0,1-.21-.49,1.07,1.07,0,0,1,0-.25c0-.13,0-.25,0-.38s0-.2,0-.3a2.91,2.91,0,0,0,.3.31c.05.06.11.1.16.15l.15.16.35.36.4.38.41.36.42.35a9.54,9.54,0,0,0,.9.67,5.07,5.07,0,0,0,.54.36l.25.14-.18.1Zm1-.6-.17.16,0,0a1.54,1.54,0,0,1-.34-.17c-.12-.07-.24-.14-.35-.22l-.33-.23h0c-.32-.22-.63-.46-.93-.71s-.59-.51-.86-.77c-.11-.11-.22-.21-.32-.32l-.28-.29-.26-.25a2.37,2.37,0,0,1-.27-.28h0l-.07-.08,0-.06h0v0a1,1,0,0,1,.08-.14.61.61,0,0,0,.07-.1h0c.15.16.31.31.46.46l.42.39.45.37c.3.24.61.46.91.68l.45.33a5.4,5.4,0,0,0,.46.33c.15.1.3.2.46.29l.48.28.21.1,0,0Zm3.57-.29a2.67,2.67,0,0,1-.46.2l-.16,0-.23,0c-.14,0-.29,0-.43,0l-.29,0-.3-.06-.39-.11-.37-.14a6.51,6.51,0,0,1-.71-.33l-.28-.15-.47-.29-.48-.32-.45-.34-.46-.33c-.3-.22-.59-.44-.87-.67a9.59,9.59,0,0,1-.81-.75,6.2,6.2,0,0,1-.5-.52,5.89,5.89,0,0,1-.41-.57,1.63,1.63,0,0,1-.11-.23c0-.09-.08-.18-.11-.27a2.28,2.28,0,0,1,0-.45,1.93,1.93,0,0,1,0-.24,2,2,0,0,1,0-.24l.09-.3a.88.88,0,0,1,0-.15,2.12,2.12,0,0,0,.12.2l.1.17.12.15c.1.12.21.21.32.32a1.37,1.37,0,0,1,.16.18l.19.2c.12.14.25.28.38.41l.78.81a6,6,0,0,0,.46.42l.21.19.24.19c.29.23.61.44.92.66s.44.3.66.43l.38.22.39.22,0,0,.3.16.25.13.29.14.27.11.55.23.28.09.27.08a5.63,5.63,0,0,0,.69.14l.25,0-.06.08A2,2,0,0,1,105.06,133.64Zm1.76-2.78-.21.15a2,2,0,0,1-.39.18,2.29,2.29,0,0,1-.36.07l-.4,0a2.74,2.74,0,0,1-.5,0l-.5-.1c-.25-.07-.49-.16-.73-.25l-.36-.14-.17-.08-.15-.08c-.16-.08-.31-.17-.46-.26l-.46-.28-.24-.15c-.07-.05-.15-.09-.22-.15l-.44-.32-.36-.32-.38-.32c-.1-.11-.21-.22-.31-.34s-.22-.24-.32-.37l-.14-.2-.15-.21c-.09-.12-.17-.25-.25-.38a3.86,3.86,0,0,1-.34-.81,1.31,1.31,0,0,1-.06-.27,1.27,1.27,0,0,1,0-.28v-.14l0-.13a1.54,1.54,0,0,1,.15-.35c0-.06.07-.1.1-.15h0a1.09,1.09,0,0,0,.08.15l.1.18.14.22c0,.07.09.14.14.2a3.39,3.39,0,0,0,.33.42l.09.11,0,0,.37.42c.12.14.25.28.38.41l.39.39.2.19.21.19a5.81,5.81,0,0,0,.46.38c.16.13.33.24.5.36l.25.17h0l0,0,.09.06.12.08c.08.06.17.1.25.15l.24.14.26.13.25.13.26.13.27.12.48.2.47.17.47.16.47.13.21.05.26,0h.13l-.06.08Z"/><polygon class="cls-5" points="102.79 128.91 102.79 128.91 102.79 128.91 102.79 128.91"/><path class="cls-6" d="M111.32,108.08l-.17,0a.75.75,0,0,0-.2.1.94.94,0,0,0-.23.16,3.47,3.47,0,0,0-.41.45,2.2,2.2,0,0,0-.17.25l-.12.24a4.37,4.37,0,0,0-.17.62,2.59,2.59,0,0,0,0,.56,1.81,1.81,0,0,0,0,.23s0,0,0,0h0v0h0c0,.18.09.36.14.53a4.33,4.33,0,0,0,.21.54l.15.28.15.25a5.19,5.19,0,0,0,.36.46l.1.11c-.09.19-.19.38-.29.56-.19.35-.37.7-.57,1l-.29.49-.31.54c-.21.35-.42.7-.62,1l-.28.53-.3.51-.31.53-.32.52c-.23.39-.48.78-.73,1.17l0,0-.32.49-.35.52-.17.25-.16.24c-.12.19-.24.37-.35.56l-.41.66c-.11.16-.22.32-.32.48l-.33.49-.33.46-.34.48a8.43,8.43,0,0,1-.6.74l-.32.36-.15.16c-.06.06-.1.12-.15.18a.19.19,0,0,0,0,.27.2.2,0,0,0,.27,0,1.68,1.68,0,0,1,.18-.21l.18-.21a2.09,2.09,0,0,0,.2-.22l.19-.21.37-.45.35-.48.33-.47.33-.49c.1-.16.22-.33.33-.49l.33-.52c.15-.25.3-.49.46-.73l.32-.49.34-.51c.23-.34.45-.68.66-1,.12-.17.23-.35.34-.53l.29-.49c.11-.18.23-.35.33-.53l.3-.53c.2-.34.38-.69.58-1,.1-.17.2-.35.31-.52l.3-.51.31-.53.15-.25c0-.09.1-.18.16-.27l.54-1,.1-.2,0,0c.13.13.28.25.42.37l.44.37.45.32a5.33,5.33,0,0,0,.51.31c.25.13.5.27.76.39l-.53.66c-.24.31-.49.6-.74.9s-.53.62-.78.93-.51.64-.75,1l-.36.48-.38.49L110,120l-.36.47-.18.23a2.43,2.43,0,0,1-.2.25l-.36.48a1.77,1.77,0,0,1-.16.22l-.18.23-.37.47-.69,1c-.11.15-.23.3-.34.46l-.34.48c-.22.3-.42.62-.65.92s-.43.59-.64.89-.3.43-.44.66l-.1.15-.08.13-.1.15h0l-.07.11a.61.61,0,0,0-.11.21.19.19,0,0,0,.37.08l0,0,.08-.13a.61.61,0,0,1,.07-.1l.17-.28.09-.14,0,0c.19-.3.39-.59.6-.88s.21-.3.32-.44l.33-.46.32-.46.33-.47c.11-.16.23-.31.35-.47l.34-.47c0-.08.11-.15.17-.23l.16-.23.38-.48.17-.24.18-.22.36-.47c.11-.16.24-.31.35-.46l.39-.51c.23-.31.48-.61.71-.92l.38-.49.37-.5c.12-.16.25-.32.38-.47l.37-.47.78-.92.38-.46.38-.48.35-.44.45.2a5.14,5.14,0,0,0,.55.2l.26.09.33.1c.2,0,.39.1.59.13l.57,0h.33a1.64,1.64,0,0,0,.32,0,3.47,3.47,0,0,0,.57-.19,2.1,2.1,0,0,0,.3-.15,1.71,1.71,0,0,0,.23-.13,2.88,2.88,0,0,0,.46-.39,1.68,1.68,0,0,0,.18-.21,1.14,1.14,0,0,0,.15-.34,1.17,1.17,0,0,0,0-.2,1.1,1.1,0,0,0,0-.26.83.83,0,0,0-.07-.38,1.12,1.12,0,0,0-.24-.37c-.05,0-.09-.1-.15-.15a1.46,1.46,0,0,0-.24-.17l-.2-.12a3,3,0,0,0-.41-.17l0,0-.33-.09a1.37,1.37,0,0,0-.28,0,1.9,1.9,0,0,0-.34,0l-.3,0-.32.08-.28.1c-.11,0-.21.1-.32.15l-.27.15a3.68,3.68,0,0,0-.51.37l-.23.2-.22.21-.4.42-.4.46h0c-.17-.08-.34-.16-.5-.25l-.34-.18-.3-.18c-.14-.09-.28-.18-.41-.28l-.23-.18-.21-.18-.41-.35a2.73,2.73,0,0,1-.25-.23c.08-.15.16-.3.23-.45.18-.33.35-.67.5-1a8.64,8.64,0,0,0,.31-.85v0c.06-.2.11-.39.15-.59a2.7,2.7,0,0,0,0-.28,1.82,1.82,0,0,0,0-.33,1.8,1.8,0,0,0-.06-.32,2,2,0,0,0-.08-.26.9.9,0,0,0-.18-.28,1.58,1.58,0,0,0-.22-.23,1.16,1.16,0,0,0-.32-.2l-.21-.05h-.26Zm.19.36.13,0,.11,0a2.18,2.18,0,0,1,.28.25l.11.15a2,2,0,0,1,.11.35,2,2,0,0,1,0,.42,2,2,0,0,1-.06.35c0,.13-.06.26-.1.38l0,.11c-.11.34-.25.67-.39,1s-.34.67-.51,1l0,.08c-.1-.11-.18-.22-.27-.34a4,4,0,0,1-.32-.54,2.56,2.56,0,0,1-.11-.24c0-.09-.06-.18-.1-.27s-.1-.34-.14-.52a.08.08,0,0,0,0,0v0a1.51,1.51,0,0,1,0-.3,3.4,3.4,0,0,1,.16-.77,1,1,0,0,1,.09-.22,1.09,1.09,0,0,1,.08-.15,4.23,4.23,0,0,1,.44-.51,1.51,1.51,0,0,1,.26-.18l.12,0,.18,0Zm6,4.51a1.27,1.27,0,0,1,.28,0,1.55,1.55,0,0,1,.31.07h.05l.3.12.25.14a1.32,1.32,0,0,1,.26.22h0l0,0a1.37,1.37,0,0,1,.13.2.84.84,0,0,1,.06.14,1.28,1.28,0,0,1,0,.19,1.11,1.11,0,0,0,0,.17.57.57,0,0,1,0,.14,1,1,0,0,1-.1.21.83.83,0,0,1-.11.15l-.14.14a2.6,2.6,0,0,1-.58.39l-.37.16-.35.11-.22,0h-.21c-.23,0-.46,0-.69-.07a5.49,5.49,0,0,1-.7-.17l-.24-.09-.27-.08-.29-.11-.26-.12-.14-.06.15-.17.41-.45c.13-.14.27-.27.41-.4l.21-.19.26-.19a4.21,4.21,0,0,1,.51-.29l.17-.07.17-.07.35-.09a1.87,1.87,0,0,1,.4,0Zm.55.08h0Zm-13.27,14h0Zm.18.42h0Zm0,0Z"/><path class="cls-2" d="M82.53,8.72h-.1a.7.7,0,0,0-.37.11.84.84,0,0,0-.36.73c0,.06,0,.12,0,.19a.58.58,0,0,0,.18.23.34.34,0,0,0,.16.1l.19,0a.91.91,0,0,0,.23,0A.61.61,0,0,0,83,9.69s0-.1,0-.15a.75.75,0,0,0,0-.21.65.65,0,0,0-.2-.45A.7.7,0,0,0,82.53,8.72Zm-.2.74Z"/><path class="cls-2" d="M80.83,4.84h0a.54.54,0,0,0,.19.28.62.62,0,0,0,.79,0A.76.76,0,0,0,82,4.86a.85.85,0,0,0,.08-.24A.62.62,0,0,0,82,4.16L81.89,4,81.82,4a.32.32,0,0,0-.23-.09.45.45,0,0,0-.16,0h-.08a.38.38,0,0,0-.19,0L81,4a.8.8,0,0,0-.13.13.62.62,0,0,0-.12.19.65.65,0,0,0,0,.31l0,.14Z"/><path class="cls-2" d="M77.88,8.15a.69.69,0,0,0,.05.13.59.59,0,0,0,.32.32A.66.66,0,0,0,79,8.37a.82.82,0,0,0,.09-.8.69.69,0,0,0-.64-.4h0a.68.68,0,0,0-.59.46.61.61,0,0,0,0,.27.63.63,0,0,0,0,.19A.14.14,0,0,1,77.88,8.15Z"/><path class="cls-2" d="M84.4,6.75h0a.67.67,0,0,0,.39.24.57.57,0,0,0,.4-.09.75.75,0,0,0,.23-.27.53.53,0,0,0,0-.18,1.21,1.21,0,0,0,0-.19.56.56,0,0,0-.17-.34A.4.4,0,0,0,85,5.73l-.25,0h-.06a.48.48,0,0,0-.35.21.94.94,0,0,0-.09.12.59.59,0,0,0,0,.47A.56.56,0,0,0,84.4,6.75Zm.6-.36Z"/><path class="cls-2" d="M82.51,1.37a.48.48,0,0,0,.29,0A.54.54,0,0,0,83,1.25.75.75,0,0,0,83.24,1a.65.65,0,0,0,0-.51.59.59,0,0,0-.23-.31h0A.33.33,0,0,0,82.89,0a.33.33,0,0,0-.17,0,.32.32,0,0,0-.14,0h0a.64.64,0,0,0-.24.1.58.58,0,0,0-.22.31A1,1,0,0,0,82,.7a.6.6,0,0,0,.47.67Z"/><path class="cls-2" d="M76.19,4l0,0a.51.51,0,0,0,.16.09.75.75,0,0,0,.26,0A.5.5,0,0,0,77,4a.59.59,0,0,0,.16-.2,1.46,1.46,0,0,0,.07-.19.63.63,0,0,0,0-.36A.55.55,0,0,0,77,3a.58.58,0,0,0-.4-.14h0A.65.65,0,0,0,76.2,3a.71.71,0,0,0-.23.29.58.58,0,0,0,0,.43A.48.48,0,0,0,76.19,4Z"/><path class="cls-2" d="M74.06,9.47a.63.63,0,0,0,.16.26.56.56,0,0,0,.7.06.79.79,0,0,0,.3-.47.64.64,0,0,0-.09-.52.67.67,0,0,0-.5-.23h-.12a.88.88,0,0,0-.28.12.65.65,0,0,0-.22.36.6.6,0,0,0,0,.35A.14.14,0,0,0,74.06,9.47Z"/><path class="cls-2" d="M79,11.33a.41.41,0,0,0-.06.11.6.6,0,0,0,0,.35.68.68,0,0,0,.19.34.58.58,0,0,0,.32.14h.15a.46.46,0,0,0,.23-.09.58.58,0,0,0,.23-.26.71.71,0,0,0,.07-.45.67.67,0,0,0-.19-.35.46.46,0,0,0-.21-.13.65.65,0,0,0-.18,0h0a.5.5,0,0,0-.23.09.49.49,0,0,0-.13.12A.47.47,0,0,0,79,11.33Z"/><path class="cls-2" d="M85.3,10.4a.6.6,0,0,0-.54.34.82.82,0,0,0-.12.34.6.6,0,0,0,.34.66.57.57,0,0,0,.7-.25,1,1,0,0,0,.1-.17.59.59,0,0,0,.07-.26.49.49,0,0,0,0-.17.46.46,0,0,0-.09-.23.52.52,0,0,0-.36-.25Z"/><path class="cls-2" d="M86.18,3.58a.41.41,0,0,0,.11.12l.06.06a.42.42,0,0,0,.16.09.34.34,0,0,0,.17,0,.5.5,0,0,0,.39-.1.81.81,0,0,0,.16-.16.61.61,0,0,0,.13-.41A.59.59,0,0,0,87,2.77a.41.41,0,0,0-.28-.11.37.37,0,0,0-.18,0,1,1,0,0,0-.22.09.59.59,0,0,0-.23.38.48.48,0,0,0,0,.17A.58.58,0,0,0,86.18,3.58Z"/><path class="cls-2" d="M32.51,122.32a.75.75,0,0,0,.34-.27,1.62,1.62,0,0,0,.1-.18.78.78,0,0,0,0-.34.55.55,0,0,0-.11-.3l0-.06a.36.36,0,0,0-.13-.19.41.41,0,0,0-.26-.09h-.22A.58.58,0,0,0,32,121a.77.77,0,0,0-.34.53.74.74,0,0,0,.13.61A.62.62,0,0,0,32.51,122.32Z"/><path class="cls-2" d="M27,124.06a.64.64,0,0,0,.64.07.74.74,0,0,0,.37-.39.85.85,0,0,0,0-.32.58.58,0,0,0-.13-.3.88.88,0,0,0-.24-.19l-.05,0a.38.38,0,0,0-.25-.09.4.4,0,0,0-.23.08.71.71,0,0,0-.14.1.72.72,0,0,0-.21.25.62.62,0,0,0-.08.33A.64.64,0,0,0,27,124.06Z"/><path class="cls-2" d="M34.4,126.24a.8.8,0,0,0,.44-.26.56.56,0,0,0,.12-.2.53.53,0,0,0,0-.22.51.51,0,0,0-.1-.29l-.06-.08a.35.35,0,0,0-.18-.16,1.07,1.07,0,0,0-.39-.1h0a.6.6,0,0,0-.5.39,1,1,0,0,0-.06.33.28.28,0,0,0,0,.09.65.65,0,0,0,0,.13l.06.11a.64.64,0,0,0,.27.22A.7.7,0,0,0,34.4,126.24Zm-.14-.51Z"/><path class="cls-2" d="M31.05,125.24a.6.6,0,0,0-.34-.11.45.45,0,0,0-.27.08l-.06,0a.7.7,0,0,0-.35.37.75.75,0,0,0,0,.3.52.52,0,0,0,.18.33.71.71,0,0,0,.41.19h.14l.15-.05a.6.6,0,0,0,.25-.19.86.86,0,0,0,.15-.52A.66.66,0,0,0,31.05,125.24Z"/><path class="cls-2" d="M27.16,128.28a.83.83,0,0,0,.14-.3.55.55,0,0,0-.2-.56.66.66,0,0,0-.4-.15h-.08a.42.42,0,0,0-.21.08.41.41,0,0,0-.12.14l-.06,0-.05.07a1,1,0,0,0-.08.14.45.45,0,0,0,0,.16.58.58,0,0,0,0,.26.72.72,0,0,0,.18.24.55.55,0,0,0,.32.12.43.43,0,0,0,.16,0,.48.48,0,0,0,.23-.1A.46.46,0,0,0,27.16,128.28Z"/><path class="cls-2" d="M32.77,129.46l-.06,0a1.57,1.57,0,0,0-.23-.09H32.4a.52.52,0,0,0-.29.11.53.53,0,0,0-.19.23.62.62,0,0,0-.07.23.74.74,0,0,0,0,.21.76.76,0,0,0,.11.32.51.51,0,0,0,.22.19.5.5,0,0,0,.32.06.59.59,0,0,0,.28-.1.82.82,0,0,0,.23-.26l0-.06a.75.75,0,0,0,.07-.36.54.54,0,0,0-.11-.27A.92.92,0,0,0,32.77,129.46Z"/><path class="cls-2" d="M28.31,118.57a.43.43,0,0,0,0,0,.38.38,0,0,0-.21-.22l-.1,0h-.06a.4.4,0,0,0-.15,0l-.15,0a.56.56,0,0,0-.43.44.71.71,0,0,0,.11.53.57.57,0,0,0,.55.26.66.66,0,0,0,.53-.55.51.51,0,0,0-.07-.44Z"/><path class="cls-2" d="M22.19,124.38a.58.58,0,0,0,.32,0,.66.66,0,0,0,.19-.09.78.78,0,0,0,.2-.24.44.44,0,0,0,.06-.23.75.75,0,0,0,0-.15.42.42,0,0,0,0-.15h0a.4.4,0,0,0-.07-.28.37.37,0,0,0-.26-.16H22.4a1,1,0,0,0-.23,0,.64.64,0,0,0-.27.19.61.61,0,0,0-.1.14.69.69,0,0,0,0,.1,1,1,0,0,0,0,.14,1.08,1.08,0,0,0,0,.18.54.54,0,0,0,.13.32A.55.55,0,0,0,22.19,124.38Z"/><path class="cls-2" d="M27.92,131.38a.58.58,0,0,0-.23-.18l-.05,0a.58.58,0,0,0-.18,0l-.14,0-.23.12-.15.14a.64.64,0,0,0-.14.3.57.57,0,0,0,0,.29.69.69,0,0,0,.1.19.72.72,0,0,0,.24.18.62.62,0,0,0,.33,0,.64.64,0,0,0,.27-.11.71.71,0,0,0,.19-.23.64.64,0,0,0,.08-.45A.6.6,0,0,0,27.92,131.38Zm-.57.26Zm.18.05Zm0,.05Z"/><path class="cls-2" d="M22.88,128.78h0a.36.36,0,0,0-.25-.2l-.15-.06H22.4a.44.44,0,0,0-.26.08l-.08,0a.45.45,0,0,0-.2.23.58.58,0,0,0,.06.58.6.6,0,0,0,.65.2.64.64,0,0,0,.36-.36.45.45,0,0,0,0-.3A.49.49,0,0,0,22.88,128.78Z"/><path class="cls-2" d="M34.94,133l-.12-.08a.43.43,0,0,0-.22,0h-.05a.37.37,0,0,0-.27.15.37.37,0,0,0-.09.2.51.51,0,0,0-.17.32.46.46,0,0,0,.27.48.53.53,0,0,0,.46,0,.59.59,0,0,0,.2-.15,1,1,0,0,0,.11-.17.64.64,0,0,0,.07-.33.56.56,0,0,0-.1-.28A.43.43,0,0,0,34.94,133Z"/><path class="cls-2" d="M141,94a.43.43,0,0,0,.05-.16.19.19,0,0,0,0-.08.67.67,0,0,0,0-.28.5.5,0,0,0-.16-.22l-.1-.07,0,0a.58.58,0,0,0-.15-.11l-.15,0h-.07l-.16,0a.69.69,0,0,0-.39.49,1.31,1.31,0,0,0,0,.28.88.88,0,0,0,.13.3.45.45,0,0,0,.22.19l.16.06a.24.24,0,0,0,.12,0h.05a.52.52,0,0,0,.29-.11A.67.67,0,0,0,141,94Zm-.61-.42Z"/><path class="cls-2" d="M137.75,97.56a.38.38,0,0,0-.26-.16,1.09,1.09,0,0,0-.25,0h-.11a.6.6,0,0,0-.22.09l-.12.11a.77.77,0,0,0-.14.32,1.21,1.21,0,0,0,0,.19,1,1,0,0,0,0,.17.65.65,0,0,0,.13.23.6.6,0,0,0,.66.21.67.67,0,0,0,.38-.36.64.64,0,0,0,0-.49A.35.35,0,0,0,137.75,97.56Z"/><path class="cls-2" d="M143.22,99.12A.6.6,0,0,0,143,99h-.08a.69.69,0,0,0-.2,0,.27.27,0,0,0-.1.06h-.05a.69.69,0,0,0-.19.1.51.51,0,0,0-.19.32.55.55,0,0,0,.19.5.82.82,0,0,0,.37.19.54.54,0,0,0,.28,0,.72.72,0,0,0,.19-.11l.09-.09a1.1,1.1,0,0,0,.09-.14.6.6,0,0,0,.07-.32A.51.51,0,0,0,143.22,99.12Z"/><path class="cls-2" d="M145.22,94.62H145a.6.6,0,0,0-.22,0,.53.53,0,0,0-.23.16.61.61,0,0,0-.11.29.63.63,0,0,0,.05.3.55.55,0,0,0,.17.23.49.49,0,0,0,.18.11.62.62,0,0,0,.38,0,.63.63,0,0,0,.39-.62.5.5,0,0,0-.15-.32A.42.42,0,0,0,145.22,94.62Z"/><path class="cls-2" d="M141.24,96.55h-.09a.53.53,0,0,0-.49.29.54.54,0,0,0,0,.55.46.46,0,0,0,.2.16.08.08,0,0,1,0,0,.42.42,0,0,0,.42.06.39.39,0,0,0,.11-.06.7.7,0,0,0,.15-.19.2.2,0,0,0,0-.08s0-.09,0-.14a.54.54,0,0,0,0-.25A.56.56,0,0,0,141.24,96.55Z"/><path class="cls-2" d="M140,101.61l-.25-.16a1,1,0,0,0-.2-.08h-.13a.85.85,0,0,0-.23,0,.57.57,0,0,0-.3.27.68.68,0,0,0-.07.4.77.77,0,0,0,.16.41.6.6,0,0,0,.7.21.69.69,0,0,0,.37-.51h0a.4.4,0,0,0,.09-.3A.43.43,0,0,0,140,101.61Z"/><path class="cls-2" d="M147.92,99.72a.6.6,0,0,0-.11-.26.59.59,0,0,0-.24-.2.5.5,0,0,0-.21-.05h-.07a.55.55,0,0,0-.18.06l-.07,0a.49.49,0,0,0-.27.24.66.66,0,0,0,.48.9.58.58,0,0,0,.52-.22A.65.65,0,0,0,147.92,99.72Zm-.77.18Z"/><path class="cls-2" d="M144.85,102.6a.46.46,0,0,0-.23,0h0a.42.42,0,0,0-.24.09l-.09.1-.07,0a.52.52,0,0,0-.11.1.6.6,0,0,0-.1.23v.15a.56.56,0,0,0,.09.21.57.57,0,0,0,.25.21.58.58,0,0,0,.41,0,.66.66,0,0,0,.23-.18.6.6,0,0,0,.17-.46.66.66,0,0,0-.12-.3A.49.49,0,0,0,144.85,102.6Z"/><path class="cls-2" d="M144.79,91.09a.62.62,0,0,0,.22-.17.81.81,0,0,0,.13-.3.3.3,0,0,0,0-.16.37.37,0,0,0,0-.15.55.55,0,0,0-.18-.24h0s0,0,0,0a.4.4,0,0,0-.25-.09h-.08a.37.37,0,0,0-.18,0,.46.46,0,0,0-.28.44s0,0,0,.06a.52.52,0,0,0,.17.51A.51.51,0,0,0,144.79,91.09Z"/><path class="cls-2" d="M140.42,90.42a.46.46,0,0,0,.32-.39.48.48,0,0,0-.09-.35l-.05-.05a.24.24,0,0,0-.08-.09.41.41,0,0,0-.26-.09h0l-.1,0a.42.42,0,0,0-.12,0,.62.62,0,0,0-.22.17.47.47,0,0,0-.11.25.52.52,0,0,0,.19.47A.48.48,0,0,0,140.42,90.42Z"/><path class="cls-2" d="M134.57,99.45h-.17a.7.7,0,0,0-.19.06.55.55,0,0,0-.23.17.61.61,0,0,0-.15.44.53.53,0,0,0,0,.18.59.59,0,0,0,.27.29.51.51,0,0,0,.6-.16.6.6,0,0,0,.13-.28.17.17,0,0,0,0-.07.41.41,0,0,0,.08-.29A.39.39,0,0,0,134.57,99.45Z"/><text class="cls-7" transform="translate(53.65 81.55)">TIP</text></g></g></svg>