<svg xmlns="http://www.w3.org/2000/svg" xmlns:xlink="http://www.w3.org/1999/xlink" viewBox="0 0 166.94 151.5"><defs><style>.cls-1{opacity:0.42;fill:url(#linear-gradient);}.cls-2,.cls-6{fill:#b7dec1;}.cls-2{opacity:0.43;}.cls-3{fill:#92cea4;}.cls-4{fill:#70ba84;}.cls-5{fill:#4bba7b;}.cls-18,.cls-7{fill:#174c30;}.cls-8{fill:#76c587;}.cls-11,.cls-17,.cls-9{fill:#218c5c;}.cls-10{fill:#77c58e;}.cls-11{opacity:0.25;}.cls-12{fill:#f17e59;}.cls-13{fill:#093f26;}.cls-14,.cls-16{fill:#ea4230;}.cls-15{fill:#69b27e;}.cls-16{opacity:0.67;}.cls-17{opacity:0.29;}.cls-18{opacity:0.48;}.cls-19{fill:#03aa5a;}.cls-20{fill:#115136;}</style><linearGradient id="linear-gradient" x1="83.47" y1="136.73" x2="83.47" y2="-26.31" gradientUnits="userSpaceOnUse"><stop offset="0" stop-color="#fff"/><stop offset="0.14" stop-color="#f8fcf9"/><stop offset="0.33" stop-color="#e6f4ea"/><stop offset="0.56" stop-color="#c7e7d0"/><stop offset="0.81" stop-color="#9cd5ad"/><stop offset="1" stop-color="#77c58e"/></linearGradient></defs><g id="Layer_2" data-name="Layer 2"><g id="OBJECTS"><path class="cls-1" d="M37.88,148h91.18a76.76,76.76,0,0,0,33.61-63.26c0-42.74-35.46-83.53-79.2-83.53S4.27,42,4.27,84.71A76.76,76.76,0,0,0,37.88,148Z"/><path class="cls-2" d="M166.94,148.21c0-1.82-37.37-3.29-83.47-3.29S0,146.39,0,148.21s37.37,3.29,83.47,3.29S166.94,150,166.94,148.21Z"/><rect class="cls-3" x="52.44" y="108.62" width="3.8" height="36.31"/><rect class="cls-4" x="52.44" y="108.62" width="3.8" height="5.1"/><path class="cls-3" d="M39.16,144.95H70.7A2.35,2.35,0,0,1,73,147.3v1a0,0,0,0,1,0,0H36.81a0,0,0,0,1,0,0v-1A2.35,2.35,0,0,1,39.16,144.95Z"/><path class="cls-3" d="M45.33,108.66H71.65c-9.58-3.44-5.87-35.84-4.1-48.12a4.11,4.11,0,0,0-4.07-4.68H46a7.18,7.18,0,0,0-7.11,6.19c-1.54,11.16-4,34.3.83,43.25A6.43,6.43,0,0,0,45.33,108.66Z"/><circle class="cls-5" cx="30.76" cy="18.45" r="18.45" transform="translate(-3.44 7.63) rotate(-13.39)"/><circle class="cls-6" cx="30.76" cy="18.45" r="15.06" transform="translate(-3.43 7.61) rotate(-13.37)"/><path class="cls-5" d="M26.48,23.58a.94.94,0,0,1-.66-1.6l3.93-3.92V7.74a.94.94,0,1,1,1.87,0V18.45a1,1,0,0,1-.27.66l-4.2,4.2A1,1,0,0,1,26.48,23.58Z"/><path class="cls-7" d="M32.72,18.17a2.16,2.16,0,1,0-2.15,2.16A2.15,2.15,0,0,0,32.72,18.17Z"/><path class="cls-8" d="M135.79,35.61H104.31a2.93,2.93,0,0,0-2.92,2.93V52.72a2.92,2.92,0,0,0,2.92,2.92h2.2v3.43a.55.55,0,0,0,.92.41l4.25-3.84h24.11a2.92,2.92,0,0,0,2.92-2.92V38.54A2.92,2.92,0,0,0,135.79,35.61Z"/><path class="cls-9" d="M113.69,45.84a1.29,1.29,0,1,1-1.29-1.28A1.29,1.29,0,0,1,113.69,45.84Z"/><path class="cls-9" d="M121.6,45.84a1.29,1.29,0,1,1-1.28-1.28A1.28,1.28,0,0,1,121.6,45.84Z"/><circle class="cls-9" cx="127.71" cy="45.84" r="1.29"/><path class="cls-10" d="M32.72,73.72c0-3.47-2.46-7-5.48-7s-5.48,3.48-5.48,7S24.22,80,27.24,80,32.72,77.19,32.72,73.72Z"/><path class="cls-11" d="M27.24,66.77a4.09,4.09,0,0,0-1.4.26c2.34.87,4.07,3.78,4.07,6.69a6.21,6.21,0,0,1-4.07,6.07,4.94,4.94,0,0,0,1.4.21c3,0,5.48-2.81,5.48-6.28S30.26,66.77,27.24,66.77Z"/><path class="cls-6" d="M21,77.83l1,8.88a2.19,2.19,0,0,0,2.18,2h5.66a2.19,2.19,0,0,0,2.18-2l1-8.88a.81.81,0,0,0-.81-.91H21.81A.82.82,0,0,0,21,77.83Z"/><path class="cls-3" d="M21.81,78.25H32.17a.82.82,0,0,1,.72.45l.09-.87a.81.81,0,0,0-.81-.91H21.81a.82.82,0,0,0-.81.91l.1.87A.79.79,0,0,1,21.81,78.25Z"/><path class="cls-3" d="M32.17,76.92H28.58a.82.82,0,0,1,.81.91l-1,8.88a2.19,2.19,0,0,1-2.18,2h3.59a2.19,2.19,0,0,0,2.18-2l1-8.88A.81.81,0,0,0,32.17,76.92Z"/><polygon class="cls-12" points="77.55 139.57 77.17 142.14 79.13 144.64 84.08 142.22 84.62 139.87 78.45 138.94 77.55 139.57"/><path class="cls-7" d="M81.55,147.84l.51-.64a.24.24,0,0,1,.36,0l.52.6a1.07,1.07,0,0,0,.83.38l11.51-.2a.61.61,0,0,0,0-.87c-1.68-1.7-10.77-4.65-11.22-4.89s-3.23,1.91-6.91-.08a40,40,0,0,0-.68,4.75,1.33,1.33,0,0,0,1.33,1.39l2.92-.05A1.09,1.09,0,0,0,81.55,147.84Z"/><path class="cls-7" d="M56.42,96.18s-4.78,5.29,4,11c6.14,4,11,2.8,14.84,5.24a3.25,3.25,0,0,1,1.65,2.5l.2,24.7.46.23a8.49,8.49,0,0,0,7.38.08h0l3.49-28.19c.13-1.94-.92-3.58-2.13-5.11-6.69-8.51-18.54-11.4-21.54-11.89C60.84,94.13,56.42,96.18,56.42,96.18Z"/><polygon class="cls-12" points="58.51 139.57 58.1 142.13 60.02 144.66 65.01 142.3 65.58 139.96 59.42 138.94 58.51 139.57"/><path class="cls-7" d="M62.39,147.89l.52-.63a.25.25,0,0,1,.37,0l.51.61a1.06,1.06,0,0,0,.83.39l11.51,0a.62.62,0,0,0,0-.87c-1.66-1.72-10.7-4.79-11.15-5s-3.26,1.87-6.91-.17a40.88,40.88,0,0,0-.75,4.74,1.32,1.32,0,0,0,1.31,1.41h2.93A1,1,0,0,0,62.39,147.89Z"/><path class="cls-7" d="M41.89,91.58s-5.8,6.45,2.58,13.74c5.87,5.12,11.15,2.93,14.85,6.05a3.46,3.46,0,0,1,1.38,2.86l-2.65,25.13.2.13A8,8,0,0,0,66,140h0l6.54-26.48c.41-2-.45-3.9-1.5-5.68C65.21,98,56.08,92,53,91.09,49,89.86,41.89,91.58,41.89,91.58Z"/><path class="cls-13" d="M73.84,111.74a12.62,12.62,0,0,0-1.35-.46A11.17,11.17,0,0,0,71,107.86a45.5,45.5,0,0,0-9.95-11.67c2.1-.36,3.17-.81,3.75-1.4A40.29,40.29,0,0,1,71.1,96.5C74,101.26,73.94,109,73.84,111.74Z"/><path class="cls-6" d="M57.48,57.41s-8.35-1.11-11.82,5.4-8.66,32-4.13,32.8c2,.34,7.36,1.69,13.29,1.26,8.16-.6,9.93-1.35,10.52-2.9l5.19-23.78a10.07,10.07,0,0,0-3.94-8.4A28.39,28.39,0,0,0,57.48,57.41Z"/><path class="cls-3" d="M70.5,68.1s.11,14.32,4.61,15.19,16.49.59,16.49.59v4.56H65.89Z"/><path class="cls-14" d="M64.27,61.6l1-5.06-6.57-5-1.26,6S59.53,66.62,64.27,61.6Z"/><path class="cls-7" d="M72.65,46.88s-3.43,1.68-8.47-1.39a11.91,11.91,0,0,1-4.54,4s-1.75-2.94-2.76-.73a4.63,4.63,0,0,0-.47,1.79c-3.16-4.08-.93-9.46,2-12.36C61.22,35.41,67.27,36.51,71,38c4,1.62,4.75-1.19,4.75-1.19C80.85,44,72.65,46.88,72.65,46.88Z"/><path class="cls-12" d="M59.64,49.46s-1.76-2.94-2.76-.74c-1.23,2.68.15,4.35,1.81,4.35,0,0,1.32,7,7.7,6.46s7.31-10.74,6.26-12.65c0,0-3.43,1.68-8.47-1.39A11.8,11.8,0,0,1,59.64,49.46Z"/><path class="cls-6" d="M115,65.72H88.33a2.76,2.76,0,0,0-2.71,2.21L82.07,85.32h32.3L117.69,69A2.76,2.76,0,0,0,115,65.72Z"/><rect class="cls-15" x="68.9" y="85.32" width="46.68" height="3.06" rx="1.4"/><path class="cls-3" d="M114.27,85.32H81.72A1.32,1.32,0,0,1,83,86.64v.42a1.32,1.32,0,0,1-1.32,1.32h32.55a1.32,1.32,0,0,0,1.31-1.32v-.42A1.32,1.32,0,0,0,114.27,85.32Z"/><path class="cls-6" d="M71.64,84.39C66.45,83.78,51.89,82.3,49.4,82c-3.15-.33,3.69-13,4.45-17.36s-2.55-4.5-2.55-4.5a5.3,5.3,0,0,0-5.64,2.63c-3.56,5.38-7.52,21.11-5.43,25a1.4,1.4,0,0,0,1.24.74H71.64Z"/><path class="cls-3" d="M71.64,84.39S52.9,83.1,48.86,82.56c-3.14-.43,3.4-13.43,4.15-17.77s-2.6-4.16-2.6-4.16a8.19,8.19,0,0,0-2.93.28,5.37,5.37,0,0,1,3.82-.73s3.31.16,2.55,4.5-6.62,16.76-4.64,17.25C51.64,82.53,66.45,83.78,71.64,84.39Z"/><path class="cls-12" d="M71.64,88.6h7a.66.66,0,0,0,.55-1c-.65-1-1.68-2.42-2.44-2.66a32.61,32.61,0,0,0-5.1.11Z"/><path class="cls-16" d="M72.65,46.88a5.73,5.73,0,0,1-1.58.4c-.08.47-.24,1.38-.32,2.24-.11,1.23.5,5,.12,5.07a10.82,10.82,0,0,1-1.17,0s-.59,5.5-6.09,4.62l-.14,0a6.85,6.85,0,0,0,2.92.37C72.78,59,73.7,48.79,72.65,46.88Z"/><path class="cls-10" d="M152.79,126.87s8.79-4.36,6.4-11-3.87-6.88.7-10.61,11.17-13.06,2.81-13.77-7.94,10.4-14.89,12S137.06,134.1,152.79,126.87Z"/><path class="cls-11" d="M145.88,127.52c1.69.79,4,.71,6.91-.65,0,0,8.79-4.36,6.4-11s-3.87-6.88.7-10.61,11.17-13.06,2.81-13.77a8,8,0,0,0-2.23.12c2.35,1,4.69,2.92,1.67,6.51-5,6-7.73,8.08-7.15,11.94S155.24,122.43,145.88,127.52Z"/><path class="cls-10" d="M137.9,126.66s-7.73-.28-7.3-5.83.63-5.77-4.22-7.52c-8.57-3.09-1.78-19.55,5.2-9.2,4.85,7.18,6.95,5.57,10.12,6.13S151.74,129.12,137.9,126.66Z"/><path class="cls-17" d="M141.7,110.24c-3.17-.56-5.27,1.05-10.12-6.13-3.66-5.42-7.25-3.49-8.63,0,2.06-.63,5.18-1,5.57,2.33.51,4.35,10.67,11.47,10.46,20.34l.39,0c1.48-3.9,3.43-9,5.1-13.26C143.58,111.72,142.51,110.38,141.7,110.24Z"/><path class="cls-9" d="M139.69,126.41s-9.59-9.38-6.32-11,9.7,3.59,6.11-2-7.75-14.28-2.8-12.91,5.31,2.87,4.7-3.63c-.79-8.41,3.9-12.75,8.32-10s-3.79,21.28-.73,19.28,5.58-3.69,6.21-1.26-8.75,11.94-5.27,10.32c4.32-2,5,1.58,3.59,3.8S146.44,134.42,139.69,126.41Z"/><path class="cls-18" d="M153.5,119c1.37-2.22.73-5.8-3.59-3.8-3.48,1.62,5.9-7.9,5.27-10.32s-3.16-.74-6.21,1.26,5.16-16.54.73-19.28a4.51,4.51,0,0,0-5.76.48c2.29.56,4.13,2.41,2.86,7.38-2.7,10.54-4.34,19.33.58,16.75,4.63-2.43-5.38,8.76-5.48,16.82C147.65,131.62,152.28,121,153.5,119Z"/><path class="cls-6" d="M133.05,127.51l1.86,16.8A4.15,4.15,0,0,0,139,148h10.71a4.15,4.15,0,0,0,4.12-3.69l1.86-16.8a1.55,1.55,0,0,0-1.54-1.71H134.59A1.55,1.55,0,0,0,133.05,127.51Z"/><path class="cls-3" d="M154.18,125.8h-6.79a1.54,1.54,0,0,1,1.53,1.71l-1.85,16.8A4.15,4.15,0,0,1,143,148h6.79a4.15,4.15,0,0,0,4.12-3.69l1.86-16.8A1.55,1.55,0,0,0,154.18,125.8Z"/><rect class="cls-5" x="16.18" y="88.55" width="119.51" height="5.42" rx="2.49"/><path class="cls-19" d="M133.35,88.55H18.51a2.33,2.33,0,0,0-2.33,2.33v.76a2.4,2.4,0,0,0,.12.71,2.33,2.33,0,0,1,2.21-1.63H133.35a2.35,2.35,0,0,1,2.22,1.63,2.4,2.4,0,0,0,.12-.71v-.76A2.33,2.33,0,0,0,133.35,88.55Z"/><polygon class="cls-9" points="54.81 148.09 50.97 148.09 24.27 94 28.11 94 54.81 148.09"/><polygon class="cls-9" points="12.55 148.09 16.39 148.09 43.09 94 39.26 94 12.55 148.09"/><polygon class="cls-9" points="137.48 148.09 133.64 148.09 106.94 94 110.78 94 137.48 148.09"/><polygon class="cls-9" points="95.22 148.09 99.06 148.09 125.77 94 121.93 94 95.22 148.09"/><polygon class="cls-20" points="29.17 96.14 28.11 94 24.27 94 25.33 96.14 29.17 96.14"/><polygon class="cls-20" points="42.04 96.14 43.09 94 39.26 94 38.2 96.14 42.04 96.14"/><polygon class="cls-20" points="111.84 96.14 110.78 94 106.94 94 108 96.14 111.84 96.14"/><polygon class="cls-20" points="124.71 96.14 125.77 94 121.93 94 120.87 96.14 124.71 96.14"/></g></g></svg>