<svg xmlns="http://www.w3.org/2000/svg" xmlns:xlink="http://www.w3.org/1999/xlink" viewBox="0 0 371.64 223.78"><defs><style>.cls-1{fill:none;}.cls-2{fill:#d0e6b7;}.cls-3{fill:#206131;}.cls-4{fill:#d3489a;}.cls-5{fill:#68bd4a;}.cls-6{clip-path:url(#clip-path);}.cls-7{fill:#78c14e;}.cls-8{fill:#259b47;}.cls-9{fill:#d85aa1;}.cls-10{fill:#b0d57d;}.cls-11{fill:#96c945;}.cls-12{fill:#7651a1;}.cls-13{fill:#a98abf;}.cls-14{fill:#f0d4e6;}.cls-15{fill:#9ccc5e;}.cls-16{fill:#fff;}.cls-17{fill:#d4c791;}.cls-18{fill:#8a65ab;}.cls-19{fill:#b5a769;}</style><clipPath id="clip-path"><path id="SVGID" class="cls-1" d="M136.26,217.44C41.6,211.93-34.32,111.78,16.05,53.65,55.12,8.58,107.21,74.19,155.8,41.13c74.74-50.86,195.84-60.1,211.87,4S330.6,209.43,291,215.44,136.26,217.44,136.26,217.44Z"/></clipPath></defs><g id="Layer_2" data-name="Layer 2"><g id="OBJECTS"><path class="cls-2" d="M136.26,217.44C41.6,211.93-34.32,111.78,16.05,53.65,55.12,8.58,107.21,74.19,155.8,41.13c74.74-50.86,195.84-60.1,211.87,4S330.6,209.43,291,215.44,136.26,217.44,136.26,217.44Z"/><path class="cls-3" d="M148.54,81.7c1,24,.75,37.07-8,47.09s-33.31,7.51-33.31,7.51-2.42,35.39-36.73,36.9-39.23-44.08-12.35-55.77c25.59-11.12,33.72-14.36,42.57-41.9C108.79,50.36,134,55.16,140,65.68S148.54,81.7,148.54,81.7Z"/><path class="cls-4" d="M137.27,204.42s16.19,3.17,17,3,18.53-8,20.36-6.84,12.53,5.67,14.86,6.68-1.33,1.33-3.17,1.33-12.35-4.34-13.52-3.51,9.18,2.51,9.18,3.18-27.71,7-29.38,7-14.53-1.17-14.53-1.17Z"/><path class="cls-5" d="M123.83,116c8.72,1.71,13.85,10.94,15.52,19S123.83,116,123.83,116Z"/><g class="cls-6"><path class="cls-7" d="M109.22,109.75S92.44,121,83.42,126.53s3.26,64.86,6.26,86.9,55.1,2,55.1,2-3.51-18.54,1-48.34c3.23-21.35-8.6-34.73-15.36-44C113.35,99.72,109.22,109.75,109.22,109.75Z"/><path class="cls-5" d="M92.69,126.78c19.28,23.54,25.8,27.94,21,43.83-3.75,12.52-5,17-5.76,21.29s35.82-2.76,35.82-2.76l-.25,13.77s-28.8,13.78-42.83,16.53-22.79-.5-22.79-.5Z"/></g><path class="cls-8" d="M334.16,221.07H106a3,3,0,0,1,0-6H334.16a3,3,0,0,1,0,6Z"/><path class="cls-9" d="M115.39,86l-8.68,25.72s9.52,25.79,17.53,20c2.74-2-1-17.53-1-17.53l5.84-20.87Z"/><path class="cls-9" d="M87.68,125.78c-12,1.33-13,17.53-18.53,44.58s-3.86,44.9-1.26,48.33c6.27,8.27,76.64-20.53,85.4-20.28,6.05.17,1-10,1-10L87.18,198.66s9.51-31.31,9.51-47.34S92.19,125.28,87.68,125.78Z"/><path class="cls-9" d="M150,188.89c7-1.75,17.28-5.76,19.28-4s10.27,14.28,13,17.78-1.25.76-4.25-2a39.17,39.17,0,0,0-5.51-4.26,47.12,47.12,0,0,1-7.27,5.51c-3.5,2-4.75-2-10.76-3s-21,4.25-21,4.25Z"/><path class="cls-7" d="M89,123.78c-7.34.33-13,6.51-15,16s-7.85,39.74-7.85,39.74-1.17.84,11,3a58.66,58.66,0,0,0,22.21-.34s2.5-17.19,1.83-29.05-3.34-23-7.68-26.88S89,123.78,89,123.78Z"/><path class="cls-4" d="M123.24,114.26l5.84-20.87L115.39,86l-2.09,6.2c-.45,20.73,4.86,27.67,8.44,30.2,1.12.79,2.08.18,2.88-1.11C124,117.57,123.24,114.26,123.24,114.26Z"/><path class="cls-9" d="M151,88.46c0,11.17-1.33,24.87-11,24.55-15-.5-24.49-12.18-24.49-23.35s7.85-20.23,17.54-20.23S151,77.3,151,88.46Z"/><path class="cls-10" d="M263.18,215.1H206.85l23.17-51a4.17,4.17,0,0,1,3.79-2.44h51.12a1.63,1.63,0,0,1,1.48,2.3Z"/><path class="cls-10" d="M263.06,215.1H159.14a6.56,6.56,0,0,1,6.55-6.56h97.37Z"/><path class="cls-11" d="M284.93,161.68H239.88a4.17,4.17,0,0,0-3.79,2.44l-23.17,51h50.26L286.41,164A1.63,1.63,0,0,0,284.93,161.68Z"/><path class="cls-3" d="M134.51,65.55c10.64-.75,17,9,18.78,17.49,1.33,6.14.67,7.34.67,7.34s-1.17,1.67-9.52,2.18-9.34.33-9.34.33l-.51-9.68-2.5,9.35s-1.34,1.83-6.51-.67S118.07,81,118.07,81s-1.17-5.51,2.83-9.19S134.51,65.55,134.51,65.55Z"/><path class="cls-12" d="M126.59,90.67c-1,6.76-6.41,11.55-12,10.7s-9.37-7-8.35-13.78,6.41-11.54,12-10.69S127.61,83.92,126.59,90.67Z"/><path class="cls-13" d="M122.52,90.49c-.94,6.26-5.37,10.78-9.88,10.09s-7.42-6.3-6.47-12.56,5.37-10.77,9.89-10.09S123.47,84.24,122.52,90.49Z"/><path class="cls-14" d="M115.62,89.1c-.52,3.43-2.39,6-4.18,5.73s-2.82-3.28-2.3-6.71,2.39-6,4.18-5.74S116.14,85.66,115.62,89.1Z"/><path class="cls-12" d="M115.35,77.07c4.89-18.16,21.74-15.51,26-13a8.18,8.18,0,0,1,4.09,5.13s-4.64-3.75-12.53-2.38c-7.48,1.31-11.93,5.72-12.56,10.61C120,79.94,115.35,77.07,115.35,77.07Z"/><path class="cls-3" d="M40.43,135.68h0a.38.38,0,0,1-.34-.42A23.06,23.06,0,0,1,46.51,122c4.21-4.5,10.21-8,17.35-10.25,15.89-4.92,29.76-11.17,38.48-38a.37.37,0,0,1,.48-.25.38.38,0,0,1,.25.49c-4,12.32-9.45,21.29-16.66,27.43-6.36,5.41-13.53,8.33-22.32,11a39,39,0,0,0-17,10,22.4,22.4,0,0,0-6.26,12.83A.37.37,0,0,1,40.43,135.68Z"/><path class="cls-3" d="M47.61,117.15a.39.39,0,0,1-.31-.15.38.38,0,0,1,.07-.54A46.52,46.52,0,0,1,64.06,109c18.85-4.15,31.51-15.49,36.61-32.79a.38.38,0,0,1,.47-.26.39.39,0,0,1,.27.48c-3.15,10.69-9.07,19.12-17.6,25.06a54.58,54.58,0,0,1-19.59,8.27,45.44,45.44,0,0,0-16.37,7.27A.43.43,0,0,1,47.61,117.15Z"/><path class="cls-15" d="M289.37,111.61H238.51c-.48,0-.72-.39-.55-.87L248.28,82.4a1.35,1.35,0,0,1,1.17-.86h50.86a.58.58,0,0,1,.55.86l-10.31,28.34A1.37,1.37,0,0,1,289.37,111.61Z"/><path class="cls-16" d="M288.76,110.28H240.09a.54.54,0,0,1-.51-.8L249,83.67a1.26,1.26,0,0,1,1.1-.81h48.67c.44,0,.67.36.51.81l-9.39,25.81A1.29,1.29,0,0,1,288.76,110.28Z"/><path class="cls-15" d="M287.88,108.6H242.19a.61.61,0,0,1-.58-.9l8.1-22.25a1.44,1.44,0,0,1,1.24-.91h45.69c.5,0,.75.41.57.91l-8.1,22.25A1.42,1.42,0,0,1,287.88,108.6Z"/><ellipse class="cls-16" cx="269.41" cy="96.57" rx="10" ry="6.97" transform="translate(0.69 195.04) rotate(-39.84)"/><path class="cls-15" d="M276.6,96.57c-1.44,4-5.83,7.19-9.8,7.19s-6-3.22-4.58-7.19,5.84-7.19,9.81-7.19S278.05,92.6,276.6,96.57Z"/><polygon class="cls-16" points="273.1 96.19 269.92 97.7 266.74 99.22 267.84 96.19 268.94 93.15 271.02 94.67 273.1 96.19"/><path class="cls-17" d="M212.38,79.72h-4a2.32,2.32,0,0,1-2-.94,2.56,2.56,0,0,1-.21-2.35l1.46-4a4.34,4.34,0,0,1,3.8-2.76h4a2.32,2.32,0,0,1,2,.94,2.53,2.53,0,0,1,.21,2.35l-1.46,4A4.33,4.33,0,0,1,212.38,79.72Zm-.91-8.51A2.83,2.83,0,0,0,209.12,73l-1.46,4a1.05,1.05,0,0,0,0,.93.82.82,0,0,0,.69.29h4a2.79,2.79,0,0,0,2.35-1.75l1.46-4a1,1,0,0,0,0-.93.81.81,0,0,0-.69-.28Z"/><path class="cls-17" d="M206.18,96.75h-4a2.32,2.32,0,0,1-1.95-.94,2.53,2.53,0,0,1-.2-2.35l1.45-4a4.35,4.35,0,0,1,3.8-2.76h4a2.31,2.31,0,0,1,1.95.94,2.53,2.53,0,0,1,.21,2.35L210,94A4.33,4.33,0,0,1,206.18,96.75Zm-.91-8.51A2.83,2.83,0,0,0,202.92,90l-1.45,4a1,1,0,0,0,0,.93.79.79,0,0,0,.68.29h4a2.78,2.78,0,0,0,2.35-1.75l1.46-4a1,1,0,0,0,0-.93.8.8,0,0,0-.69-.28Z"/><path class="cls-15" d="M200,113.78h-4a2.32,2.32,0,0,1-2-.94,2.53,2.53,0,0,1-.2-2.35l1.46-4a4.33,4.33,0,0,1,3.8-2.76h4a2.32,2.32,0,0,1,2,.94,2.56,2.56,0,0,1,.2,2.35l-1.46,4A4.33,4.33,0,0,1,200,113.78Zm-.9-8.51a2.76,2.76,0,0,0-2.35,1.74l-1.46,4a1,1,0,0,0,0,.93.8.8,0,0,0,.69.29h4a2.78,2.78,0,0,0,2.35-1.75l1.46-4a1,1,0,0,0,0-.93.79.79,0,0,0-.69-.28Z"/><path class="cls-15" d="M245.35,76.44h-22a.51.51,0,0,1-.48-.75,1.2,1.2,0,0,1,1-.75h22a.51.51,0,0,1,.48.75A1.18,1.18,0,0,1,245.35,76.44Z"/><path class="cls-15" d="M244.25,79.45h-22a.51.51,0,0,1-.47-.75,1.18,1.18,0,0,1,1-.75h22a.51.51,0,0,1,.48.75A1.2,1.2,0,0,1,244.25,79.45Z"/><path class="cls-15" d="M239.6,92.22h-22a.51.51,0,0,1-.48-.75,1.19,1.19,0,0,1,1-.75h22a.51.51,0,0,1,.48.75A1.2,1.2,0,0,1,239.6,92.22Z"/><path class="cls-15" d="M238.51,95.23h-22a.51.51,0,0,1-.48-.75,1.2,1.2,0,0,1,1-.76h22a.52.52,0,0,1,.48.76A1.21,1.21,0,0,1,238.51,95.23Z"/><path class="cls-15" d="M233.22,109.75h-22a.51.51,0,0,1-.48-.75,1.19,1.19,0,0,1,1-.75h22a.51.51,0,0,1,.48.75A1.2,1.2,0,0,1,233.22,109.75Z"/><path class="cls-15" d="M232.13,112.76h-22a.51.51,0,0,1-.48-.75,1.2,1.2,0,0,1,1-.76h22a.52.52,0,0,1,.48.76A1.22,1.22,0,0,1,232.13,112.76Z"/><path class="cls-18" d="M211.45,77.47a.78.78,0,0,1-.72-.49l-1.51-3.75a.77.77,0,1,1,1.43-.58l1.13,2.81,8.94-6.89a.77.77,0,1,1,.95,1.22l-9.75,7.52A.81.81,0,0,1,211.45,77.47Z"/><path class="cls-18" d="M205.25,94.5a.64.64,0,0,1-.2,0,.75.75,0,0,1-.52-.46L203,90.26a.77.77,0,1,1,1.43-.58l1.13,2.81,8.94-6.89a.77.77,0,1,1,.95,1.22l-9.75,7.52A.81.81,0,0,1,205.25,94.5Z"/><polygon class="cls-15" points="350.97 56.66 266.32 56.66 268.51 50.65 353.16 50.65 350.97 56.66"/><polygon class="cls-15" points="347.69 65.67 263.04 65.67 265.23 59.66 349.88 59.66 347.69 65.67"/><path class="cls-15" d="M253.86,137.75H191.7a1,1,0,0,1-.94-1.48,2.36,2.36,0,0,1,2-1.47h62.16a1,1,0,0,1,.94,1.47A2.36,2.36,0,0,1,253.86,137.75Z"/><path class="cls-15" d="M251.47,144.31H189.31a1,1,0,0,1-.93-1.47,2.32,2.32,0,0,1,2-1.48h62.16a1,1,0,0,1,.94,1.48A2.34,2.34,0,0,1,251.47,144.31Z"/><path class="cls-17" d="M309.66,199.81c0-1.05,12.57-35.76,4.07-58.11-5.94-15.65-6.88-34.43-6.88-34.43s-11.58,16.59-3.76,41.94c4.82,15.6,6.78,19.93,7.2,24.52s-1.88,27.54-1.88,27.54Z"/><path class="cls-19" d="M308.41,201.65l-.15,0a.38.38,0,0,1-.23-.39c0-.23,2.28-23,1.88-27.47-.28-3-1.2-5.83-3.23-12-1-3.18-2.33-7.13-4-12.41a55.72,55.72,0,0,1-1.06-30.69,38.64,38.64,0,0,1,4.87-11.58.38.38,0,0,1,.7.2c0,.19,1,18.9,6.86,34.31,3.18,8.36,3.82,19.38,1.9,32.76A162.65,162.65,0,0,1,310.56,198c-.27.89-.49,1.65-.51,1.8a.33.33,0,0,1-.09.23l-1.25,1.46A.39.39,0,0,1,308.41,201.65Zm-1.87-93.15a42.31,42.31,0,0,0-4.14,10.37,54.91,54.91,0,0,0,1.06,30.22c1.63,5.28,2.92,9.23,4,12.4,2,6.26,3,9.12,3.25,12.2.37,4-1.28,21.54-1.75,26.4l.38-.45c0-.23.18-.69.52-1.83,7.26-24.25,8.45-43.09,3.55-56C308.33,128.58,306.87,112.91,306.54,108.5Z"/><path class="cls-17" d="M312.38,203.36c-1.88-38.61,7.3-59.68,26.08-76.37s19.61-21.08,19.61-21.08-2.92,32.55-13.77,43.82-26.71,19.61-29,25.46-1.46,25.45-1.46,25.45l-1.46,3.55Z"/><path class="cls-17" d="M310.08,206.69c-.21-.62,4-36.09,19.2-38.18s18.78,1.46,29.21-.21a65.15,65.15,0,0,0,13.15-3.55s-4,10.06-17.53,14.19c-9.6,2.92-22.12-1.88-29.42-.62s-11.06,16.9-11.06,16.9l-1.25,8.14Z"/><path class="cls-19" d="M312.17,201.45a.39.39,0,0,1-.39-.35c0-.25-2.18-25.17,8.4-44.25,5.46-9.86,11.43-15.57,17.2-21.09,5.37-5.15,10.45-10,14.3-17.71a.37.37,0,0,1,.51-.17.38.38,0,0,1,.18.52c-3.91,7.81-9,12.72-14.46,17.91-5.73,5.49-11.65,11.16-17.06,20.91-10.46,18.87-8.32,43.56-8.3,43.8a.38.38,0,0,1-.35.42Z"/><path class="cls-19" d="M311.13,196.44l-.11,0a.39.39,0,0,1-.27-.48c4-13.76,8.58-21.79,14.43-25.27,5.23-3.11,10.63-2.16,16.35-1.15,1.4.25,2.85.51,4.28.69,12.43,1.63,18.49-1.39,18.55-1.42a.39.39,0,0,1,.52.17.38.38,0,0,1-.16.52c-.25.13-6.31,3.16-19,1.5-1.45-.19-2.9-.45-4.31-.7-5.58-1-10.84-1.91-15.83,1.05-5.66,3.37-10.14,11.26-14.07,24.83A.39.39,0,0,1,311.13,196.44Z"/><path class="cls-19" d="M331.05,142.92a.37.37,0,0,1-.3-.15.38.38,0,0,1,.07-.54,46.51,46.51,0,0,1,17.79-7.69.38.38,0,1,1,.15.75,45.81,45.81,0,0,0-17.47,7.55A.43.43,0,0,1,331.05,142.92Z"/><path class="cls-19" d="M319.26,159.71a.34.34,0,0,1-.19-.05.38.38,0,0,1-.14-.53c5.43-9.16,11.8-11.47,25.67-15.82a.39.39,0,1,1,.23.74c-13.68,4.29-19.95,6.56-25.24,15.48A.38.38,0,0,1,319.26,159.71Z"/><path class="cls-13" d="M315.89,216.19h-9.32a6.85,6.85,0,0,1-6.73-5.57l-3-15.72h28.8l-3,15.72A6.86,6.86,0,0,1,315.89,216.19Z"/><path class="cls-12" d="M324.9,198.91H297.77a.77.77,0,0,1,0-1.54H324.9a.77.77,0,0,1,0,1.54Z"/></g></g></svg>