<svg xmlns="http://www.w3.org/2000/svg" viewBox="0 0 142.37 170.39"><defs><style>.cls-1{fill:#d3ffcc;}.cls-2{fill:#ffbb8a;}.cls-3{fill:#ff5f2d;}.cls-4{fill:#fff;}.cls-5{fill:#7846d5;}.cls-6{fill:#6020c1;}.cls-7{fill:#153818;}.cls-8{fill:#2b5d64;}.cls-9{fill:#ff9b6d;}.cls-10{fill:#ff7451;}.cls-11{fill:#ff8d12;}.cls-12{fill:#ffb042;}</style></defs><g id="Layer_2" data-name="Layer 2"><g id="OBJECTS"><path class="cls-1" d="M130.08,166.22c0,2.3-28.82,4.17-64.37,4.17s-64.38-1.87-64.38-4.17S30.15,162,65.71,162,130.08,163.91,130.08,166.22Z"/><path class="cls-1" d="M60,42.55C54,20.93,27.17,14,11.78,30.13l-.66.7c-22.06,24-11.64,83.08,34.4,98.06s93.93-12.37,96.62-36.82-18.55-32.14-51.51-25.3C72,70.63,63.69,56,60,42.55Z"/><path class="cls-1" d="M77,43.06c-5.6-2.75-10.15.7-8.52,6.62a14.63,14.63,0,0,0,4,6.4c8.76,8.71,17.15,8.07,17.22-.46C89.76,50.36,82.52,45.79,77,43.06Z"/><polygon class="cls-2" points="77.2 120.59 75.8 124.5 71.73 124.43 72.83 119.62 77.2 120.59"/><path class="cls-3" d="M75.09,124.09s1-1.34,1.81-1.28,6.9,5,9,5.47,1.68,2,1.28,2.76-16.81.09-16.81.09-.41-5.48.14-7S73.43,124.42,75.09,124.09Z"/><path class="cls-4" d="M78.45,127.54a.27.27,0,0,1-.23,0,.29.29,0,0,1-.11-.4,4.62,4.62,0,0,1,1.56-1.59,2.06,2.06,0,0,1,2.09.12.3.3,0,1,1-.36.47,1.48,1.48,0,0,0-1.47-.06,4.12,4.12,0,0,0-1.31,1.36A.27.27,0,0,1,78.45,127.54Z"/><path class="cls-4" d="M77.58,126.7a.31.31,0,0,1-.23,0,.29.29,0,0,1-.11-.4,4.62,4.62,0,0,1,1.56-1.59,2,2,0,0,1,2.09.12.31.31,0,0,1,.06.42.3.3,0,0,1-.42,0,1.45,1.45,0,0,0-1.47-.06,4.12,4.12,0,0,0-1.31,1.36A.31.31,0,0,1,77.58,126.7Z"/><path class="cls-4" d="M79.64,128.23a.31.31,0,0,1-.23,0,.29.29,0,0,1-.11-.4,4.52,4.52,0,0,1,1.56-1.59,2,2,0,0,1,2.09.12.3.3,0,0,1,0,.42.29.29,0,0,1-.41,0,1.49,1.49,0,0,0-1.47-.06,4,4,0,0,0-1.31,1.36A.31.31,0,0,1,79.64,128.23Z"/><path class="cls-5" d="M81,120.92c-2,2-5.67.86-8-1a7.33,7.33,0,0,1-.71-.62c-1-1-1.58-2.06-1.34-2.91.28-1,5.57-17.4,3.78-20.84a208.25,208.25,0,0,1-21.79,1.09h-.28a14.89,14.89,0,0,1-9.5-3.28,16.2,16.2,0,0,1-.51-1.93l1.53-1.71A87.37,87.37,0,0,1,54,85.11c3.47-.51,7.79-1.08,11.67-1.42a54.33,54.33,0,0,1,7.1-.26c7.39.41,11.28,3.38,12.55,6.86S84.19,117.63,81,120.92Z"/><path class="cls-6" d="M76.59,106.07A110.19,110.19,0,0,0,73,119.93a7.33,7.33,0,0,1-.71-.62,108.64,108.64,0,0,1,3.53-13.51,18.23,18.23,0,0,0,.35-11.59.71.71,0,0,0-.78-.47c-7.79,1.3-23.37.87-23.53.87l0-.82c.16,0,15.66.43,23.37-.85A1.51,1.51,0,0,1,77,94,19.12,19.12,0,0,1,76.59,106.07Z"/><path class="cls-6" d="M65.71,83.69c-.19.11-6.31,3.64-8.94,8a20.12,20.12,0,0,1-3.83,5h-.28a14.87,14.87,0,0,1-9.5-3.28,16.2,16.2,0,0,1-.51-1.93l1.53-1.71A87.37,87.37,0,0,1,54,85.11C57.51,84.6,61.83,84,65.71,83.69Z"/><polygon class="cls-2" points="33.23 155.67 33.23 160.12 37.3 160.05 37.56 155.34 33.23 155.67"/><path class="cls-3" d="M33.94,159.7s-1-1.33-1.82-1.27-6.9,5-9,5.46-1.68,2-1.29,2.77,16.83-.49,16.83-.49.4-4.9-.16-6.39S35.59,160,33.94,159.7Z"/><path class="cls-4" d="M30.57,163.16a.34.34,0,0,0,.24,0,.29.29,0,0,0,.1-.4,4.52,4.52,0,0,0-1.56-1.59,2,2,0,0,0-2.09.12.3.3,0,0,0-.05.42.29.29,0,0,0,.41,0,1.49,1.49,0,0,1,1.47-.06A3.9,3.9,0,0,1,30.4,163,.31.31,0,0,0,30.57,163.16Z"/><path class="cls-4" d="M31.45,162.32a.32.32,0,0,0,.23,0,.29.29,0,0,0,.1-.41,4.54,4.54,0,0,0-1.55-1.58,2,2,0,0,0-2.09.12.29.29,0,1,0,.35.47,1.48,1.48,0,0,1,1.48-.06,3.94,3.94,0,0,1,1.3,1.35A.31.31,0,0,0,31.45,162.32Z"/><path class="cls-4" d="M29.39,163.85a.31.31,0,0,0,.23,0,.29.29,0,0,0,.11-.4,4.62,4.62,0,0,0-1.56-1.59,2,2,0,0,0-2.09.12.3.3,0,1,0,.36.47,1.45,1.45,0,0,1,1.47-.06,3.94,3.94,0,0,1,1.3,1.35A.31.31,0,0,0,29.39,163.85Z"/><path class="cls-5" d="M43.56,90.7c0,.53-.17,3.07-.39,6.61-.57,9.72-1.64,27-2.27,30.87s-.35,17-.15,23.87a4.1,4.1,0,0,1-1.15,3,4,4,0,0,1-.94.74,4.17,4.17,0,0,1-2,.54h-3.1a4.13,4.13,0,0,1-4.14-4.27c.17-5.78.38-16.32,0-24.46-.39-7.75.17-21.46.61-30h0c.18-3.41.33-6,.39-7Z"/><path class="cls-6" d="M30.36,90.53l13.2.17c0,.53-.17,3.07-.39,6.61a55.44,55.44,0,0,1-13.2.27C30.15,94.17,30.3,91.58,30.36,90.53Z"/><path class="cls-6" d="M39.55,139.86c.12,4.37.24,8.89.16,12.53,0,1-.06,1.9-.11,2.65a4,4,0,0,1-.94.74c.07-.87.13-2,.16-3.4.08-3.63,0-8.13-.16-12.49a115.63,115.63,0,0,1,0-12.51c.63-4.69,2-30.1,2.42-36.89l.89,0c-.37,6.78-1.79,32.25-2.43,37A116,116,0,0,0,39.55,139.86Z"/><path class="cls-7" d="M65.21,83.74c-8.12,1.86-11.76,9-16.06,9.32a50.7,50.7,0,0,1-5.78.07c-1.35,0-2.69-.11-4-.23-1-.08-2-.19-3-.32a72.47,72.47,0,0,1-8.61-1.64c-.07-4.47-.13-22.59.23-37.12v-.41c0-.19,0-.37,0-.56.25-9.48.69-17.22,1.44-18.25h0c.88-1.21,3.54-2.78,6.27-4.26l2.74-1.45L40.05,28c1-.54,1.82-1,2.35-1.38.2.32,1.4,2.14,3,2.27,1.72.15,3.25-1.87,3.25-1.87v-.39c.79.56,2.16,1.3,3.71,2.14,3.24,1.75,7.26,3.9,8.45,5.53.75,1,1.26,8.91,1.59,18.53,0,.18,0,.37,0,.56C62.89,68.07,65.25,79.28,65.21,83.74Z"/><path class="cls-8" d="M62.4,53.82h0a.28.28,0,0,1-.25-.16s0-.1-.12-.26-.13-.29-.22-.49A43.4,43.4,0,0,0,58.66,47a.26.26,0,0,1,.06-.38.27.27,0,0,1,.38.06,35.5,35.5,0,0,1,2.63,4.78c.26.54.48,1,.64,1.36,0,.18,0,.37,0,.56h0C62.39,53.55,62.4,53.68,62.4,53.82Z"/><path class="cls-8" d="M31.71,47a43.4,43.4,0,0,0-3.14,5.88l-.23.49a2.68,2.68,0,0,1-.12.26.26.26,0,0,1-.25.16h0c0-.14,0-.27,0-.41h-.24c0-.08.13-.28.25-.56s.38-.82.64-1.36a35.48,35.48,0,0,1,2.64-4.78.26.26,0,0,1,.38-.06A.27.27,0,0,1,31.71,47Z"/><path class="cls-4" d="M53.49,48.7c-2-3.29-11.13-4.08-14.11-.73s2.44,8.58,2.44,8.58-2.56,5.05-.41,5c1.12,0,3-2.76,3-2.76s0,2.82,1.81,3.27,2.27-3.63,2.27-3.63,1.91,3.5,3.06,3-1-5-1-5S55.5,52,53.49,48.7Zm-8.63,5.77c-1.39.19-5.43-1.75-3.27-4a1.52,1.52,0,0,1,2.07-.12,3.57,3.57,0,0,1,1.43,1.79C45.43,53,45.76,54.35,44.86,54.47Zm2.46,2.36c-.42.37-.87-.52-.87-.52s-.84,1.17-.91.48.92-1.39.92-1.39S47.73,56.47,47.32,56.83ZM48,54.47c-.9-.12-.57-1.44-.23-2.34a3.47,3.47,0,0,1,1.43-1.79,1.52,1.52,0,0,1,2.07.12C53.41,52.72,49.37,54.66,48,54.47Z"/><path class="cls-8" d="M49.76,77.67a20.46,20.46,0,0,1-9.95,4,.28.28,0,0,1-.31-.28h0a.27.27,0,0,1,.24-.25,19.86,19.86,0,0,0,9.69-3.89.27.27,0,0,1,.43.21h0A.32.32,0,0,1,49.76,77.67Z"/><path class="cls-8" d="M49.86,71.33h0a.23.23,0,0,1,0,.14,8.12,8.12,0,0,1-.53.83,11.88,11.88,0,0,1-6.81,4.62h-.07a.29.29,0,0,1-.27-.21.27.27,0,0,1,.2-.33,11.21,11.21,0,0,0,7-5.21A.27.27,0,0,1,49.86,71.33Z"/><path class="cls-8" d="M51.28,38.79l0,.55a19.22,19.22,0,0,1-7.93-3.43,18.28,18.28,0,0,1-3.7-3.49.27.27,0,0,1,.05-.38.28.28,0,0,1,.39.06A19.48,19.48,0,0,0,51.28,38.79Z"/><path class="cls-2" d="M18.81,90.46c.16,2.38,1.59,4.15,1.6,5.72s1.82.54,1-2.56.41-6.09,1.07-6.06-.21,3.49.49,4.64,1.22-1.27,1.83-2.76.28-4.77-.29-7,2.24-16.63,1.87-20.68l1-5.25.6-3.06.11-3.2-5.44-2.16c-.21,1-.42,2.09-.62,3.16-.1.48-.19.95-.28,1.42-.72,3.83-1.38,7.6-1.64,10-.74,6.69.47,20.33.47,20.33S18.65,88.23,18.81,90.46Z"/><path class="cls-9" d="M21.75,52.63a12.09,12.09,0,0,0,5.63,3.84l.6-3.06.11-3.2-5.44-2.16c-.21,1-.42,2.09-.62,3.16C21.93,51.69,21.84,52.16,21.75,52.63Z"/><path class="cls-7" d="M20.24,49.6A11.35,11.35,0,0,0,22,51.21,10.2,10.2,0,0,0,28,53.41c.3-8.87.75-16.51,1.39-18.71C28.21,36.12,22.7,43.25,20.24,49.6Z"/><path class="cls-7" d="M37.35,11s-1.2-5.1.85-6.6,4.64-3.22,4.64-3.22a2.34,2.34,0,0,1,.3,1.32A12.47,12.47,0,0,0,48.24,0s1,1.32.48,2.34c0,0,3.12.48,5.06-1.26,0,0,2.37,3.88-.14,9.68C53.64,10.76,39.82,8.13,37.35,11Z"/><path class="cls-9" d="M52.36,15.2s1.42-1.89,2.48-.33-.44,6.19-3,5.06Z"/><path class="cls-10" d="M52.38,18.5a.21.21,0,0,0,.21-.16,3.4,3.4,0,0,1,1.9-2,.22.22,0,0,0,.12-.28.22.22,0,0,0-.28-.13,3.77,3.77,0,0,0-2.16,2.3.22.22,0,0,0,.15.27Z"/><path class="cls-10" d="M53.87,17.78a.24.24,0,0,0,.12,0,.22.22,0,0,0,.07-.3,2,2,0,0,0-.82-.66.22.22,0,0,0-.29.11.21.21,0,0,0,.11.28,1.62,1.62,0,0,1,.63.5A.2.2,0,0,0,53.87,17.78Z"/><path class="cls-2" d="M42.13,23.85v4.6s2,2.51,4.48,2.51c1.86,0,2.24-2,2.24-2V24.17Z"/><path class="cls-9" d="M42.13,23.85v2c1.24,1.38,3.45,1.72,6.72,1.24v-3Z"/><path class="cls-2" d="M37.28,12.05a43.87,43.87,0,0,0,.6,5.8c.08.45.18.87.28,1.24,1,3.39,3.39,9.2,10.16,6.78,3-1.07,4.38-4.4,5-7.79a32.74,32.74,0,0,0,.45-6.29,4.78,4.78,0,0,0-2.43-4.08c-4-2.27-8.22-1.42-11-.36A4.8,4.8,0,0,0,37.28,12.05Z"/><path class="cls-7" d="M48.78,15.8c0,.49.26.89.57.89s.56-.4.56-.89-.25-.89-.56-.89S48.78,15.31,48.78,15.8Z"/><ellipse class="cls-7" cx="42.69" cy="15.78" rx="0.56" ry="0.89"/><path class="cls-7" d="M41.15,12.73a4.77,4.77,0,0,1,3.16-.11l-.14.76a8.82,8.82,0,0,0-3,.24A1.36,1.36,0,0,1,41.15,12.73Z"/><path class="cls-7" d="M51.15,12.73A4.74,4.74,0,0,0,48,12.62l.14.76a8.82,8.82,0,0,1,3,.24A1.3,1.3,0,0,0,51.15,12.73Z"/><path class="cls-9" d="M45.8,19.52a2.48,2.48,0,0,1-.79-.16.22.22,0,1,1,.17-.41c.19.08.67.21.87.08a.22.22,0,0,0,.11-.2A33.34,33.34,0,0,0,46,15.49a.22.22,0,0,1,.2-.24.21.21,0,0,1,.23.2,30.37,30.37,0,0,1,.13,3.43.68.68,0,0,1-.31.53A1,1,0,0,1,45.8,19.52Z"/><path class="cls-4" d="M48.78,20.63A2.81,2.81,0,0,1,46,23.18a2.72,2.72,0,0,1-2.76-2.55Z"/><path class="cls-9" d="M46,24.53A2.3,2.3,0,0,1,45,24.24a.22.22,0,1,1,.22-.38,1.86,1.86,0,0,0,.84.24,1.62,1.62,0,0,0,.79-.24.22.22,0,0,1,.3.07.2.2,0,0,1-.07.3A2.08,2.08,0,0,1,46,24.53Z"/><path class="cls-7" d="M37.51,15.24h1.64c-.11-1,0-2.61.82-2.86,2.58-.79-.68-2.83.48-3.74s3.06-.44,5.08-.5a43.2,43.2,0,0,1,6.07.14c.79.18.36,1.5.07,2.52s1,2.14,1.18,3.2a4.62,4.62,0,0,1,0,1.24h.83c.09-1.29.11-2.48.09-3.45a4.78,4.78,0,0,0-2.43-4.08c-4-2.27-8.22-1.42-11-.36a4.8,4.8,0,0,0-3.06,4.7C37.33,13,37.4,14.14,37.51,15.24Z"/><path class="cls-2" d="M39.15,15.24s-2.26-1.93-3.32-.37.44,6.19,3,5.06C39.68,19.81,40.31,16.81,39.15,15.24Z"/><path class="cls-9" d="M38.29,18.5a.21.21,0,0,1-.21-.16,3.4,3.4,0,0,0-1.9-2,.21.21,0,0,1-.12-.28.22.22,0,0,1,.28-.13,3.77,3.77,0,0,1,2.16,2.3.22.22,0,0,1-.15.27Z"/><path class="cls-9" d="M36.8,17.78a.21.21,0,0,1-.12,0,.22.22,0,0,1-.07-.3,1.9,1.9,0,0,1,.82-.66.22.22,0,0,1,.29.11.21.21,0,0,1-.11.28,1.62,1.62,0,0,0-.63.5A.2.2,0,0,1,36.8,17.78Z"/><path class="cls-2" d="M78.36,61.16,72.79,65l-7.64-9.71-2.75-3.5,5.7-4,1.62,2.27C72.24,53.61,77,60.08,78.36,61.16Z"/><path class="cls-9" d="M69.72,50.09a12.46,12.46,0,0,1-4.57,5.24l-2.75-3.5,5.7-4Z"/><path class="cls-7" d="M69.58,48.36a11.76,11.76,0,0,1-1.6,1.8A10.22,10.22,0,0,1,62.3,53c-1.25-8.78-.92-16.88-1.8-19C61.8,35.27,66.46,42.31,69.58,48.36Z"/><rect class="cls-7" x="27.53" y="88.56" width="1.69" height="3.74" rx="0.67" transform="translate(76.99 9.08) rotate(48.29)"/><path class="cls-7" d="M67.35,130.68l-.62-.07a12.18,12.18,0,0,0-3.14-10.29c-4.36-4.57-11.94-5.78-17.57-5.39-.62,0-1.24.06-1.85.06C34,115,25.29,109.16,24,101.16c-1.4-8.32,3.61-10.48,3.66-10.5l.23.57-.11-.29.11.29c-.18.08-4.59,2-3.29,9.83,1.37,8.17,10.78,14,21.43,13.26,5.77-.4,13.55.85,18.05,5.57A12.78,12.78,0,0,1,67.35,130.68Z"/><path class="cls-11" d="M73.11,80.59c-1.14,5.07-4.14,5.82-9,6.3-5.76.56-9.17,4-13.13,11.75S40.21,104,35.79,98l-5.28-7.17a17.71,17.71,0,0,1-2-3.48c-2.19-5-1-10,5.93-11.19,8.59-1.47,12.88-3.71,15.13-9,1.91-4.53,8-11.91,11.37-11a2.75,2.75,0,0,1,.34.1c2,.74,1.32,2.82.64,4.89A8.07,8.07,0,0,0,62,66.14a8.43,8.43,0,0,0,1.84,3c1,1.1,1.42,2,3,2a5.36,5.36,0,0,1,4.52,2.09A10.18,10.18,0,0,1,73.11,80.59Z"/><path class="cls-12" d="M71.81,78.16c-1.14,5.07-4.14,5.82-9,6.3-5.75.56-9.16,4-13.13,11.75s-10.74,5.37-15.17-.65l-5.27-7.17q-.39-.52-.72-1c-2.19-5-1-10,5.93-11.19,8.59-1.47,12.88-3.71,15.13-9,1.91-4.53,8-11.91,11.37-11a2.75,2.75,0,0,1,.34.1,13.51,13.51,0,0,1-.66,2.46A8.19,8.19,0,0,0,62,66.14a8.43,8.43,0,0,0,1.84,3c1,1.1,1.42,2,3,2a5.36,5.36,0,0,1,4.52,2.09A10.11,10.11,0,0,1,71.81,78.16Z"/><path class="cls-3" d="M49.55,67.12s-10-23.73-17.2-34.86A4.49,4.49,0,0,1,36,30.15s11.54,22.2,15.47,33.43Z"/><rect class="cls-7" x="55.84" y="70.17" width="4.04" height="12.01" transform="translate(-33.88 49.08) rotate(-36.33)"/><rect class="cls-7" x="43.14" y="79.52" width="12.01" height="6.12" transform="translate(86.56 -5.94) rotate(53.68)"/><rect class="cls-7" x="39.18" y="84.9" width="12.01" height="1.3" transform="translate(87.34 -1.53) rotate(53.68)"/><rect class="cls-7" x="35.99" y="86.79" width="12.01" height="2.22" transform="translate(87.93 2) rotate(53.68)"/><rect class="cls-7" x="55.12" y="59.52" width="43.03" height="5.21" transform="translate(-21.91 57.47) rotate(-36.33)"/><path class="cls-7" d="M90.21,58.12c-2.18,2.5-4-.42-4-.42L84.94,56l-1.24-1.7s-2.23-2.63.8-4,3.82-.88,5.11-3.17,4-6.8,8.55-.89c4.26,6.15-.89,7.35-3.41,7.89S92.39,55.63,90.21,58.12Z"/><rect class="cls-4" x="33.7" y="67.28" width="67.77" height="0.18" transform="translate(-26.76 53.03) rotate(-36.26)"/><path class="cls-4" d="M40.9,88.28C59.25,74.72,77.11,61.59,95.51,48.14l.1.14C77.22,61.73,59.36,74.87,41,88.43Z"/><path class="cls-4" d="M41.77,89.47l-.1-.15C60.11,75.88,78,62.75,96.27,49.18l.11.14C78.07,62.89,60.21,76,41.77,89.47Z"/><path class="cls-7" d="M91.66,46.17A1.48,1.48,0,1,1,92,44.1,1.48,1.48,0,0,1,91.66,46.17Z"/><path class="cls-7" d="M86.66,50.5A1.48,1.48,0,1,1,87,48.43,1.48,1.48,0,0,1,86.66,50.5Z"/><path class="cls-7" d="M96.23,52.38A1.48,1.48,0,1,0,98,54.77a1.48,1.48,0,0,0-1.76-2.39Z"/><path class="cls-7" d="M90.61,55.87a1.48,1.48,0,1,0,2.07.31A1.48,1.48,0,0,0,90.61,55.87Z"/><path class="cls-4" d="M44.84,96.54a1,1,0,1,1,.21-1.4A1,1,0,0,1,44.84,96.54Z"/><path class="cls-4" d="M58.5,62a1,1,0,0,1-1.4-.21,1,1,0,0,1,1.62-1.18A1,1,0,0,1,58.5,62Z"/><path class="cls-4" d="M43.91,99.65a1,1,0,0,1-1.4-.21,1,1,0,0,1,.22-1.4,1,1,0,0,1,1.39.22A1,1,0,0,1,43.91,99.65Z"/><path class="cls-4" d="M41.18,97.63a1,1,0,1,1,.22-1.4A1,1,0,0,1,41.18,97.63Z"/><rect class="cls-7" x="63.05" y="131.13" width="31.65" height="35.79" rx="4.74"/><path class="cls-7" d="M66.05,130.15h2a.78.78,0,0,1,.78.78v.2a0,0,0,0,1,0,0H65.27a0,0,0,0,1,0,0v-.2A.78.78,0,0,1,66.05,130.15Z"/><path class="cls-7" d="M89.72,130.15h2a.78.78,0,0,1,.78.78v.2a0,0,0,0,1,0,0H88.94a0,0,0,0,1,0,0v-.2a.78.78,0,0,1,.78-.78Z"/><rect class="cls-8" x="68.19" y="142.11" width="21.38" height="20.41" rx="2.71"/><rect class="cls-8" x="68.19" y="135.03" width="21.38" height="3.18" rx="1.27"/><path class="cls-8" d="M67,163.39a.87.87,0,1,1-.87-.87A.87.87,0,0,1,67,163.39Z"/><path class="cls-8" d="M92.44,163.39a.87.87,0,1,1-.86-.87A.86.86,0,0,1,92.44,163.39Z"/><path class="cls-8" d="M67,142.11a.87.87,0,1,1-.87-.86A.87.87,0,0,1,67,142.11Z"/><path class="cls-8" d="M92.44,142.11a.87.87,0,1,1-.86-.86A.86.86,0,0,1,92.44,142.11Z"/><path class="cls-2" d="M87.91,58.44a1.64,1.64,0,0,0-.53-1.07c-1.53-1.4-5.14-4.15-5.52-3.73-.54.6,2.54,4,2.72,4.16-.14-.1-2.15-1.55-2.75-1.15S82.9,58.78,83,58.87c-1.3-1-2.83-1.26-3.18-.72s1.84,1.84,2,1.91c-.12-.05-2.76-1.17-2.63-.28.08.55,1.22,1.51,2.11,2.19l-1.48,1.09-5.52,4.06s1.06,1.31,4.4,1.67a7.66,7.66,0,0,0,3.42-.51,6.66,6.66,0,0,0,2.68-2.67C85.62,63.61,88.17,62.07,87.91,58.44Z"/></g></g></svg>