<svg xmlns="http://www.w3.org/2000/svg" xmlns:xlink="http://www.w3.org/1999/xlink" viewBox="0 0 160.14 152.92"><defs><style>.cls-1{opacity:0.42;fill:url(#linear-gradient);}.cls-2,.cls-5{fill:#b7dec1;}.cls-2{opacity:0.43;}.cls-3{fill:#f17e59;}.cls-4{fill:#174c30;}.cls-6{fill:#8acb95;}.cls-12,.cls-7{fill:#218c5c;}.cls-7{opacity:0.25;}.cls-8{fill:#ea4230;}.cls-9{fill:#f37a71;}.cls-10{fill:#9bd3ac;}.cls-11{fill:#0a783d;}.cls-13{fill:#093f26;opacity:0.26;}.cls-14{fill:#77c58e;}.cls-15{fill:#92cea4;}</style><linearGradient id="linear-gradient" x1="80.07" y1="137.99" x2="80.07" y2="-26.84" gradientUnits="userSpaceOnUse"><stop offset="0" stop-color="#fff"/><stop offset="0.14" stop-color="#f8fcf9"/><stop offset="0.33" stop-color="#e6f4ea"/><stop offset="0.56" stop-color="#c7e7d0"/><stop offset="0.81" stop-color="#9cd5ad"/><stop offset="1" stop-color="#77c58e"/></linearGradient></defs><g id="Layer_2" data-name="Layer 2"><g id="OBJECTS"><path class="cls-1" d="M34,149.35h92.18a77.6,77.6,0,0,0,34-63.95C160.14,42.19,124.29,1,80.07,1S0,42.19,0,85.4A77.6,77.6,0,0,0,34,149.35Z"/><ellipse class="cls-2" cx="78.3" cy="149.59" rx="66.49" ry="3.33"/><polygon class="cls-3" points="68.92 137.16 69.42 140.3 67.07 143.39 60.97 140.5 60.27 137.64 67.8 136.4 68.92 137.16"/><path class="cls-4" d="M64.16,147.34l-.63-.77a.29.29,0,0,0-.45,0l-.62.75a1.28,1.28,0,0,1-1,.47l-14.09,0a.76.76,0,0,1,0-1.07c2-2.11,13.1-5.86,13.65-6.18s4,2.29,8.45-.2a46.46,46.46,0,0,1,.91,5.8,1.61,1.61,0,0,1-1.6,1.72H65.15A1.29,1.29,0,0,1,64.16,147.34Z"/><polygon class="cls-3" points="91.5 137.29 92 140.43 89.65 143.52 83.55 140.63 82.85 137.77 90.38 136.52 91.5 137.29"/><path class="cls-4" d="M86.75,147.47l-.64-.77a.29.29,0,0,0-.45,0l-.62.75a1.31,1.31,0,0,1-1,.47l-14.09,0a.74.74,0,0,1,0-1.06c2-2.11,13.1-5.87,13.65-6.18s4,2.28,8.45-.21a46.75,46.75,0,0,1,.91,5.81,1.61,1.61,0,0,1-1.6,1.72l-3.58,0A1.27,1.27,0,0,1,86.75,147.47Z"/><polygon class="cls-5" points="59.01 35.77 54.72 52.15 43.04 44.35 37.76 48.55 53 62.82 63.97 52.65 59.01 35.77"/><path class="cls-3" d="M43,44.36l-3.39-6.71a1.41,1.41,0,0,0-2-.56h0a5.09,5.09,0,0,0-2.4,5.45c.46,2.14,1.24,4.68,2.49,6Z"/><path class="cls-4" d="M38.82,31.42l-3.72-.31c-.54,0-.89.31-.77.77L37,42.35a1.4,1.4,0,0,0,1.2.93l3.73.31c.87.07,1.37,1.61.77-.77L40,32.35A1.39,1.39,0,0,0,38.82,31.42Z"/><path class="cls-3" d="M43,44.38l.78-2.48a1.42,1.42,0,0,0-.45-1.82l-1.29-.9a.92.92,0,0,0-1.22.15h0A.93.93,0,0,0,41,40.67l.59.46.61.46-1.44,2.18Z"/><path class="cls-4" d="M92.25,138c0-3.66-4.25-64.55-4.25-64.55S79.42,65.11,74.75,66c-4.67-.89-15.29,5.31-15.29,5.31s.23,63.05.23,66.71H69.8s.07-29,4-50a.92.92,0,0,1,1.79-.09c3.94,21,6.54,50.09,6.54,50.09Z"/><path class="cls-5" d="M75,25.88s11.94,2.92,13.59,4.83,7.86,13.78,7.75,17.78c-.13,4.69-8.16,14.68-8,14.1V76.7S70,82.42,58.94,75.43c0,0-1.27-36.24.26-40.28.46-1.24,6.47-6.48,8.25-7.11S75,25.88,75,25.88Z"/><path class="cls-5" d="M96.29,48.49c-.12,4.18-6.52,12.58-7.79,13.94h0a2,2,0,0,1-.21.16l-4,3.62-4.86-4.38s9-6.38,7.72-14.58c-.87-5.76-6.86-16.1-6.86-16.1A22.07,22.07,0,0,1,74.62,26l.33-.09s11.94,2.92,13.59,4.83S96.4,44.49,96.29,48.49Z"/><rect class="cls-6" x="50.91" y="45.42" width="48.02" height="26.56" rx="4.55"/><path class="cls-7" d="M94.61,45.42h-5.1a4.31,4.31,0,0,1,4.32,4.31V67.66A4.31,4.31,0,0,1,89.51,72h5.1a4.31,4.31,0,0,0,4.31-4.32V49.73A4.31,4.31,0,0,0,94.61,45.42Z"/><rect class="cls-4" x="50.91" y="54" width="48.02" height="6.17"/><rect class="cls-4" x="55.47" y="64.33" width="9.46" height="1.31"/><rect class="cls-4" x="55.47" y="67.25" width="4.57" height="1.31"/><path class="cls-8" d="M75.58,19.24v8.48s-2.76,8.48-9.14,1.81l-.58-6.76Z"/><path class="cls-4" d="M59,12.61s-10.79-2.29-4.12-11.5c0,0,1.14,4.89,7,.7,3-2.14,7.4-2.67,12.32,0C79.46,4.67,81.3,13.43,76.79,18L68,16.23Z"/><path class="cls-3" d="M59,12.61s-1.27,14.67,8.45,13.71c7.59-.74,7.31-6.47,7.31-6.47s2.47-.51,2.6-2.73-.57-4.07-2.79-2.61c0,0-3.94-2.54-4.2-4.32A24.71,24.71,0,0,1,59,12.61Z"/><path class="cls-9" d="M71.81,75.65a1.55,1.55,0,0,0,.4,2.15l1.65,1.34a1.57,1.57,0,0,0,2.19-.06l5.17-6.44-5-3.8-5.38,3.8a.66.66,0,0,0,0,1.09,1.26,1.26,0,0,0,.89.18,2.24,2.24,0,0,0,1.43-.73Z"/><path class="cls-5" d="M75.34,68.9l5.77,4.65s15.69-17.36,15.76-24c0-3.73-4.5-12.72-7.34-17.57H79.36s7.26,10.92,9.45,16.16a3.19,3.19,0,0,1-.32,3C85.84,55,78,66.32,75.34,68.9Z"/><path class="cls-10" d="M89.53,32s5.8,14.37,5.77,17.26c-.06,5.71-12.59,19.3-15.83,23l1.64,1.32s15.69-17.36,15.76-24C96.9,45.82,92.37,36.83,89.53,32Z"/><path class="cls-10" d="M87.3,45.3l-.32.12H60.77l-.36-.12,24.65-.63s-3.21-8.88-2.7-8.63S87.3,45.3,87.3,45.3Z"/><path class="cls-8" d="M63.28,24.19a5.76,5.76,0,0,1-1.19-3.05,4.32,4.32,0,0,1-1.3-.15c-.15-.15.35-4.21.27-4.92-.07-.5-.33-2.45-.48-3.52-.66,0-.86.07-1.58.06,0,0-1.27,14.67,8.45,13.71C65.09,26.36,64.31,25.28,63.28,24.19Z"/><path class="cls-11" d="M43.3,17.65a8.25,8.25,0,1,0-6.88,9.62l1.69,1.95.35-2.54A8.24,8.24,0,0,0,43.3,17.65ZM31,19.88a1,1,0,1,1,0-2,1,1,0,0,1,0,2Zm4.09,0a1,1,0,1,1,1-1A1,1,0,0,1,35.06,19.88Zm4,0a1,1,0,1,1,0-2,1,1,0,0,1,0,2Z"/><path class="cls-12" d="M140.05,107.1c3-3.16,3.72-7.32,1.65-9.27s-6.18-1-9.17,2.18-5.11,8.79-3,10.75S137.06,110.27,140.05,107.1Z"/><path class="cls-13" d="M141.7,97.83a3.83,3.83,0,0,0-2.43-1l.29.23c2.08,2,1.34,6.12-1.65,9.28-2.24,2.38-5.91,4.35-8.47,4.35l.05.07c2.08,1.95,7.57-.49,10.56-3.66S143.77,99.78,141.7,97.83Z"/><path class="cls-14" d="M124.86,94.92c.4-4.27-1.41-7.93-4-8.18s-5.09,3-5.49,7.29,1.22,9.91,3.86,10.16S124.46,99.19,124.86,94.92Z"/><path class="cls-7" d="M120.82,86.74a3.09,3.09,0,0,0-1.44.22c2.16.86,3.55,4.17,3.19,8-.33,3.53-2.2,7.73-4.33,8.93a2.27,2.27,0,0,0,1,.34c2.63.24,5.27-5,5.67-9.27S123.45,87,120.82,86.74Z"/><path class="cls-12" d="M112,91.64c-1.82-3.6-5.1-5.6-7.32-4.47s-2.53,5-.71,8.55,6,7.27,8.17,6.14S113.87,95.23,112,91.64Z"/><path class="cls-13" d="M112,91.64c-1.82-3.6-5.1-5.6-7.32-4.47A3.42,3.42,0,0,0,103,89.49a2.69,2.69,0,0,1,.67-.49c2.22-1.13,5.5.87,7.33,4.47a13.86,13.86,0,0,1,1.42,8.21C114.35,100.25,113.79,95.08,112,91.64Z"/><path class="cls-14" d="M108.52,106.67c-3.52-1.58-7.12-1.21-8,.83s1.2,5,4.72,6.54,8.75,1.94,9.66-.1S112,108.24,108.52,106.67Z"/><path class="cls-7" d="M108.52,106.67c-3.52-1.58-7.12-1.21-8,.83a2.67,2.67,0,0,0-.16,1.54c1-2,4.51-2.3,8-.75,2.84,1.27,5.81,3.89,6.39,5.92a1,1,0,0,0,.17-.27C115.79,111.9,112,108.24,108.52,106.67Z"/><path class="cls-12" d="M141,119.09c3.52-1.25,5.7-4.14,4.88-6.44s-4.34-3.16-7.85-1.91-7.33,4.72-6.51,7S137.5,120.34,141,119.09Z"/><path class="cls-13" d="M145.89,112.65a3.6,3.6,0,0,0-2.33-2.11,3.11,3.11,0,0,1,.91,1.3c.82,2.3-1.36,5.18-4.88,6.44a12.59,12.59,0,0,1-7.53.28c1.61,1.55,5.9,1.62,8.95.53C144.53,117.84,146.71,115,145.89,112.65Z"/><path class="cls-4" d="M122.73,131.76a39.89,39.89,0,0,1,12.49-26c.29-.27-.14-.7-.43-.43a40.51,40.51,0,0,0-12.67,26.42c0,.39.58.39.61,0Z"/><path class="cls-4" d="M120.51,130.33a53.64,53.64,0,0,0-11.13-34c-.24-.31-.77,0-.53.3a53.13,53.13,0,0,1,11.05,33.65.31.31,0,0,0,.61,0Z"/><path class="cls-4" d="M117.93,112.42c1.67-5.29,2.09-10.92,2.3-16.44a.31.31,0,0,0-.61,0c-.21,5.47-.63,11-2.27,16.28a.3.3,0,0,0,.58.16Z"/><path class="cls-4" d="M108.46,111.4a54.36,54.36,0,0,0,9.59,4.48c.37.14.53-.45.17-.59a53.14,53.14,0,0,1-9.45-4.41.3.3,0,0,0-.31.52Z"/><path class="cls-4" d="M134.44,116.15a65.1,65.1,0,0,1-9,3c-.38.09-.22.68.16.59a65.1,65.1,0,0,0,9-3c.36-.15.2-.74-.16-.59Z"/><path class="cls-5" d="M110.29,128.92l1.85,16.78a4.14,4.14,0,0,0,4.12,3.68H127a4.13,4.13,0,0,0,4.11-3.68l1.86-16.78a1.55,1.55,0,0,0-1.54-1.71H111.82A1.54,1.54,0,0,0,110.29,128.92Z"/><path class="cls-15" d="M131.38,127.21H124.6a1.54,1.54,0,0,1,1.53,1.71l-1.85,16.78a4.13,4.13,0,0,1-4.11,3.68H127a4.13,4.13,0,0,0,4.11-3.68l1.86-16.78A1.55,1.55,0,0,0,131.38,127.21Z"/></g></g></svg>