<svg xmlns="http://www.w3.org/2000/svg" viewBox="0 0 174.37 165.09"><defs><style>.cls-1{fill:#f5f5f5;}.cls-2{fill:#e0e0e0;}.cls-3{fill:#68c87c;}.cls-4,.cls-8{opacity:0.3;}.cls-11,.cls-12,.cls-13,.cls-20,.cls-21,.cls-23,.cls-26,.cls-4,.cls-7,.cls-8{isolation:isolate;}.cls-5,.cls-7{opacity:0.1;}.cls-6{fill:#455a64;}.cls-10,.cls-11,.cls-12,.cls-13,.cls-8{fill:#fff;}.cls-12,.cls-9{opacity:0.55;}.cls-11{opacity:0.7;}.cls-13{opacity:0.85;}.cls-14{fill:#37474f;}.cls-15,.cls-23{fill:#263238;}.cls-16,.cls-20{opacity:0.35;}.cls-17{fill:#ffa8a7;}.cls-18{fill:#f28f8f;}.cls-19,.cls-26{opacity:0.2;}.cls-21{opacity:0.5;}.cls-22{fill:#b16668;}.cls-23,.cls-24{opacity:0.6;}.cls-25{fill:#9a4a4d;}</style></defs><g id="Layer_2" data-name="Layer 2"><g id="OBJECTS"><g id="freepik--Floor--inject-2"><ellipse id="freepik--floor--inject-2-2" data-name="freepik--floor--inject-2" class="cls-1" cx="87.19" cy="114.75" rx="87.19" ry="50.34"/></g><g id="freepik--Shadows--inject-2"><ellipse id="freepik--Shadow--inject-2" class="cls-2" cx="86.5" cy="84.12" rx="18.95" ry="10.94"/><ellipse id="freepik--shadow--inject-2-2" data-name="freepik--shadow--inject-2" class="cls-2" cx="132.32" cy="136.21" rx="22.6" ry="13.74"/><ellipse id="freepik--shadow--inject-2-3" data-name="freepik--shadow--inject-2" class="cls-2" cx="31.59" cy="126.33" rx="20.63" ry="11.91"/></g><g id="freepik--papel-planes--inject-2"><g id="freepik--paper-planes--inject-2"><polygon class="cls-3" points="127.52 43.31 121.5 37.08 118.13 37.34 127.52 43.31"/><polygon class="cls-3" points="127.52 43.31 122.6 36.74 124.34 35.49 127.52 43.31"/><polygon class="cls-3" points="122.6 36.74 122.32 37.93 127.52 43.31 122.6 36.74"/><polygon class="cls-4" points="122.6 36.74 122.32 37.93 127.52 43.31 122.6 36.74"/><polygon class="cls-3" points="41.74 53.34 48.95 46.67 52.74 47.18 41.74 53.34"/><polygon class="cls-3" points="41.74 53.34 47.73 46.22 45.84 44.69 41.74 53.34"/><polygon class="cls-3" points="47.73 46.22 47.97 47.58 41.74 53.34 47.73 46.22"/><polygon class="cls-4" points="47.73 46.22 47.97 47.58 41.74 53.34 47.73 46.22"/><polygon class="cls-3" points="110 76.47 117.7 71.55 121.08 72.64 110 76.47"/><polygon class="cls-3" points="110 76.47 116.65 70.93 115.17 69.22 110 76.47"/><polygon class="cls-3" points="116.65 70.93 116.65 72.22 110 76.47 116.65 70.93"/><polygon class="cls-4" points="116.65 70.93 116.65 72.22 110 76.47 116.65 70.93"/><polygon class="cls-3" points="60.76 96.53 51.82 90.81 47.88 92.07 60.76 96.53"/><polygon class="cls-3" points="60.76 96.53 53.03 90.09 54.75 88.1 60.76 96.53"/><polygon class="cls-3" points="53.03 90.09 53.03 91.58 60.76 96.53 53.03 90.09"/><polygon class="cls-4" points="53.03 90.09 53.03 91.58 60.76 96.53 53.03 90.09"/><path class="cls-2" d="M40.41,75a.15.15,0,0,1-.16-.13l-.1-.52a.17.17,0,0,1,.13-.2.18.18,0,0,1,.21.14c0,.17.06.34.1.51a.17.17,0,0,1-.14.2Z"/><path class="cls-2" d="M49.54,88.88a.16.16,0,0,1-.09,0c-.3-.2-.59-.41-.88-.63a.17.17,0,0,1,0-.24h0a.18.18,0,0,1,.24,0c.28.22.57.42.86.62a.18.18,0,0,1,0,.25.17.17,0,0,1-.14.07Zm-1.69-1.29a.21.21,0,0,1-.11,0c-.27-.23-.54-.48-.8-.72a.18.18,0,1,1,.21-.28l0,0c.25.25.52.49.78.71a.17.17,0,0,1,0,.24h0A.17.17,0,0,1,47.85,87.59ZM46.3,86.12a.17.17,0,0,1-.12-.05c-.25-.25-.49-.52-.73-.8a.17.17,0,0,1,.26-.23h0c.24.26.48.53.72.77a.18.18,0,0,1,0,.25A.21.21,0,0,1,46.3,86.12Zm-1.4-1.61a.14.14,0,0,1-.13-.06c-.22-.28-.44-.57-.65-.86a.18.18,0,0,1,0-.24h0a.17.17,0,0,1,.24,0h0c.21.29.42.57.64.84a.18.18,0,0,1,0,.25h0A.14.14,0,0,1,44.9,84.51Zm-1.24-1.73a.16.16,0,0,1-.14-.08c-.2-.29-.38-.6-.57-.91a.16.16,0,0,1,.06-.23.18.18,0,0,1,.24,0h0l.55.9a.17.17,0,0,1,0,.24ZM42.58,81a.19.19,0,0,1-.15-.09c-.17-.32-.33-.64-.48-1a.16.16,0,0,1,.08-.22h0a.17.17,0,0,1,.23.08c.15.31.31.63.47.94a.17.17,0,0,1-.07.24ZM41.68,79a.18.18,0,0,1-.17-.11c-.13-.32-.26-.66-.37-1a.17.17,0,0,1,.1-.22h0a.19.19,0,0,1,.22.1c.12.34.25.67.37,1a.17.17,0,0,1-.09.23ZM41,77a.18.18,0,0,1-.17-.13c-.1-.34-.2-.69-.29-1a.18.18,0,0,1,.13-.21.18.18,0,0,1,.21.12c.08.34.18.68.28,1A.18.18,0,0,1,41,77h0Z"/><path class="cls-2" d="M50.9,89.7l-.08,0c-.16-.08-.31-.17-.46-.26a.18.18,0,0,1-.07-.23h0a.16.16,0,0,1,.23-.06h0l.45.25a.17.17,0,0,1,.07.24A.16.16,0,0,1,50.9,89.7Z"/><path class="cls-2" d="M65.9,39.66a.16.16,0,0,1-.17-.17.17.17,0,0,1,.17-.17c.18,0,.35,0,.52,0a.18.18,0,0,1,.18.17.17.17,0,0,1-.15.18h0l-.51,0Z"/><path class="cls-2" d="M50.83,44.92a.16.16,0,0,1-.14-.07.17.17,0,0,1,0-.24c.28-.2.56-.38.84-.57a.17.17,0,1,1,.19.29h0l-.83.56A.17.17,0,0,1,50.83,44.92Zm1.69-1.1a.16.16,0,0,1-.17-.16.16.16,0,0,1,.08-.16l.88-.51a.19.19,0,0,1,.24.07.17.17,0,0,1-.06.23h0l-.87.5Zm1.77-1a.15.15,0,0,1-.15-.1.16.16,0,0,1,.07-.23c.3-.16.61-.3.92-.44a.17.17,0,1,1,.14.31c-.3.14-.6.28-.9.44ZM56.12,42a.19.19,0,0,1-.16-.11.19.19,0,0,1,.09-.23c.32-.13.63-.26,1-.37a.17.17,0,0,1,.22.1.17.17,0,0,1-.09.22h0l-.93.38ZM58,41.27a.18.18,0,0,1-.16-.11.17.17,0,0,1,.1-.22h0l1-.31a.18.18,0,0,1,.22.11h0A.18.18,0,0,1,59,41l-1,.31Zm1.93-.59a.17.17,0,0,1-.16-.13.16.16,0,0,1,.11-.21h0c.32-.09.65-.18,1-.25a.17.17,0,0,1,.21.12.17.17,0,0,1-.13.21h0l-1,.25Zm2-.47a.16.16,0,0,1-.16-.14.17.17,0,0,1,.13-.2l1-.19a.19.19,0,0,1,.2.14.17.17,0,0,1-.13.2h0l-1,.18Zm2-.34a.16.16,0,0,1-.17-.15.16.16,0,0,1,.14-.19l1-.13a.19.19,0,0,1,.18.18.17.17,0,0,1-.14.17c-.34,0-.67.07-1,.12Z"/><path class="cls-2" d="M49.59,45.84a.17.17,0,0,1-.14-.06.17.17,0,0,1,0-.24h0l.41-.32a.18.18,0,1,1,.21.28l-.41.31A.14.14,0,0,1,49.59,45.84Z"/><path class="cls-2" d="M118.74,69.91a.19.19,0,0,1-.14-.07.17.17,0,0,1,0-.24h0l.25-.19a.18.18,0,0,1,.24,0,.17.17,0,0,1,0,.24l-.25.19A.23.23,0,0,1,118.74,69.91Zm1.07-.82a.15.15,0,0,1-.13-.07.17.17,0,0,1,0-.24l.8-.65a.16.16,0,0,1,.24,0,.17.17,0,0,1,0,.24h0q-.39.35-.81.66A.15.15,0,0,1,119.81,69.09Zm1.59-1.34a.18.18,0,0,1-.13-.06.2.2,0,0,1,0-.25c.26-.23.51-.46.75-.7a.18.18,0,0,1,.25,0,.17.17,0,0,1,0,.24h0l-.75.71A.16.16,0,0,1,121.4,67.75Zm1.5-1.45a.17.17,0,0,1-.12-.29l.71-.75a.18.18,0,0,1,.26.24c-.24.25-.48.51-.72.74a.18.18,0,0,1-.13.08Zm1.4-1.54a.15.15,0,0,1-.11,0,.16.16,0,0,1,0-.24h0c.22-.26.44-.53.65-.8a.17.17,0,0,1,.27.21c-.21.27-.43.55-.66.81a.16.16,0,0,1-.13.06Zm1.28-1.64a.15.15,0,0,1-.1,0,.17.17,0,0,1,0-.24c.2-.28.39-.56.58-.85a.18.18,0,0,1,.24,0,.18.18,0,0,1,0,.24c-.19.29-.39.58-.59.86A.16.16,0,0,1,125.58,63.12Zm1.14-1.73a.16.16,0,0,1-.09,0,.17.17,0,0,1-.06-.23q.27-.45.51-.9a.17.17,0,0,1,.24-.07.18.18,0,0,1,.07.23c-.17.31-.34.61-.52.91A.19.19,0,0,1,126.72,61.39Zm1-1.83a.18.18,0,0,1-.17-.18.15.15,0,0,1,0-.07c.15-.31.3-.63.43-.94a.17.17,0,0,1,.23-.09.16.16,0,0,1,.09.22h0c-.14.31-.28.64-.43,1a.18.18,0,0,1-.16.1Zm.81-1.91h-.06a.19.19,0,0,1-.1-.23c.12-.32.23-.65.33-1a.17.17,0,1,1,.33.11q-.15.5-.33,1a.21.21,0,0,1-.15.11Zm.62-2h0a.19.19,0,0,1-.13-.21c.09-.34.16-.67.23-1a.18.18,0,0,1,.21-.13.17.17,0,0,1,.13.2h0c-.06.34-.14.68-.23,1a.17.17,0,0,1-.17.13Zm.41-2h0a.17.17,0,0,1-.15-.18h0c.05-.34.09-.69.12-1a.18.18,0,0,1,.19-.16.17.17,0,0,1,.16.19c0,.34-.08.69-.13,1a.16.16,0,0,1-.17.14Zm.19-2.07h0a.17.17,0,0,1-.16-.18h0v-1a.17.17,0,0,1,.16-.18h0a.18.18,0,0,1,.17.17v.23c0,.28,0,.55,0,.82a.16.16,0,0,1-.16.16Zm0-2.07a.17.17,0,0,1-.17-.16c0-.34-.05-.69-.09-1a.17.17,0,0,1,.34,0h0c0,.34.07.7.09,1a.17.17,0,0,1-.16.19Zm-.23-2.07a.16.16,0,0,1-.17-.14c0-.34-.12-.68-.19-1a.17.17,0,0,1,.13-.2.17.17,0,0,1,.21.13h0c.07.34.14.69.19,1a.19.19,0,0,1-.14.2h0Z"/><path class="cls-2" d="M119.26,35l-.09,0c-.29-.19-.59-.38-.89-.54a.16.16,0,0,1-.06-.23h0a.18.18,0,0,1,.24-.07l.89.54a.18.18,0,0,1,.06.24A.19.19,0,0,1,119.26,35Zm-1.8-1h-.09c-.3-.16-.61-.32-.92-.46a.17.17,0,0,1-.08-.23.18.18,0,0,1,.23-.09l.94.47a.18.18,0,0,1,.07.23.18.18,0,0,1-.15.1ZM115.59,33h-.07c-.32-.13-.64-.26-1-.37a.18.18,0,0,1-.13-.21.17.17,0,0,1,.21-.14l0,0,1,.38a.17.17,0,0,1-.06.33Zm-2-.75h0l-1-.31a.16.16,0,0,1-.11-.21h0a.16.16,0,0,1,.2-.12h0l1,.31a.19.19,0,0,1,.11.23.2.2,0,0,1-.18.12Zm-2-.58h0c-.33-.09-.67-.17-1-.24a.18.18,0,0,1-.13-.21.18.18,0,0,1,.21-.13h0c.34.07.67.15,1,.24a.18.18,0,0,1,.13.21.18.18,0,0,1-.18.14Zm-2-.45h0l-1-.16a.19.19,0,0,1-.15-.2.18.18,0,0,1,.2-.15l1,.17a.17.17,0,0,1,.14.19h0a.17.17,0,0,1-.18.15ZM107.56,31h0l-1-.09a.17.17,0,0,1-.16-.19h0a.16.16,0,0,1,.16-.16h0c.35,0,.7.05,1,.09a.17.17,0,0,1,.14.21.18.18,0,0,1-.16.14Z"/></g></g><g id="freepik--speech-bubbles--inject-2"><g id="freepik--speach-bubble--inject-2"><path class="cls-3" d="M134.9,38.66l2.94-1.7a.28.28,0,0,0,.14-.12l.54-1-1.75-1,0,.15Z"/><g class="cls-5"><path d="M134.9,38.66l2.94-1.7a.28.28,0,0,0,.14-.12l.54-1-1.75-1,0,.15Z"/></g><path class="cls-3" d="M137,35l-2,3.52a.3.3,0,0,1-.41.12.39.39,0,0,1-.14-.17l-2.15-6.2Z"/><path class="cls-3" d="M116.12,9.82a3.14,3.14,0,0,1,1.42-2.46h0a3.09,3.09,0,0,1,2.84,0l23,13.27a3.13,3.13,0,0,1,1.42,2.46V34.75a3.15,3.15,0,0,1-1.42,2.47h0a3.16,3.16,0,0,1-2.84,0L117.41,23.84a2.2,2.2,0,0,1-1.29-2.36Z"/><path class="cls-6" d="M137.17,26.94,120.73,17.4c-.47-.27-.86-.15-.86.28a1.73,1.73,0,0,0,.86,1.28l16.44,9.53c.48.28.86.15.86-.27A1.73,1.73,0,0,0,137.17,26.94Z"/><path class="cls-6" d="M132.19,27.38l-11.46-6.65c-.47-.27-.86-.14-.86.28a1.73,1.73,0,0,0,.86,1.28l11.46,6.64c.48.28.86.15.86-.28A1.72,1.72,0,0,0,132.19,27.38Z"/><path class="cls-6" d="M137.17,23.58,120.73,14c-.47-.28-.86-.15-.86.28a1.73,1.73,0,0,0,.86,1.28l16.44,9.53c.48.28.86.15.86-.28A1.72,1.72,0,0,0,137.17,23.58Z"/><path class="cls-7" d="M144.82,34.75a3.13,3.13,0,0,1-1.42,2.46h0a3.16,3.16,0,0,1-2.62.12c.67.26,1.18-.13,1.18-.94V24.73a2.85,2.85,0,0,0-.41-1.4l2.84-1.64a3,3,0,0,1,.42,1.4Z"/><path class="cls-8" d="M116.17,9.41c.16-.61.71-.8,1.37-.42l23,13.28a2.83,2.83,0,0,1,1,1.06l2.84-1.64a2.83,2.83,0,0,0-1-1.06l-23-13.28a3.18,3.18,0,0,0-2.85,0h0A3.11,3.11,0,0,0,116.17,9.41Z"/></g><g id="freepik--speach-bubble--inject-2-2" data-name="freepik--speach-bubble--inject-2"><path class="cls-3" d="M28.73,29.74l-2.81-1.62a.33.33,0,0,1-.14-.12l-.52-.91,1.67-1-.05.15Z"/><g class="cls-9"><path class="cls-10" d="M28.73,29.74l-2.81-1.62a.33.33,0,0,1-.14-.12l-.52-.91,1.67-1-.05.15Z"/></g><path class="cls-3" d="M26.68,26.28l1.95,3.37a.28.28,0,0,0,.39.11.29.29,0,0,0,.13-.16l2.06-5.94Z"/><path class="cls-11" d="M26.68,26.28l1.95,3.37a.28.28,0,0,0,.39.11.29.29,0,0,0,.13-.16l2.06-5.94Z"/><path class="cls-3" d="M34.08,9.32A3,3,0,0,0,32.72,7h0A3,3,0,0,0,30,7L8,19.66A3,3,0,0,0,6.63,22V33.17A3,3,0,0,0,8,35.52H8a3,3,0,0,0,2.72,0L32.85,22.73a2.11,2.11,0,0,0,1.23-2.25Z"/><path class="cls-11" d="M34.08,9.32V20.46a2.07,2.07,0,0,1-1.23,2.25L10.71,35.52l-.24.11h-.06l-.06,0h0c-.6.17-1-.2-1-.93V23.57a2.78,2.78,0,0,1,.39-1.34h0a2.77,2.77,0,0,1,1-1l22-12.7c.63-.37,1.15-.17,1.31.4a3,3,0,0,0-.2-.66A2.51,2.51,0,0,1,34.08,9.32Z"/><path class="cls-12" d="M6.63,33.17A3,3,0,0,0,8,35.52H8a3.06,3.06,0,0,0,2.48.12c-.64.24-1.12-.13-1.12-.9V23.59a2.76,2.76,0,0,1,.4-1.34L7,20.67A2.69,2.69,0,0,0,6.63,22Z"/><path class="cls-13" d="M34,8.93c-.15-.58-.68-.75-1.3-.4l-22,12.7a2.66,2.66,0,0,0-1,1L7,20.67a2.77,2.77,0,0,1,1-1L30,7a3,3,0,0,1,2.72,0h0A3,3,0,0,1,34,8.93Z"/><path class="cls-6" d="M13,26.24l15.71-9.12c.46-.26.83-.14.83.27a1.65,1.65,0,0,1-.83,1.22L13,27.73c-.45.26-.82.14-.82-.27A1.64,1.64,0,0,1,13,26.24Z"/><path class="cls-6" d="M13,29.47l11-6.36c.45-.26.83-.14.83.27A1.68,1.68,0,0,1,24,24.6L13,31c-.45.26-.82.15-.82-.27A1.64,1.64,0,0,1,13,29.47Z"/><path class="cls-6" d="M13,23,28.71,13.9c.46-.26.83-.14.83.27a1.64,1.64,0,0,1-.83,1.22L13,24.52c-.45.26-.82.14-.82-.27A1.61,1.61,0,0,1,13,23Z"/></g><g id="freepik--speach-bubble--inject-2-3" data-name="freepik--speach-bubble--inject-2"><path class="cls-6" d="M74.76,4.21a.32.32,0,0,0-.19,0H71.16L69.76,5V9.82L71.16,9,72.38,7.6v3.74l1.41-.81,3.69-4.26a.39.39,0,0,0,0-.53l-.06,0Z"/><path class="cls-14" d="M72.38,11.35l1.41-.81,3.69-4.26a.38.38,0,0,0,0-.53.4.4,0,0,0-.23-.08H73.79l-1.41.81Z"/><path class="cls-14" d="M73.79,2.8A2.82,2.82,0,0,0,72.53.62h0a2.75,2.75,0,0,0-2.5,0L49.74,12.33a2.8,2.8,0,0,0-1.26,2.17V24.79A2.8,2.8,0,0,0,49.74,27h0a2.82,2.82,0,0,0,2.5,0L72.65,15.17a1.94,1.94,0,0,0,1.13-2.09Z"/><path class="cls-15" d="M48.48,24.79A2.8,2.8,0,0,0,49.74,27h0a2.81,2.81,0,0,0,2.29.1c-.59.22-1-.12-1-.83V16a2.53,2.53,0,0,1,.37-1.23l-2.52-1.45a2.57,2.57,0,0,0-.38,1.23Z"/><path class="cls-6" d="M73.75,2.44c-.15-.53-.63-.7-1.21-.37L52.24,13.78a2.49,2.49,0,0,0-.88.94l-2.52-1.45a2.53,2.53,0,0,1,.88-.93L70,.63a2.78,2.78,0,0,1,2.51,0h0A2.75,2.75,0,0,1,73.75,2.44Z"/><path class="cls-3" d="M55.08,18.05l14.5-8.41c.42-.24.75-.13.75.25A1.55,1.55,0,0,1,69.58,11l-14.5,8.42c-.42.24-.75.13-.75-.25A1.52,1.52,0,0,1,55.08,18.05Z"/><path class="cls-3" d="M59.47,18.48l10.1-5.85c.42-.24.75-.13.75.25A1.5,1.5,0,0,1,69.57,14l-10.1,5.85c-.42.25-.75.14-.75-.24A1.54,1.54,0,0,1,59.47,18.48Z"/><path class="cls-3" d="M55.08,15.09l14.5-8.41c.42-.24.75-.13.75.25a1.53,1.53,0,0,1-.75,1.12l-14.5,8.41c-.42.25-.75.14-.75-.24A1.54,1.54,0,0,1,55.08,15.09Z"/></g></g><g id="freepik--character-3--inject-2"><g id="freepik--Character--inject-2"><g id="freepik--character--inject-2-2" data-name="freepik--character--inject-2"><path class="cls-3" d="M140.17,59.49c1.93-.43,4.12.37,5.57,3.46s5.48,11.63,5.57,13.71-8.69,8.88-8.44,8.76c.07,0-2-4.15-2-4.15l4.47-5.56-2.53-5Z"/></g><g id="freepik--character--inject-2-3" data-name="freepik--character--inject-2" class="cls-16"><path d="M140.17,59.49c1.93-.43,4.12.37,5.57,3.46s5.48,11.63,5.57,13.71-8.69,8.88-8.44,8.76c.07,0-2-4.15-2-4.15l4.47-5.56-2.53-5Z"/></g><path class="cls-15" d="M143.53,129.45c.26.1.4.58.52,1.76.07.75.32,1.7-.8,2.29a2.79,2.79,0,0,1-2.62,0c-1-.6-1.45-1.71-2.58-2.6s-2.25-1.35-3.05-2.77-.67-2.36,1-2.36c2.65,0,3.45,1.46,4.81,1.5C141.52,127.25,143.27,129.36,143.53,129.45Z"/><path class="cls-17" d="M143.53,128.87v1.19c0,.58-2.47,1.45-3.17.12-.05-.11-.32-1.74-.32-1.74Z"/><path class="cls-15" d="M132.06,136.38s.47,0,.65,1.92a8.08,8.08,0,0,1,0,2.78c-.24.53-1.6.78-3.12.92a8.23,8.23,0,0,0-3.2,1.24,7,7,0,0,1-3.25.9,5.55,5.55,0,0,1-3.67-1c-.55-.43-1.24-1.33-.73-2a1.41,1.41,0,0,1,.76-.4c.64-.24,1.29-.46,1.94-.67a19.51,19.51,0,0,0,2.84-1.08,12.57,12.57,0,0,0,3.84-2.53Z"/><path class="cls-17" d="M132.05,135.39v1.39c0,.5-.58,1.26-2.13,1.21-1.08,0-1.84-.32-1.8-1.21v-1.29Z"/><path class="cls-14" d="M144.22,113.09a31.43,31.43,0,0,0-1.44-6.19s.4-5.35.58-10.42a135,135,0,0,0-.43-15.58s-17.24-1.63-17.52,4.7.13,22.45.35,25.22.45,5.39,1,10.56c.5,4.46,1.32,14.13,1.32,14.13a4.15,4.15,0,0,0,3.93-.1s1.3-13,1.45-16.19a16.09,16.09,0,0,0-.78-6.46s.38-2.62,1-8c.45-3.8,1.05-8.13,1.05-8.13s.6,5.36.95,8.35c.33,2.77.9,5,1.73,10.12.72,4.49,2.69,14,2.69,14a2.9,2.9,0,0,0,3.36-.17S144.79,117,144.22,113.09Z"/><path d="M134.78,96.63l.82-5.29a12.82,12.82,0,0,0,5.06-3.07,7.14,7.14,0,0,1-4,3.57l-1.26,4.46-.21,3.68Z"/><polygon class="cls-17" points="131.96 57.95 132.76 63.6 137.85 63.42 137.36 56.81 131.96 57.95"/><path class="cls-18" d="M128.3,51s-1.36,2-1.21,2.2,1.12.39,1.12.39Z"/><path class="cls-15" d="M128.75,52.27a1.66,1.66,0,1,1,1.69-1.64A1.66,1.66,0,0,1,128.75,52.27Zm.05-3a1.29,1.29,0,1,0,1.27,1.31,1.29,1.29,0,0,0-1.27-1.31Z"/><path class="cls-17" d="M132.09,45.42c-2.7.53-3.5,1.7-3.82,6-.34,4.47.09,5.89.67,6.5.4.41,2.6.52,3.72.23,1.4-.37,4.56-1.43,6.08-3.65,1.77-2.62,2.29-6.21.45-7.71C136.61,44.66,133.19,45.21,132.09,45.42Z"/><path class="cls-18" d="M132,58.25c-1.17.13-2.73,0-3.06-.34a8,8,0,0,0,2.9-.57Z"/><path class="cls-15" d="M127.29,46.49a1.67,1.67,0,0,0,.38,1.07,1.88,1.88,0,0,0,1.84.54,1.24,1.24,0,0,0,1.42,1.66c-.13,0,.21,1,.25,1.12a1.37,1.37,0,0,0,.71.87s.47-1.73,1.93-1.5,1.63,2.12.69,3.24-1.8.68-1.8.68a7.59,7.59,0,0,0,1.08,3.89,7.39,7.39,0,0,0,3.55,0,7.49,7.49,0,0,0,4.3-3.86c1.84-3.93,2-7.48-.49-8.58-.09-.05-.13-.54-.16-.64a2.88,2.88,0,0,0-.33-.79,3.25,3.25,0,0,0-1.4-1.22,7.17,7.17,0,0,0-2.66-.57,16.63,16.63,0,0,1-2.73-.28c-.8-.18-1.56-.53-2.34-.78a4.62,4.62,0,0,0-2.44-.24,2.18,2.18,0,0,0-1.71,1.59,2.85,2.85,0,0,0,.9,2.33,1.58,1.58,0,0,0-1,1.49Z"/><path class="cls-15" d="M140.81,46.49l1.63-.93a.94.94,0,0,0-1.63.93Z"/><path class="cls-15" d="M131.88,52.71l.08-1.87a.94.94,0,1,0-.23,1.87Z"/><polygon class="cls-15" points="127.28 50.24 132.28 50.97 132.08 51.31 127.27 50.62 127.28 50.24"/><path class="cls-3" d="M143.47,62.62c-.6-2.32-1.44-3.08-3.46-3.13a24.77,24.77,0,0,0-3.1.39c-.22,1-2.75,1.65-5.32,1.13-.75.22-2.78.77-3.41,1-1.82.66-2.7,2.55-2.82,8.54,0,0-.34,14.18,0,16.64a22.17,22.17,0,0,0,12,1.12c5.46-1.23,6.11-3.5,6.11-3.5s-.28-5.69-.47-10c.27-2.75.68-4.83.83-7A18.33,18.33,0,0,0,143.47,62.62Z"/><g class="cls-19"><path d="M143.47,62.62c-.6-2.32-1.44-3.08-3.46-3.13a24.77,24.77,0,0,0-3.1.39c-.22,1-2.75,1.65-5.32,1.13-.75.22-2.78.77-3.41,1-1.82.66-2.7,2.55-2.82,8.54,0,0-.34,14.18,0,16.64a22.17,22.17,0,0,0,12,1.12c5.46-1.23,6.11-3.5,6.11-3.5s-.28-5.69-.47-10c.27-2.75.68-4.83.83-7A18.33,18.33,0,0,0,143.47,62.62Z"/></g><path class="cls-3" d="M137.48,58.41l0,.55s-.27.75-1.81,1c-2.6.49-3.51-.32-3.51-.32l-.06-.47s-.25-.1-.67.23a22.63,22.63,0,0,0-1.8,2.1s.5-.15,2.12.54a7.71,7.71,0,0,0,5.06.19,2.78,2.78,0,0,0,1.85-2.07C138.77,59.73,137.92,58.22,137.48,58.41Z"/><path class="cls-20" d="M137.48,58.41l0,.55s-.27.75-1.81,1c-2.6.49-3.51-.32-3.51-.32l-.06-.47s-.25-.1-.67.23a22.63,22.63,0,0,0-1.8,2.1s.5-.15,2.12.54a7.71,7.71,0,0,0,5.06.19,2.78,2.78,0,0,0,1.85-2.07C138.77,59.73,137.92,58.22,137.48,58.41Z"/><path class="cls-17" d="M127.6,62.23c-2.16.42-4.06,1.41-4,4A28.72,28.72,0,0,1,122,75.84c-.67,2.13-6.22,8.5-7.59,8.89s-3.33-.46-3.81.23,1.41,1.53,1.5,1.87-2.32,1.28-3.77,1-1.1,1.53,1.09,2.51,4.9-.14,7.5-2.09,7.81-6.1,9.15-9a28.11,28.11,0,0,0,2.74-9.24C129.11,64.92,127.6,62.23,127.6,62.23Z"/><path class="cls-3" d="M127.86,62.1a5.68,5.68,0,0,0-3.58,1.34c-1.15,1.12-1.3,3-1.61,6.57a28.89,28.89,0,0,1-1,5.61c-.27.92-4.07,6.2-4.07,6.2a18.83,18.83,0,0,0,3.1,3.54,38.61,38.61,0,0,0,5.27-5.29c1.78-2.42,3-9.26,3-9.26S129.82,65.57,127.86,62.1Z"/><path class="cls-20" d="M127.86,62.1a5.68,5.68,0,0,0-3.58,1.34c-1.15,1.12-1.3,3-1.61,6.57a28.89,28.89,0,0,1-1,5.61c-.27.92-4.07,6.2-4.07,6.2a18.83,18.83,0,0,0,3.1,3.54,38.61,38.61,0,0,0,5.27-5.29c1.78-2.42,3-9.26,3-9.26S129.82,65.57,127.86,62.1Z"/><path class="cls-3" d="M117.74,81.58a10.19,10.19,0,0,0,3.2,3.55A23.25,23.25,0,0,1,119,86.6a5.81,5.81,0,0,1-3-3.18Z"/><path class="cls-21" d="M117.74,81.58a10.19,10.19,0,0,0,3.2,3.55A23.25,23.25,0,0,1,119,86.6a5.81,5.81,0,0,1-3-3.18Z"/><path class="cls-15" d="M117.07,83.29a.28.28,0,0,0,.38.09.29.29,0,0,0,.12-.33.29.29,0,0,0-.36-.17.28.28,0,0,0-.17.35Z"/></g></g><g id="freepik--character-2--inject-2"><g id="freepik--character--inject-2-4" data-name="freepik--character--inject-2"><path class="cls-15" d="M80.62,15h5.73A8.35,8.35,0,0,0,94.7,6.65h0A6.65,6.65,0,0,0,88.05,0h-.78a6.65,6.65,0,0,0-6.65,6.65h0Z"/><path class="cls-22" d="M80,19.6c-1.41,2.69-2.75,6-3.79,7a43.93,43.93,0,0,1-8.33,2.88,1.36,1.36,0,0,1-.92-.21,7.43,7.43,0,0,0-2-.81c-.59-.2-.84-.49-1-.37a.66.66,0,0,0,.06.93,5,5,0,0,0,.94.71,5.72,5.72,0,0,1-2.47,0c-1.58-.42-2.32.34-1.25,2.05.37.62,1.87,1.6,4.93,1.33a27.07,27.07,0,0,0,3.23-.37c2.93-.62,6-1.53,8-2.13a5,5,0,0,0,1.93-1.35,53.4,53.4,0,0,0,6.48-9.7L84.78,16C82.4,15.86,81.17,17.3,80,19.6Z"/><path class="cls-15" d="M84.78,15.93c-1.83-.13-2.53.21-3.36,1-2,2-5.06,9.46-5.11,9.52s-2.26,1.07-2.26,1.07A6.8,6.8,0,0,1,75,31.4s2.17-.47,3-.77a3.65,3.65,0,0,0,1.78-1.35c.73-.84,4.8-5.68,4.8-5.68Z"/><g id="freepik--character--inject-2-5" data-name="freepik--character--inject-2"><path class="cls-14" d="M80.85,24.31a15.71,15.71,0,0,1,.31,4,23.8,23.8,0,0,1-1.37,5s1,.89,3.67.47c2.18-.34,1.41-6.91.15-8.19A4.12,4.12,0,0,0,80.85,24.31Z"/><path class="cls-15" d="M96,80.43a16.36,16.36,0,0,1,.24,2.62c0,1.6.33,2.16.38,3.47a3.91,3.91,0,0,1-.82,2.9c-.61.84-2.21,1.61-2.88.18a5.68,5.68,0,0,1-.37-3.82c.21-1.47.25-2.36.37-3.51s.25-1.8.25-1.8Z"/><path class="cls-22" d="M91.41,67.88l5.24-.09c-.08,3.51-.63,9.35-.72,12.64,0,.62,0,4.82-.22,6.09-.36,1.92-2.62,1.66-2.75.51s.15-6,.14-6.55c0-2.11-1-7.62-1.5-11.41A11.79,11.79,0,0,0,91.41,67.88Z"/><path class="cls-15" d="M83.68,77.7s.28,0,.32.24.06.67.17,1.12a6.34,6.34,0,0,1,.19,2.08c-.09.49-1.21,1.22-2,1.35a5.89,5.89,0,0,0-2.45,1.45,5.87,5.87,0,0,1-3.4,1.33A2.85,2.85,0,0,1,74,84.15c-.42-.7.38-.77,1.85-1.71l1.12-.75c2.31-1.5,3.16-2.32,3.81-3.83Z"/><path class="cls-22" d="M80.72,76.88c0-1.09-.51-9.09-.51-9.09l4.52.5c-1.07,6.38-1.16,8.56-1,9.49h0a1.24,1.24,0,0,1,0,.27c0,1.24-1.41,1.9-2.5,2.73a10.13,10.13,0,0,1-2.84,1.78c-.84.28-2.4.39-2.59-.12A35.3,35.3,0,0,0,80,78.94,2.65,2.65,0,0,0,80.72,76.88Z"/><path class="cls-6" d="M92.91,30a19.31,19.31,0,0,1,3.31,6.82c1.49,6-.86,18.93-.86,18.93.08.87,1.08,2.59,1.45,6.44C97.25,66.73,96,78.9,96,78.9a2.92,2.92,0,0,1-3,.06s-3.18-17.88-3.74-22.4c-.5-4-1.5-12.15-1.5-12.15l-2.3,12.12s.31,2.22.48,3.9c.25,2.66-2.34,16-2.34,16a3.64,3.64,0,0,1-2.93-.06s-1.14-17.25-1.39-20.45.61-11,1.24-17.1c.2-1.84,1.07-6.73,1.4-8.33Z"/><path class="cls-23" d="M87.79,44.41l-.54-3.74a9.27,9.27,0,0,1-4.4-1.42,5.59,5.59,0,0,0,3.68,2.06l.34,3.34L85.79,55.06Z"/><path class="cls-3" d="M81.76,26c.06,1.1.22,4.49.22,4.49,4.49,3,10.93-.51,10.93-.51l.94-6.36a6.26,6.26,0,0,1-.15-6.73l-3.5-.69L86,15.86l-1.24.06a14.68,14.68,0,0,0-3.91,4.33A5.34,5.34,0,0,0,81.76,26Z"/><g class="cls-24"><path class="cls-10" d="M81.76,26c.06,1.1.22,4.49.22,4.49,4.49,3,10.93-.51,10.93-.51l.94-6.36a6.26,6.26,0,0,1-.15-6.73l-3.5-.69L86,15.86l-1.24.06a14.68,14.68,0,0,0-3.91,4.33A5.34,5.34,0,0,0,81.76,26Z"/></g><path class="cls-14" d="M90.42,16.27a27.07,27.07,0,0,1,4.72.53c.75.36,2,2.52.88,5.67s-2.14,6.85-2,7.59,2.79,4.59,2.79,4.59a7.36,7.36,0,0,1-2.46,1.18l-1.37-3L93.28,36a16.38,16.38,0,0,1-4.23.45S87.62,24.41,90.42,16.27Z"/></g><path class="cls-15" d="M92.74,0l-.46,1.74a.87.87,0,0,0,1.11-.55s0,0,0-.06A.94.94,0,0,0,92.74,0Z"/><path class="cls-15" d="M94.23,1.59l-1.8.06a.88.88,0,0,0,.86.89h0A1,1,0,0,0,94.23,1.59Z"/><path class="cls-22" d="M83.23,3.16c-.75.44-1.66,2.31-1.57,6.23.08,3.32,1.15,4.15,1.69,4.38a5.54,5.54,0,0,0,2.6-.08v2s-1.4,1.63-1.31,2.54,2,1.13,3.34.24a8.53,8.53,0,0,0,2.15-2.25V11.05s.55.59,1.54-.09a1.82,1.82,0,0,0,.54-2.51,1,1,0,0,1-.08-.11,1.34,1.34,0,0,0-1.89.07.9.9,0,0,0-.15.18,10,10,0,0,1-3.51-1.3A7,7,0,0,1,83.23,3.16Z"/><path class="cls-15" d="M85.74,8.56a.42.42,0,0,0,.42.42.42.42,0,0,0,.42-.42.43.43,0,0,0-.4-.42.43.43,0,0,0-.44.42Z"/><path class="cls-25" d="M85.26,11.37l-1,.31a.51.51,0,0,0,.62.36h0A.54.54,0,0,0,85.26,11.37Z"/><path class="cls-15" d="M82,7.27l.85-.58a.5.5,0,0,0-.69-.16h0A.55.55,0,0,0,82,7.27Z"/><path class="cls-15" d="M82.23,8.25a.42.42,0,0,0,.84,0,.42.42,0,0,0-.4-.43A.44.44,0,0,0,82.23,8.25Z"/><polygon class="cls-25" points="84.55 8.02 84.48 10.53 83.16 10.12 84.55 8.02"/><path class="cls-25" d="M86,13.69c1.07-.13,3.27-.77,3.61-1.63a2.23,2.23,0,0,1-.77,1.12A11.63,11.63,0,0,1,86,14.38Z"/><path class="cls-22" d="M102.34,30.63c-.69-2.7-3.62-8.61-4.46-10.77-.95-2.48-2.59-3.37-4.36-3.37-.65.84-.92,5.05,1.09,7.48C95.46,25.77,98,30.8,98,30.8a79.71,79.71,0,0,1-2.62,8.4,1.31,1.31,0,0,1-.67.64,13.57,13.57,0,0,0-2.35,1.7c-.49.38-.87.44-.84.59a.71.71,0,0,0,.85.45A11.18,11.18,0,0,0,94,42a17.29,17.29,0,0,1-1.57,2.14c-1.06,1.23-1,2.28,1,2.31,1.56,0,2.39-.86,3.78-3.54.39-.77.84-1.93,1.31-2.92,1.21-2.52,2-3.56,2.62-5.16C102.22,32.22,102.61,31.67,102.34,30.63Z"/><path class="cls-15" d="M92.74,16.42c2,0,3.4.16,4.53,1.81s4.63,10.38,5,11.51.64,2.06-1,4.7a8.46,8.46,0,0,1-3.89-1.37l.39-2.27-3.42-6.63A12,12,0,0,1,92.74,16.42Z"/></g></g><g id="freepik--character-1--inject-2"><g id="freepik--character--inject-2-6" data-name="freepik--character--inject-2"><path class="cls-17" d="M32.41,50.14c2.25.75,2.77.9,4.32,3.3s3,6.56,4.32,10c2.46-.7,7.65-1.91,9.36-2.9s1.54-1.69,2.24-2.33,1.66-2.52,2.32-1.54c.44.65-.48,1.1-.42,1.93s2.58-1.12,3.63-1.87c.7-.49,2.33,1,1.68,2.71a5.19,5.19,0,0,1-3.16,3.12c-1.75.74-2.66,1.12-4.87,2.09s-11.74,5.22-12.68,4.63c-2.13-1.05-4.08-7.64-5.37-10.47S33.35,53,32.41,50.14Z"/><path class="cls-14" d="M31.88,49.86c.95,1.25.56.74.85,2.68.24,1.56,3.52,16.6,6.49,17.21,1.31.28,10.72-4,13-5.29a10.83,10.83,0,0,1-1.8-4c-2.74,1.07-7.45,2.12-9.14,2.65-.79-2.19-1.75-4.43-2.65-6.64C36.92,52.33,36,49.35,31.88,49.86Z"/><rect class="cls-17" x="19.11" y="118.01" width="3.67" height="6.27"/><polygon class="cls-17" points="32.74 120.38 36.74 120.52 36.94 113.27 32.4 113.12 32.74 120.38"/><path class="cls-15" d="M19.56,75.3c0,3.34-.23,22.74-.23,22.74-.08,1-1,2.67-1.08,6.12-.1,5,.67,16.84.67,16.84a4.6,4.6,0,0,0,3.89.08s2.75-16.72,3.37-21.68c.55-4.33,2.11-15.67,2.11-15.67l2.36,14.73a25,25,0,0,0-.2,5.33c.17,2.29,1.9,13.71,1.9,13.71a7.68,7.68,0,0,0,4.67,0s.37-17.79.4-19.89c0-2.4-1-23.07-1-23.07Z"/><path class="cls-15" d="M22.78,122.47V122c.19,0,.31.19.39.66a9.86,9.86,0,0,0,.22,1,11.66,11.66,0,0,0,2.78,5.12,14.06,14.06,0,0,1,1.12,1.31c.22.39.3,1.5-.08,1.75a6.4,6.4,0,0,1-5,.51,3,3,0,0,1-2.15-2.41c-.05-.34,0-.69-.07-1a4.93,4.93,0,0,0-.91-2.13,6,6,0,0,1-.71-1.16,3.73,3.73,0,0,1,.14-2.35c.16-.65.35-1.36.57-1.3v.4a2.89,2.89,0,0,0,1.83.62C21.48,123,22.78,122.89,22.78,122.47Z"/><path class="cls-15" d="M36.78,119.29c.21,0,.37.3.83.79A8.72,8.72,0,0,0,40,121.77c1.5.75,4.41,1.91,5.73,2.5.82.38.78,1.37-.07,1.94a7.68,7.68,0,0,1-5.37.42c-1.35-.3-3.1-1.54-4.21-1.48s-3.18.06-4-.51-.49-1.77-.26-2.8.51-2.89.88-2.82v.43c.49.72,3,1,4.07.45Z"/><path d="M28.29,83.73a15.51,15.51,0,0,0,5.19-3,10.09,10.09,0,0,1-3.74,3.4L30.42,97Z"/><path class="cls-6" d="M25.59,49.81c-.75.18-2.54.4-3.85.77-1,.28-1.37,1.46-1.58,2.35a61.32,61.32,0,0,0-.74,8.81l0,13.9c2.41,1.75,12.3,2.64,17.36-1.06,0,0-.62-16.55-.62-19.12s-1.43-5.68-5.38-5.9Z"/><path class="cls-17" d="M15,69.35S18.1,74,18.62,74.61s.89.41,1.46.14A15.82,15.82,0,0,1,22.21,74c.94-.25,1.12.68.21,1.34-.67.48-1.44.68-1.12,1.08a7.22,7.22,0,0,0,2.24,1.46c2.25,1,2.35,1.54,1.93,2.32s-1.71,2.55-5.76.81c-1.67-.72-4-3.25-5.09-4.56a53.53,53.53,0,0,1-3.8-5.59Z"/><path class="cls-14" d="M21.74,50.6c-3.69-.31-4.64,1.58-7.26,6.23-2.31,4.06-5.31,9.11-5.4,11.22,0,.69,2.93,5.42,5.05,7.82a5.3,5.3,0,0,0,4-1.87c-.51-.85-3.23-5.78-3.23-5.78l4.86-7.5a9.93,9.93,0,0,0,2-4C22.41,54,22.16,51.22,21.74,50.6Z"/><path class="cls-15" d="M26.43,38.72a4.64,4.64,0,1,0,4.65-4.63h0A4.63,4.63,0,0,0,26.43,38.72Z"/><path class="cls-15" d="M23.05,42a41,41,0,0,0,1.05,4.12,1.63,1.63,0,0,0,.93.74L25,44.4Z"/><path class="cls-15" d="M24,36.45a1.91,1.91,0,0,0-1.38.6c-.61.63-.29,3,.48,5l1.42.16Z"/><path class="cls-17" d="M24.89,42.18c-.28.18-.69-.37-1-.74a1.22,1.22,0,0,0-2.06.33,2.59,2.59,0,0,0,1.4,3.12c1.55.49,1.78-.51,1.78-.51l.12,5.77h0c1.07,1.37,3.48,3,4.78,2.76,1-.19,1.26-1.93.27-3.08v-1.7a9.13,9.13,0,0,0,2.09.1,2.83,2.83,0,0,0,2.2-2.3c.56-2,.75-3.59.29-7.49-.51-4.27-5.48-4.32-8.16-2.62S24.89,42.18,24.89,42.18Z"/><path class="cls-15" d="M35.22,36.71a2.39,2.39,0,0,1-.95.94A5.67,5.67,0,0,1,31,38.3a9.92,9.92,0,0,1-3.3-1.23,2.4,2.4,0,0,1-.54,1.19,3.5,3.5,0,0,1-1.27.83c-.1.77-.09,1.75-.14,2.53,0,.26,0,1.62-.63,1.23a2.85,2.85,0,0,1-.54-.61,8.86,8.86,0,0,0-.72-.79c-.18-.16-.17-.55-.18-.77a10.77,10.77,0,0,1,0-1.39c0-.48.12-.95.16-1.43a2.18,2.18,0,0,0-.19-.79A2.47,2.47,0,0,1,25.22,34a7.69,7.69,0,0,1,4-.58,9,9,0,0,0,3.5-.13A12.39,12.39,0,0,1,34,32.78a1.73,1.73,0,0,1,1.32.08,1.57,1.57,0,0,1,.07,2.51.26.26,0,0,0-.15.14.31.31,0,0,0,0,.21A1.11,1.11,0,0,1,35.22,36.71Z"/><path class="cls-15" d="M23.67,37,22,36a1,1,0,0,1,1.27-.45l0,0A1,1,0,0,1,23.67,37Z"/><path class="cls-18" d="M30.13,48.14a19.94,19.94,0,0,1-3.44-1,3,3,0,0,1-1.23-1.22,4.28,4.28,0,0,0,.7,1.44c.65.83,4,1.44,4,1.44Z"/><path class="cls-15" d="M29.88,41.28a.56.56,0,0,1-.57.53.55.55,0,0,1,0-1.1.56.56,0,0,1,.55.56Z"/><path class="cls-15" d="M29.33,39.43l-1.12.63a.68.68,0,0,1,.26-.9.63.63,0,0,1,.86.26Z"/><path class="cls-18" d="M29.92,45l1.26.47a.66.66,0,0,1-.83.43h0A.71.71,0,0,1,29.92,45Z"/><path class="cls-15" d="M34.38,39.89l-1-.8a.63.63,0,0,1,.87-.15l0,0A.69.69,0,0,1,34.38,39.89Z"/><path class="cls-15" d="M34.15,41.18a.53.53,0,0,1-.55.5.53.53,0,0,1,0-1,.53.53,0,0,1,.53.55Z"/><polygon class="cls-18" points="31.32 40.74 31.5 44.07 33.24 43.48 31.32 40.74"/><path class="cls-3" d="M32,52.55c-.32.75-.92,1.08-2,1.21a4,4,0,0,1-3-1l1.35-1.34L30,52.66l.14-1.44Z"/><path class="cls-26" d="M32,52.55c-.32.75-.92,1.08-2,1.21a4,4,0,0,1-3-1l1.35-1.34L30,52.66l.14-1.44Z"/><path class="cls-3" d="M31.1,52.13a3.53,3.53,0,0,1,.18,1.44,2.52,2.52,0,0,1-.48,1.21,1.34,1.34,0,0,1-1.17.12,3.15,3.15,0,0,1-1.12-2.41l1.5.17Z"/><path class="cls-3" d="M30.8,54.78s1.75,9.68,1.82,10.47-1,3.56-1.67,3.58-2-2.49-2-3.2.68-10.71.68-10.71Z"/><path class="cls-14" d="M29.63,54.9a1.2,1.2,0,0,0,1.17-.12l0,.15a1.35,1.35,0,0,1-1.21.24Z"/><path class="cls-14" d="M30,52.66l-4.94-3.77v-1s-1.16.31-1.42,2.33a8.77,8.77,0,0,0,3.86,4.12l1-1.87Z"/><path class="cls-14" d="M30.13,48.38a4.55,4.55,0,0,1,1.66,1.36,10.65,10.65,0,0,1,.49,3.46l-1.19-1.07L30,52.66c.1-1,.13-2.82.13-2.82Z"/></g></g></g></g></svg>