<svg xmlns="http://www.w3.org/2000/svg" xmlns:xlink="http://www.w3.org/1999/xlink" viewBox="0 0 841.56 552.53"><defs><style>.cls-1{opacity:0.3;}.cls-2{fill:#53b848;}.cls-10,.cls-11,.cls-12,.cls-13,.cls-14,.cls-3,.cls-4,.cls-5,.cls-6,.cls-7,.cls-8,.cls-9{fill:none;stroke-miterlimit:10;stroke-width:3px;}.cls-3{stroke:url(#linear-gradient);}.cls-4{stroke:url(#linear-gradient-2);}.cls-5{stroke:url(#linear-gradient-3);}.cls-6{stroke:url(#linear-gradient-4);}.cls-7{stroke:url(#linear-gradient-5);}.cls-8{stroke:url(#linear-gradient-6);}.cls-9{stroke:url(#linear-gradient-7);}.cls-10{stroke:url(#linear-gradient-8);}.cls-11{stroke:url(#linear-gradient-9);}.cls-12{stroke:url(#linear-gradient-10);}.cls-13{stroke:url(#linear-gradient-11);}.cls-14{stroke:url(#linear-gradient-12);}</style><linearGradient id="linear-gradient" x1="388.93" y1="176.53" x2="419.4" y2="176.53" gradientTransform="translate(464.68 119.6) rotate(148.71)" gradientUnits="userSpaceOnUse"><stop offset="0" stop-color="#226332"/><stop offset="0.99" stop-color="#3e9d46"/></linearGradient><linearGradient id="linear-gradient-2" x1="353.58" y1="93.59" x2="380.26" y2="93.59" gradientTransform="matrix(1, 0, 0, 1, 0, 0)" xlink:href="#linear-gradient"/><linearGradient id="linear-gradient-3" x1="490.52" y1="196.27" x2="510.42" y2="196.27" gradientTransform="translate(27.8 -59.8) rotate(7.03)" xlink:href="#linear-gradient"/><linearGradient id="linear-gradient-4" x1="82.65" y1="385.47" x2="102.55" y2="385.47" gradientTransform="matrix(1, 0, 0, 1, 0, 0)" xlink:href="#linear-gradient"/><linearGradient id="linear-gradient-5" x1="599.17" y1="-143.64" x2="617.61" y2="-143.64" gradientTransform="translate(498.84 -596.81) rotate(89.08)" xlink:href="#linear-gradient"/><linearGradient id="linear-gradient-6" x1="515.23" y1="400.57" x2="533.67" y2="400.57" gradientTransform="translate(857.81 -168.97) rotate(82.97)" xlink:href="#linear-gradient"/><linearGradient id="linear-gradient-7" x1="724.93" y1="-195.91" x2="755.39" y2="-195.91" gradientTransform="translate(256.24 -26.59) rotate(58.71)" xlink:href="#linear-gradient"/><linearGradient id="linear-gradient-8" x1="-114.43" y1="329.54" x2="-87.75" y2="329.54" gradientTransform="translate(136.64 438.09) rotate(-90)" xlink:href="#linear-gradient"/><linearGradient id="linear-gradient-9" x1="50.54" y1="387.99" x2="70.44" y2="387.99" gradientTransform="translate(132.16 390.33) rotate(-83)" xlink:href="#linear-gradient"/><linearGradient id="linear-gradient-10" x1="-24.79" y1="18.04" x2="-4.89" y2="18.04" gradientTransform="translate(136.64 438.09) rotate(-90)" xlink:href="#linear-gradient"/><linearGradient id="linear-gradient-11" x1="783.81" y1="299.34" x2="802.25" y2="299.34" gradientTransform="translate(-460.16 -60.75) rotate(-0.92)" xlink:href="#linear-gradient"/><linearGradient id="linear-gradient-12" x1="34.63" y1="604.89" x2="53.07" y2="604.89" gradientTransform="translate(624.24 -200.79) rotate(-7)" xlink:href="#linear-gradient"/></defs><g id="Layer_2" data-name="Layer 2"><g id="OBJECTS"><g class="cls-1"><circle class="cls-2" cx="19.85" cy="192.3" r="19.85" transform="translate(-152.13 104.01) rotate(-56.93)"/><path class="cls-3" d="M15.87,185.75a13.73,13.73,0,1,1,18.87,4.61A13.72,13.72,0,0,1,15.87,185.75Z"/><circle class="cls-4" cx="366.92" cy="93.59" r="11.84"/><circle class="cls-5" cx="500.47" cy="196.27" r="8.45" transform="translate(-20.26 62.75) rotate(-7.03)"/><path class="cls-6" d="M101.05,385.47A8.45,8.45,0,1,1,92.6,377,8.45,8.45,0,0,1,101.05,385.47Z"/><path class="cls-2" d="M660.31,33.19A15,15,0,1,1,675.05,18,15,15,0,0,1,660.31,33.19Z"/><path class="cls-7" d="M652.33,16.94a7.72,7.72,0,1,1,7.6-7.84A7.71,7.71,0,0,1,652.33,16.94Z"/><circle class="cls-2" cx="533.57" cy="392.85" r="14.98" transform="translate(-118.24 511.89) rotate(-46.71)"/><circle class="cls-8" cx="524.45" cy="400.57" r="7.72" transform="translate(62.7 872.04) rotate(-82.97)"/><circle class="cls-2" cx="821.71" cy="511.98" r="19.85" transform="translate(-22.38 986.15) rotate(-61.25)"/><path class="cls-9" d="M815.16,516a13.73,13.73,0,1,1,4.61-18.87A13.74,13.74,0,0,1,815.16,516Z"/><circle class="cls-10" cx="466.19" cy="539.19" r="11.84"/><circle class="cls-11" cx="524.63" cy="377.61" r="8.45" transform="translate(-42.13 66.79) rotate(-7)"/><path class="cls-12" d="M154.68,444.49a8.45,8.45,0,1,1-8.45,8.45A8.45,8.45,0,0,1,154.68,444.49Z"/><path class="cls-2" d="M361.55,217.77A15,15,0,1,1,346.33,203,15,15,0,0,1,361.55,217.77Z"/><path class="cls-13" d="M345.3,225.75a7.72,7.72,0,1,1-7.84-7.6A7.72,7.72,0,0,1,345.3,225.75Z"/><circle class="cls-2" cx="733.81" cy="385.13" r="14.98" transform="translate(-57.4 631.69) rotate(-45)"/><circle class="cls-14" cx="741.53" cy="394.24" r="7.72" transform="translate(259.8 1082.16) rotate(-83)"/></g></g></g></svg>