<svg xmlns="http://www.w3.org/2000/svg" viewBox="0 0 186.97 152.7"><defs><style>.cls-1{fill:#69c977;}.cls-1,.cls-13,.cls-15,.cls-16,.cls-18,.cls-2,.cls-20,.cls-21,.cls-23,.cls-25,.cls-26,.cls-27,.cls-28,.cls-29,.cls-31,.cls-32,.cls-33,.cls-34,.cls-35,.cls-37,.cls-38,.cls-39,.cls-41,.cls-42,.cls-44,.cls-45,.cls-48,.cls-49,.cls-5,.cls-51,.cls-52,.cls-53,.cls-54,.cls-55,.cls-57,.cls-58,.cls-6,.cls-7,.cls-8,.cls-9{fill-rule:evenodd;}.cls-2{fill:#572222;}.cls-3,.cls-7{fill:#fff;}.cls-4{fill:#ebc1ab;}.cls-5{fill:#f2d5c8;}.cls-6{fill:#ecceb6;}.cls-8{fill:#f1d3bc;}.cls-9{fill:#e3ada0;}.cls-10{fill:#3a5f4d;}.cls-11{fill:#538663;}.cls-12{fill:#020127;}.cls-13{fill:#e87cda;}.cls-14{fill:#6c4178;}.cls-15{fill:#83a88f;}.cls-16,.cls-17{fill:#9e5ba1;}.cls-18{fill:#f28de1;}.cls-19,.cls-21{fill:#f0a794;}.cls-20,.cls-46{fill:#150015;}.cls-22,.cls-29{fill:#d6835c;}.cls-23{fill:#340026;}.cls-24,.cls-25{fill:#b13e28;}.cls-26{fill:#c05c40;}.cls-27{fill:#580500;}.cls-28{fill:#320030;}.cls-30,.cls-31{fill:#f4a97b;}.cls-32{fill:#6e636c;}.cls-33{fill:#847a84;}.cls-34{fill:#595759;}.cls-35{fill:#aea8af;}.cls-36,.cls-38{fill:#f2c6a0;}.cls-37{fill:#e0ad89;}.cls-39{fill:#cc6e4f;}.cls-40{fill:#d28d71;}.cls-41{fill:#fdf0e5;}.cls-42{fill:#401310;}.cls-43,.cls-45{fill:#90584e;}.cls-44{fill:#5f322e;}.cls-47{fill:#320300;}.cls-48{fill:#1a001a;}.cls-49{fill:#060000;}.cls-50{fill:#370b0a;}.cls-51{fill:#57c957;}.cls-52{fill:#2ea52d;}.cls-53{fill:#77c777;}.cls-54{fill:#55c05b;}.cls-55{fill:#df37e7;}.cls-56,.cls-57{fill:#7c0500;}.cls-58{fill:#871911;}</style></defs><g id="Layer_2" data-name="Layer 2"><g id="Layer_1-2" data-name="Layer 1"><path class="cls-1" d="M.4,103v-.2c0-.1.1-.2.2-.3l6.1-6.9a.65.65,0,0,1,.8-.2l30.3,16.2a.69.69,0,0,1,.3,1h0l-3.9,8.1h0l-2.6,5.4a.61.61,0,0,1-.9.3h0L.4,110.3a.67.67,0,0,1-.4-.7l.1-2.4Z"/><path class="cls-1" d="M.1,143.5v-.4l2.2-5.6a.55.55,0,0,1,.5-.3l21.8,2.7a.46.46,0,0,1,.5.4v.2l-.7,5.9h0l-.5,3.9c0,.3-.2.5-.5.4h0L1.6,148c-.2,0-.3-.2-.4-.4l-.4-1.5Z"/><path class="cls-1" d="M148.6,55.1h.1c.1,0,.1.1.2.1l4.3,4.7a.47.47,0,0,1,.1.6L141.5,82a.48.48,0,0,1-.7.1l-5.1-3.2h0l-3.4-2.1a.62.62,0,0,1-.2-.7h0l11.8-21.4a.55.55,0,0,1,.5-.3l1.6.2Z"/><path class="cls-1" d="M67.9,33.6c.1-.1.2-.1.3-.2a.6.6,0,0,1,.4-.1l12.1.1a1,1,0,0,1,.9.8L94,81.3a1,1,0,0,1-.7,1.2L82,85.8h0L74.5,88a.92.92,0,0,1-1.1-.7l-12.5-47a1.13,1.13,0,0,1,.3-1.1l2.5-2.1Z"/><path class="cls-1" d="M42.7,55c0-.1.1-.1.1-.2s.2-.1.3-.2l8.8-3.3a.81.81,0,0,1,.9.3L73.4,82.1a.8.8,0,0,1-.2,1.1h0l-7.3,5.6h0L61,92.5a.62.62,0,0,1-1-.2h0L39.4,61.8a.75.75,0,0,1,0-.9l1.3-2.2Z"/><path class="cls-1" d="M29.4,72.9c0-.1.1-.1.1-.2a.37.37,0,0,1,.3-.1l7.3-2.8a.57.57,0,0,1,.7.2L55,95.4a.74.74,0,0,1-.1.9h0l-6.1,4.6h0l-4.1,3a.65.65,0,0,1-.9-.2L26.6,78.5a.85.85,0,0,1,0-.7L27.7,76Z"/><path class="cls-1" d="M11.4,87.9l-1.3-1.1a.76.76,0,0,1-.2-.5l.3-1.4-2.5-2a.76.76,0,0,1-.2-.5l.2-.9L4.5,78.9a.76.76,0,0,1-.2-.5l.2-1.1c0-.1.1-.2.2-.3l1.1-.8a.64.64,0,0,1,.6,0l3.2,2.6,1-.7a.64.64,0,0,1,.6,0l2.5,2L15.3,79a.64.64,0,0,1,.6,0l1.3,1,2.2-1.6a.64.64,0,0,1,.6,0l29.1,23.5a.62.62,0,0,1,.1.7l-8,11.1a.49.49,0,0,1-.7.1L11.4,90.4a.76.76,0,0,1-.2-.5Z"/><path class="cls-1" d="M167.2,86.3l-.7-.8L153.4,99.1a.3.3,0,0,1-.4,0l-.5-.6a.45.45,0,0,1,0-.5l13.1-13.6-.8-.9L152.1,96.7a.3.3,0,0,1-.4,0l-.5-.6a.45.45,0,0,1,0-.5l12.5-13h-1.8L149,96a.3.3,0,0,1-.4,0l-.8-.9a.3.3,0,0,1,0-.4h0l11.6-12.2-1.6-.1-9.6,10a.3.3,0,0,1-.4,0l-.5-.6a.45.45,0,0,1,0-.5l8.7-9.1h-.4l-.9-.1-8.1,8.5a.3.3,0,0,1-.4,0l-.5-.5a.45.45,0,0,1,0-.5h0l7.4-7.7h-.6l-.8-.1L144.8,89a.3.3,0,0,1-.4,0l-.5-.5a.45.45,0,0,1,0-.5l6.2-6.4h-.4l-.8-.2-5.6,5.9a.3.3,0,0,1-.4,0h0l-.5-.6a.45.45,0,0,1,0-.5l5-5.2h-.3l-.7-.2-4.6,4.7a.3.3,0,0,1-.4,0l-.5-.6a.45.45,0,0,1,0-.5l3.9-4a54.75,54.75,0,0,1-5.8-1.5c-.1,0-.2-.2-.2-.4l.1-.7a.35.35,0,0,1,.1-.2h0l-1.6-.4c-.1,0-.2-.2-.2-.3l.9-.9a49.37,49.37,0,0,0,11.5,1.9h3.3c1.1,0,2.4-.2,3.6-.3l1.3-.2,2.7-.6a35.25,35.25,0,0,0,8.2-3.6l8.4-8.7a.3.3,0,0,1,.4,0h0l.8.9a.45.45,0,0,1,0,.5h0l-3.8,3.9,4.3,4.7,4-4.2a.3.3,0,0,1,.4,0l.8.9a.45.45,0,0,1,0,.5l-29.1,30.4a.3.3,0,0,1-.4,0h0l-.8-.9a.45.45,0,0,1,0-.5l13.5-14.4Zm1.2-1.2,3.1-3.2a12.86,12.86,0,0,1-1.9.4l-1.9,2,.7.8Zm-1.7-1.7.6-.6-1.1.1.5.5ZM164,80.6l.9,1a23.87,23.87,0,0,0,8.7-1.9l3.4-3.6-4.2-4.7L164,80.6Zm-2.1-.4,3.3-3.5a23.29,23.29,0,0,1-2.8,1.1l-3.6,3.7h1.6l1.5-1.3Zm-21-1.8,4.8,1.2.3-.3a22.77,22.77,0,0,1-5.1-.9Zm16.1,3,2.7-2.8-.4.1L158,79l-2.2,2.3h.4l.8.1Zm-3-.4,1.6-1.7h-.3l-1.1.1-1.4,1.4h.3l.9.2Zm-2.8-.4,1-1h-1.5l-.8.8.4.1.9.1Zm-2.9-.5.6-.6h-1.1l-.4.4h.3Z"/><path class="cls-1" d="M56.5,36.6a21.09,21.09,0,0,1,4.3,3.6,24.33,24.33,0,0,1,0,33h0a21.11,21.11,0,0,1-21.9,5.9h0C27.3,75.4,20.7,62.3,24.2,50S40,30.7,51.6,34.4A21.61,21.61,0,0,1,56.5,36.6ZM45.6,48a8.57,8.57,0,0,1,4.3,1.5l6.7-9.7.6-.9a20.26,20.26,0,0,0-11.5-4L45.6,48Zm4.7,1.8a8.17,8.17,0,0,1,2.6,3.9l3.5-1.2,8.2-2.8a21.63,21.63,0,0,0-7.1-10.4l-1,1.6-6.2,8.9Zm2.9,4.5a9.75,9.75,0,0,1,0,4.8l3.3,1.2,8.4,2.9a23.2,23.2,0,0,0,0-12.8l-8.4,2.8-3.3,1.2ZM53,59.7a8.68,8.68,0,0,1-2.6,3.9l6.2,9,1.1,1.5a21.17,21.17,0,0,0,7.1-10.4l-8.3-2.8ZM49.8,64a8.57,8.57,0,0,1-4.3,1.5v13a19.55,19.55,0,0,0,11.5-4l-.6-.9L49.8,64ZM45,65.4a8.57,8.57,0,0,1-4.3-1.5l-1.8,2.6-5.5,8a20.26,20.26,0,0,0,11.5,4L45,65.4Zm-4.8-1.8a8.17,8.17,0,0,1-2.6-3.9l-11.7,4A21.63,21.63,0,0,0,33,74.1l5.9-8.7,1.3-1.8Zm-2.8-4.5a9.75,9.75,0,0,1,0-4.8l-11.7-4a23.2,23.2,0,0,0,0,12.8Zm.2-5.4a8.68,8.68,0,0,1,2.6-3.9l-1.3-1.9L33,39.2a21.17,21.17,0,0,0-7.1,10.4l11.7,4.1Zm3.1-4.2A8.57,8.57,0,0,1,45,48V35a19.55,19.55,0,0,0-11.5,4l5.4,8,1.8,2.5Zm10.1,1.4a4.35,4.35,0,0,0-.7-.6L49,52a6.77,6.77,0,0,1,1.8,2.6l1.9-.7a9.07,9.07,0,0,0-1.9-3Zm-1.2-1a7.44,7.44,0,0,0-4-1.4v2.1a5.58,5.58,0,0,1,2.8,1l1.2-1.7ZM45,48.5a7.44,7.44,0,0,0-4,1.4l1.1,1.7a5.58,5.58,0,0,1,2.8-1l.1-2.1Zm-4.5,1.7c-.2.2-.5.4-.7.6a8.3,8.3,0,0,0-1.8,3l.9.3,1,.3a6.77,6.77,0,0,1,1.8-2.6l-1.2-1.6Zm-2.7,4.3a8.59,8.59,0,0,0,0,4.5l1.1-.4.8-.3a6.5,6.5,0,0,1,0-3.2l-.8-.3-1.1-.3Zm.2,5.1a9.23,9.23,0,0,0,1.8,3,4.35,4.35,0,0,0,.7.6l1.1-1.7a6.77,6.77,0,0,1-1.8-2.6l-1,.3-.8.4Zm2.9,4a7.44,7.44,0,0,0,4,1.4V62.9a5.58,5.58,0,0,1-2.8-1l-1.2,1.7Zm4.6,1.3a7.44,7.44,0,0,0,4-1.4l-1.1-1.7a5.58,5.58,0,0,1-2.8,1l-.1,2.1ZM50,63.2c.2-.2.5-.4.7-.6a8.3,8.3,0,0,0,1.8-3l-1.9-.7a6.77,6.77,0,0,1-1.8,2.6A17.67,17.67,0,0,1,50,63.2ZM52.7,59a8.59,8.59,0,0,0,0-4.5l-1.9.7a5.8,5.8,0,0,1,0,3.2Zm6.5-26.4a2,2,0,0,0-3.2,0h0l-.3,2h0a2.08,2.08,0,0,0,4,0h0l-.5-2Zm-1.8.2H56.3L56,34.5h1.5l-.1-1.7Zm.3,1.8h1.5l-.3-1.7H57.8l-.1,1.7Zm10.5,7.6a1.9,1.9,0,0,0-2.9-.3l-.3.3h0l-.3,2v.1a2.08,2.08,0,0,0,4,0v-.1l-.5-2Zm-1.7.2H65.4l-.3,1.7h1.4V42.4Zm.2,1.7h1.5l-.3-1.7H66.8l-.1,1.7Zm4.8,11.2a1.9,1.9,0,0,0-2.9-.3l-.3.3h0l-.3,2v.1a2.08,2.08,0,0,0,4,0v-.1l-.5-2Zm-1.7.2v1.7H68.3l.3-1.7Zm.3,1.7V55.5h1.1l.3,1.7ZM68.3,68.4a2,2,0,0,0-3-.3l-.3.3h0l-.3,2h0a2.1,2.1,0,0,0,2.7,1.4,2,2,0,0,0,1.3-1.4h0l-.4-2Zm-1.8.2H65.4l-.3,1.7h1.4V68.6Zm.3,1.7h1.5L68,68.6H66.9l-.1,1.7Zm-7.6,7.6a1.9,1.9,0,0,0-2.9-.3l-.3.3h0l-.3,2h0a2,2,0,0,0,2.6,1.4,2.42,2.42,0,0,0,1.4-1.4h0l-.5-2Zm-1.7.2H56.4l-.3,1.8h1.4V78.1Zm.3,1.8h1.5L59,78.2H57.9l-.1,1.7Zm1.8,3a.85.85,0,0,1,.7,0,30.52,30.52,0,0,0,9.8-10.4.65.65,0,0,1,.2-.9.6.6,0,0,1,.4-.1,31.47,31.47,0,0,0,3.6-14.2.68.68,0,0,1-.4-.8.78.78,0,0,1,.4-.4,32.22,32.22,0,0,0-3.6-14.3.73.73,0,0,1-.7-.6.6.6,0,0,1,.1-.4,29.64,29.64,0,0,0-9.8-10.4.85.85,0,0,1-.7,0,.71.71,0,0,1-.3-.6A27.66,27.66,0,0,0,45.9,26a.68.68,0,0,1-.8.4.78.78,0,0,1-.4-.4,27.77,27.77,0,0,0-13.4,3.9.6.6,0,0,1-.3.6.85.85,0,0,1-.7,0,30.52,30.52,0,0,0-9.8,10.4.65.65,0,0,1-.2.9.6.6,0,0,1-.4.1,32.22,32.22,0,0,0-3.6,14.3.68.68,0,0,1,.4.8.78.78,0,0,1-.4.4,31.8,31.8,0,0,0,3.6,14.2.73.73,0,0,1,.7.6.6.6,0,0,1-.1.4A29.64,29.64,0,0,0,30.3,83a.85.85,0,0,1,.7,0,.71.71,0,0,1,.3.6,27.66,27.66,0,0,0,13.4,3.8.68.68,0,0,1,.8-.4.78.78,0,0,1,.4.4,27.66,27.66,0,0,0,13.4-3.8,1.08,1.08,0,0,1,.3-.7Zm0,1.1a.85.85,0,0,0,.7,0,.78.78,0,0,0,.3-.7,30.81,30.81,0,0,0,10-10.6.71.71,0,0,0,.6-.3.85.85,0,0,0,0-.7,32.82,32.82,0,0,0,3.7-14.5.63.63,0,0,0,.3-.9,1.38,1.38,0,0,0-.3-.4,32.74,32.74,0,0,0-3.7-14.4.85.85,0,0,0,0-.7c-.1-.2-.4-.4-.6-.3a30.81,30.81,0,0,0-10-10.6.91.91,0,0,0-.3-.7.85.85,0,0,0-.7,0,27.82,27.82,0,0,0-13.7-3.9.68.68,0,0,0-.8-.4c-.2.1-.3.2-.3.4a28.91,28.91,0,0,0-13.7,3.9.85.85,0,0,0-.7,0,.78.78,0,0,0-.3.7,30.81,30.81,0,0,0-10,10.6.71.71,0,0,0-.6.3.85.85,0,0,0,0,.7A32.82,32.82,0,0,0,15.8,56a.63.63,0,0,0-.3.9,1.38,1.38,0,0,0,.3.4,31.53,31.53,0,0,0,3.7,14.5.85.85,0,0,0,0,.7c.1.2.4.4.6.3a30.5,30.5,0,0,0,10,10.5.91.91,0,0,0,.3.7.85.85,0,0,0,.7,0,27.82,27.82,0,0,0,13.7,3.9.68.68,0,0,0,.8.4c.2-.1.3-.2.3-.4A28.42,28.42,0,0,0,59.6,84ZM31.3,32.6h0l-.3,2h0A2,2,0,0,0,33.6,36,2.42,2.42,0,0,0,35,34.6h0l-.3-2h0a2.09,2.09,0,0,0-1.6-.8,2.2,2.2,0,0,0-1.8.8Zm1.7.2v1.7h1.5l-.3-1.7Zm-.2,1.8V32.9H31.7l-.3,1.7ZM22.3,42.2h0l-.3,2v.1a2.23,2.23,0,0,0,2,1.6,2.13,2.13,0,0,0,2-1.5v-.1l-.3-2h0a1.9,1.9,0,0,0-2.9-.3.59.59,0,0,0-.5.2Zm1.7.2v1.7h1.5l-.3-1.7Zm-.2,1.7V42.4H22.7l-.3,1.7ZM18.9,55.3a1.9,1.9,0,0,1,2.9-.3l.3.3h0l.3,2v.1a2.08,2.08,0,0,1-4,0v-.1l.5-2Zm1.8.2h1.1l.3,1.7H20.6V55.5Zm-.2,1.7H19l.4-1.8h1.1v1.8Zm1.8,11.2h0l-.3,2h0a2.1,2.1,0,0,0,2.7,1.4A2,2,0,0,0,26,70.4h0l-.3-2h0a2,2,0,0,0-3-.3,1.38,1.38,0,0,0-.4.3Zm1.8.2v1.7h1.4l-.3-1.7Zm-.3,1.7V68.6H22.7l-.3,1.7ZM31.3,78h0L31,80h0a2,2,0,0,0,2.6,1.4A2.42,2.42,0,0,0,35,80h0l-.3-2h0a1.9,1.9,0,0,0-2.9-.3c-.2,0-.3.1-.5.3Zm1.8.2v1.7h1.5l-.3-1.7Zm-.3,1.7V78.2H31.7l-.3,1.7Zm10.9,1.6a2,2,0,0,1,3-.3l.3.3h0l.3,2h0a2,2,0,0,1-2.6,1.4,2,2,0,0,1-1.3-1.4h0l.3-2Zm1.7.2h1.1l.2,1.7H45.3l.1-1.7Zm-.3,1.7H43.6l.3-1.7H45l.1,1.7ZM43.6,29.1a1.9,1.9,0,0,1,2.9-.3l.3.3h0l.3,2h0a2.1,2.1,0,0,1-2.7,1.4,2,2,0,0,1-1.3-1.4h0l.5-2Zm1.8.2h1.1l.3,1.7H45.4V29.3Zm-.3,1.8H43.6l.3-1.7H45l.1,1.7Zm.5,47.7v.7a20.31,20.31,0,0,0,10.9-3.4,10.47,10.47,0,0,0,1.1-.8l-.4-.6a18.67,18.67,0,0,1-11.6,4.1Zm12.2-4.4.4.6a23.1,23.1,0,0,0,7.5-10.9l-.6-.2a23.55,23.55,0,0,1-7.3,10.5Zm7.4-11.2.6.2a23.85,23.85,0,0,0,0-13.5l-.6.2A24.28,24.28,0,0,1,65.2,63.2ZM65,49.6l.6-.2a22.17,22.17,0,0,0-7.5-10.9l-.4.6A20.91,20.91,0,0,1,65,49.6Zm-7.7-11,.4-.6c-.4-.3-.8-.6-1.1-.8a21.5,21.5,0,0,0-10.9-3.4v.7a21.74,21.74,0,0,1,11.6,4.1ZM45,34.6v-.7a20.47,20.47,0,0,0-12.2,4.2l.4.6A19.23,19.23,0,0,1,45,34.6ZM32.8,39l-.4-.5a23.1,23.1,0,0,0-7.5,10.9l.6.2A22.57,22.57,0,0,1,32.8,39ZM25.3,50.2l-.6-.2a23.85,23.85,0,0,0,0,13.5l.6-.2A24.28,24.28,0,0,1,25.3,50.2Zm.2,13.6-.6.2a22.17,22.17,0,0,0,7.5,10.9l.4-.6a20.91,20.91,0,0,1-7.3-10.5Zm7.7,11-.4.6a19.78,19.78,0,0,0,6.1,3.2,21.05,21.05,0,0,0,6.1,1v-.7a20.56,20.56,0,0,1-11.8-4.1ZM45.3,27.7c15.1-.3,27.6,12.4,27.9,28.4S61.5,85.4,46.4,85.7H45.3v.5c15.4-.3,27.6-13.8,27.3-30.1-.3-15.8-12.3-28.6-27.3-28.9Zm0,0h0v-.5h0C29.9,27.5,17.7,41,18,57.3c.3,15.8,12.3,28.6,27.3,28.9h0v-.5h0C30.2,86,17.7,73.3,17.4,57.3S29,28,44.1,27.7Z"/><path class="cls-1" d="M113.4,31.7l2.6-8.8a.35.35,0,0,1,.1-.2.14.14,0,0,1,0,.2L114.2,32c.1.1.2.4.1.5-.1.4-1,5.1-1.1,6.1s-.1,2.2.4,2.6h.1c.2,0,.3.2.2.4l-.1.6.3.1c.2.1.3.2.2.4L114,44h.2a.72.72,0,0,1,.5.9l-1.1,4.5a.89.89,0,0,1,.6,1h0L113,55.5l.3.1a1.09,1.09,0,0,1,.7,1.3h0l-7.5,29.9.6.2a.63.63,0,0,1,.4.8l-.6,2.4.8.2a.57.57,0,0,1,.4.7l-.5,2.1.7.2a1.15,1.15,0,0,1,.7,1.3h0a1.06,1.06,0,0,1-1.2.8.79.79,0,0,1-.8.5h0l-.3,1.1-1.3,5.3L88.7,97.6,90,92.3l.3-1.1h0a.68.68,0,0,1-.4-.8,1.05,1.05,0,0,1-.7-1.3h0a1.06,1.06,0,0,1,1.2-.8l.7.2.5-2a.57.57,0,0,1,.7-.4h0l.8.2.6-2.4a.57.57,0,0,1,.7-.4h0l.6.2,7.5-29.9a.89.89,0,0,1,1.2-.7h0l.3.1,1.3-5a.83.83,0,0,1,1-.6l1.1-4.5a.66.66,0,0,1,.8-.5h.2l.3-1.3c0-.2.2-.3.4-.2l.3.1.1-.6c0-.2.2-.3.4-.2h.1c.6,0,1.2-1.1,1.6-2.1s1.8-5.4,1.9-5.9C113.3,31.6,113.3,31.7,113.4,31.7Z"/><polygon class="cls-2" points="142 76.1 162.8 103.3 183.6 130.4 165 146.5 144.2 119.4 123.3 92.2 142 76.1"/><polygon class="cls-3" points="124.7 89.8 139.5 77.2 142.4 81 127.6 93.6 124.7 89.8"/><path class="cls-4" d="M138,75.5l1.1-1a.64.64,0,0,1,.9.1h0l3.9,5a.63.63,0,0,1-.1.9l-1.1,1a.64.64,0,0,1-.9-.1l-3.9-5a.63.63,0,0,1,.1-.9Z"/><path class="cls-5" d="M140,74.6l3.8,5-1.1.9a.64.64,0,0,1-.9-.1l-3.8-5,1.1-.9A.63.63,0,0,1,140,74.6Z"/><path class="cls-5" d="M139.2,81.5l-10.6,9.1a.91.91,0,0,1-1.4-.2l-1.7-2.2h0l-.6.5,2.9,3.8,13.5-11.7L138.4,77l-.7.6h0l1.7,2.2A1.46,1.46,0,0,1,139.2,81.5Z"/><path class="cls-6" d="M137.4,78.9h0a.3.3,0,0,1,0,.4l-10.3,8.9a.19.19,0,0,1-.3,0h0a.19.19,0,0,1,0-.3L137.1,79c.1-.2.2-.2.3-.1Z"/><path class="cls-6" d="M138.1,79.8h0a.3.3,0,0,1,0,.4l-10.3,8.9a.19.19,0,0,1-.3,0h0a.19.19,0,0,1,0-.3h0l10.3-8.9C137.9,79.7,138,79.7,138.1,79.8Z"/><path class="cls-6" d="M138.8,80.7h0a.19.19,0,0,1,0,.3l-10.3,8.9a.19.19,0,0,1-.3,0h0a.3.3,0,0,1,0-.4l10.3-8.8C138.6,80.6,138.8,80.6,138.8,80.7Z"/><path class="cls-7" d="M139.7,75.2h0a.3.3,0,0,1,0,.4h0a.19.19,0,0,1-.3,0h0a.19.19,0,0,1,0-.3h0c0-.2.1-.2.3-.1Z"/><path class="cls-7" d="M140.1,75.8l1.3,1.7a.19.19,0,0,1,0,.3h0a.19.19,0,0,1-.3,0h0L139.7,76a.19.19,0,0,1,0-.3h0c.2,0,.3,0,.4.1Z"/><path class="cls-4" d="M122.4,89l1.2-1a.64.64,0,0,1,.9.1l3.9,5.1a.63.63,0,0,1-.1.9l-1.2,1a.64.64,0,0,1-.9-.1l-3.9-5.1A.63.63,0,0,1,122.4,89Z"/><path class="cls-5" d="M124.4,88.1l3.8,5-1.1.9a.64.64,0,0,1-.9-.1l-3.8-5,1.1-.9A.56.56,0,0,1,124.4,88.1Z"/><path class="cls-7" d="M124,88.6h0c.1.1.1.2,0,.4h0a.19.19,0,0,1-.3,0h0a.19.19,0,0,1,0-.3h0c.1-.2.2-.2.3-.1Z"/><path class="cls-7" d="M124.5,89.3l1.4,1.7a.19.19,0,0,1,0,.3h0a.19.19,0,0,1-.3,0h0l-1.3-1.7a.19.19,0,0,1,0-.3h0C124.3,89.2,124.4,89.2,124.5,89.3Z"/><polygon class="cls-3" points="130 96.6 144.6 84 147.5 87.7 132.9 100.4 130 96.6"/><path class="cls-4" d="M143.7,82.9l1.2-1a.64.64,0,0,1,.9.1l3.9,5.1a.63.63,0,0,1-.1.9l-1.2,1a.64.64,0,0,1-.9-.1l-3.9-5.1A.65.65,0,0,1,143.7,82.9Z"/><path class="cls-5" d="M145.7,82l3.8,5-1.1.9a.64.64,0,0,1-.9-.1h0l-3.8-5,1.1-.9A.94.94,0,0,1,145.7,82Z"/><path class="cls-5" d="M144.9,88.9,134.4,98a.91.91,0,0,1-1.4-.2l-1.7-2.2h0l-.6.5,2.9,3.8,13.5-11.7-2.9-3.8-.7.6h0l1.7,2.2a1.51,1.51,0,0,1-.3,1.7Z"/><path class="cls-6" d="M143.1,86.3h0a.3.3,0,0,1,0,.4l-10.3,8.9a.19.19,0,0,1-.3,0h0a.19.19,0,0,1,0-.3l10.3-8.9C142.9,86.2,143,86.2,143.1,86.3Z"/><path class="cls-6" d="M143.8,87.2h0a.19.19,0,0,1,0,.3l-10.3,8.9a.19.19,0,0,1-.3,0h0a.3.3,0,0,1,0-.4l10.3-8.9C143.6,87.1,143.8,87.1,143.8,87.2Z"/><path class="cls-6" d="M144.5,88.1h0a.19.19,0,0,1,0,.3l-10.3,8.9a.19.19,0,0,1-.3,0h0a.3.3,0,0,1,0-.4L144.2,88a.37.37,0,0,1,.3.1Z"/><path class="cls-7" d="M145.4,82.6h0a.3.3,0,0,1,0,.4h0a.19.19,0,0,1-.3,0h0a.19.19,0,0,1,0-.3h0C145.1,82.5,145.3,82.5,145.4,82.6Z"/><path class="cls-7" d="M145.8,83.3l1.3,1.7a.19.19,0,0,1,0,.3h0a.19.19,0,0,1-.3,0l-1.3-1.7a.19.19,0,0,1,0-.3h0a.19.19,0,0,1,.3,0Z"/><path class="cls-4" d="M128.1,96.4l1.1-1a.64.64,0,0,1,.9.1l3.9,5a.63.63,0,0,1-.1.9h0l-1.1,1a.64.64,0,0,1-.9-.1l-3.9-5a.63.63,0,0,1,.1-.9Z"/><path class="cls-5" d="M130.1,95.6l3.8,4.9-1.1.9a.64.64,0,0,1-.9-.1h0l-3.8-4.9,1.1-.9A.56.56,0,0,1,130.1,95.6Z"/><path class="cls-7" d="M129.7,96.1h0a.19.19,0,0,1,0,.3h0a.19.19,0,0,1-.3,0h0a.19.19,0,0,1,0-.3h0A.19.19,0,0,1,129.7,96.1Z"/><path class="cls-7" d="M130.2,96.8l1.3,1.7a.19.19,0,0,1,0,.3h0a.19.19,0,0,1-.3,0l-1.3-1.7a.19.19,0,0,1,0-.3h0a.19.19,0,0,1,.3,0Z"/><polygon class="cls-3" points="135.7 104 150.3 91.4 153.2 95.2 138.6 107.8 135.7 104"/><path class="cls-4" d="M149.4,90.3l1.2-1a.64.64,0,0,1,.9.1l3.9,5.1a.63.63,0,0,1-.1.9l-1.2,1a.64.64,0,0,1-.9-.1l-3.9-5.1A.65.65,0,0,1,149.4,90.3Z"/><path class="cls-5" d="M151.4,89.5l3.8,5-1.1.9a.64.64,0,0,1-.9-.1h0l-3.8-5,1.1-.9a.63.63,0,0,1,.9.1Z"/><path class="cls-5" d="M150.6,96.4l-10.5,9.1a.91.91,0,0,1-1.4-.2l-1.7-2.2h0l-.6.5,2.9,3.8,13.5-11.7-2.9-3.8-.7.6h0l1.7,2.2a1.57,1.57,0,0,1-.3,1.7Z"/><path class="cls-6" d="M148.8,93.7h0a.3.3,0,0,1,0,.4L138.5,103a.19.19,0,0,1-.3,0h0a.19.19,0,0,1,0-.3l10.3-9A.19.19,0,0,1,148.8,93.7Z"/><path class="cls-6" d="M149.5,94.7h0a.19.19,0,0,1,0,.3h0l-10.3,8.9a.19.19,0,0,1-.3,0h0a.3.3,0,0,1,0-.4l10.3-8.9a.37.37,0,0,1,.3.1Z"/><path class="cls-6" d="M150.3,95.6h0a.19.19,0,0,1,0,.3L140,104.8a.19.19,0,0,1-.3,0h0a.3.3,0,0,1,0-.4L150,95.5A.49.49,0,0,1,150.3,95.6Z"/><path class="cls-7" d="M151,90h0a.19.19,0,0,1,0,.3h0a.19.19,0,0,1-.3,0h0a.19.19,0,0,1,0-.3h0C150.8,89.9,151,89.9,151,90Z"/><path class="cls-7" d="M151.5,90.7l1.3,1.7a.19.19,0,0,1,0,.3h0a.19.19,0,0,1-.3,0L151.2,91a.19.19,0,0,1,0-.3h0C151.3,90.6,151.5,90.6,151.5,90.7Z"/><path class="cls-4" d="M133.8,103.8l1.2-1a.64.64,0,0,1,.9.1l3.9,5.1a.63.63,0,0,1-.1.9l-1.2,1a.64.64,0,0,1-.9-.1l-3.9-5.1A.64.64,0,0,1,133.8,103.8Z"/><path class="cls-5" d="M135.8,102.9l3.8,5-1.1.9a.64.64,0,0,1-.9-.1h0l-3.7-5,1.1-.9A.62.62,0,0,1,135.8,102.9Z"/><path class="cls-7" d="M135.4,103.5h0a.19.19,0,0,1,0,.3h0a.19.19,0,0,1-.3,0h0a.19.19,0,0,1,0-.3h0A.19.19,0,0,1,135.4,103.5Z"/><path class="cls-7" d="M135.9,104.2l1.3,1.7a.19.19,0,0,1,0,.3h0a.19.19,0,0,1-.3,0l-1.3-1.7a.19.19,0,0,1,0-.3h0A.19.19,0,0,1,135.9,104.2Z"/><polygon class="cls-3" points="141.4 111.5 156.1 98.8 159 102.6 144.3 115.3 141.4 111.5"/><path class="cls-4" d="M155.1,97.8l1.2-1a.64.64,0,0,1,.9.1l3.9,5.1a.63.63,0,0,1-.1.9l-1.2,1a.64.64,0,0,1-.9-.1L155,98.7A.64.64,0,0,1,155.1,97.8Z"/><path class="cls-5" d="M157.1,96.9l3.8,5-1.1.9a.63.63,0,0,1-.9-.1l-3.8-5,1.1-.9a.63.63,0,0,1,.9.1Z"/><path class="cls-5" d="M156.3,103.8l-10.6,9.1a.91.91,0,0,1-1.4-.2l-1.7-2.2v-.1l-.6.6,2.9,3.8,13.5-11.7-2.9-3.8-.7.6h.1l1.7,2.2a1.36,1.36,0,0,1-.3,1.7Z"/><path class="cls-6" d="M154.5,101.2h0a.19.19,0,0,1,0,.3l-10.3,8.9a.19.19,0,0,1-.3,0h0a.3.3,0,0,1,0-.4l10.3-8.9C154.3,101.1,154.5,101.1,154.5,101.2Z"/><path class="cls-6" d="M155.2,102.1h0a.19.19,0,0,1,0,.3l-10.3,8.9a.19.19,0,0,1-.3,0h0a.3.3,0,0,1,0-.4l10.3-8.9C155,102,155.2,102,155.2,102.1Z"/><path class="cls-6" d="M156,103h0a.3.3,0,0,1,0,.4l-10.3,8.9a.19.19,0,0,1-.3,0h0a.3.3,0,0,1,0-.4l10.3-8.9C155.7,102.9,155.9,102.9,156,103Z"/><path class="cls-7" d="M156.7,97.5h0a.19.19,0,0,1,0,.3h0a.19.19,0,0,1-.3,0h0a.3.3,0,0,1,0-.4h0C156.5,97.4,156.7,97.4,156.7,97.5Z"/><path class="cls-7" d="M157.3,98.1l1.3,1.7a.19.19,0,0,1,0,.3h0a.19.19,0,0,1-.3,0L157,98.4a.19.19,0,0,1,0-.3h0C157,98,157.2,98,157.3,98.1Z"/><path class="cls-4" d="M139.5,111.2l1.1-1a.63.63,0,0,1,.9.1l3.9,5a.63.63,0,0,1-.1.9l-1.1,1a.64.64,0,0,1-.9-.1l-3.9-5a.65.65,0,0,1,.1-.9Z"/><path class="cls-5" d="M141.5,110.4l3.8,5-1.1.9a.63.63,0,0,1-.9-.1l-3.8-5,1.1-.9a.56.56,0,0,1,.9.1Z"/><path class="cls-7" d="M141.1,110.9h0a.19.19,0,0,1,0,.3h0a.19.19,0,0,1-.3,0h0a.3.3,0,0,1,0-.4h0A.37.37,0,0,1,141.1,110.9Z"/><path class="cls-7" d="M141.6,111.6l1.3,1.7a.19.19,0,0,1,0,.3h0a.19.19,0,0,1-.3,0h0l-1.3-1.7a.19.19,0,0,1,0-.3h0C141.4,111.5,141.6,111.5,141.6,111.6Z"/><path class="cls-7" d="M121.3,88.4l46.8,61a.43.43,0,0,1-.1.7h0l-1.1,1a.49.49,0,0,1-.7-.1h0L119.4,90a.62.62,0,0,1,.1-.8l1.1-1A1,1,0,0,1,121.3,88.4Z"/><polygon class="cls-7" points="139.7 72.2 172.4 94 185.9 132.4 184.8 131.9 161.9 103.1 139.9 73.4 139.7 72.2"/><polygon class="cls-8" points="183.3 130.1 161.9 103.1 141.3 75.3 171 95.2 183.3 130.1"/><polygon class="cls-9" points="169.4 112 161.9 103.1 155.2 93.5 171 95.2 169.4 112"/><polygon class="cls-3" points="165.1 142.4 179.7 129.7 182.6 133.5 168 146.1 165.1 142.4"/><path class="cls-4" d="M178.8,128.7l1.2-1a.64.64,0,0,1,.9.1l3.9,5.1a.63.63,0,0,1-.1.9l-1.2,1a.64.64,0,0,1-.9-.1l-3.9-5.1A.63.63,0,0,1,178.8,128.7Z"/><path class="cls-5" d="M184.6,132.8l-3.7-5-1.1.9a.63.63,0,0,0-.1.9l3.8,5,1.1-.9A.56.56,0,0,0,184.6,132.8Z"/><path class="cls-5" d="M178.1,132.2l-10.6,9.1a1.09,1.09,0,0,0-.1,1.5l1.7,2.2.1.1-.6.5-2.9-3.8,13.5-11.7,2.9,3.8-.7.6h0l-1.7-2.2a1.22,1.22,0,0,0-1.6-.1Z"/><path class="cls-6" d="M180.2,134.6h0a.19.19,0,0,0-.3,0l-10.3,8.9a.3.3,0,0,0,0,.4h0a.19.19,0,0,0,.3,0l10.3-8.9C180.3,134.8,180.3,134.7,180.2,134.6Z"/><path class="cls-6" d="M179.5,133.7h0a.19.19,0,0,0-.3,0l-10.3,8.9a.3.3,0,0,0,0,.4h0a.19.19,0,0,0,.3,0l10.3-8.9C179.6,133.9,179.6,133.8,179.5,133.7Z"/><path class="cls-6" d="M178.8,132.7h0a.19.19,0,0,0-.3,0l-10.3,8.9a.19.19,0,0,0,0,.3h0a.19.19,0,0,0,.3,0h0l10.3-8.9C178.9,133,178.9,132.8,178.8,132.7Z"/><path class="cls-7" d="M184,133.1h0a.19.19,0,0,0-.3,0h0a.19.19,0,0,0,0,.3h0a.19.19,0,0,0,.3,0h0A.19.19,0,0,0,184,133.1Z"/><path class="cls-7" d="M183.5,132.4l-1.3-1.7a.19.19,0,0,0-.3,0h0a.3.3,0,0,0,0,.4l1.3,1.7a.19.19,0,0,0,.3,0h0A.3.3,0,0,0,183.5,132.4Z"/><path class="cls-4" d="M163.2,142.1l1.2-1a.64.64,0,0,1,.9.1l3.9,5.1a.63.63,0,0,1-.1.9l-1.2,1a.64.64,0,0,1-.9-.1l-3.9-5.1A.65.65,0,0,1,163.2,142.1Z"/><polygon class="cls-3" points="159.4 134.9 174 122.3 176.9 126.1 162.3 138.7 159.4 134.9"/><path class="cls-4" d="M173.1,121.2l1.2-1a.64.64,0,0,1,.9.1l3.9,5.1a.63.63,0,0,1-.1.9l-1.2,1a.64.64,0,0,1-.9-.1l-3.9-5.1A.65.65,0,0,1,173.1,121.2Z"/><path class="cls-5" d="M178.9,125.4l-3.8-5-1.1.9a.63.63,0,0,0-.1.9l3.8,5,1.1-.9C179.1,126,179.2,125.6,178.9,125.4Z"/><path class="cls-5" d="M172.4,124.7l-10.6,9.1a1.09,1.09,0,0,0-.1,1.5l1.7,2.2v.1l-.6.5-2.9-3.7,13.5-11.7,2.9,3.8-.7.6V127l-1.7-2.2a1.08,1.08,0,0,0-1.5-.1Z"/><path class="cls-6" d="M174.5,127.1h0a.19.19,0,0,0-.3,0h0L163.9,136a.3.3,0,0,0,0,.4h0a.19.19,0,0,0,.3,0l10.3-8.9a.3.3,0,0,0,0-.4Z"/><path class="cls-6" d="M173.8,126.2h0a.19.19,0,0,0-.3,0l-10.3,8.9a.19.19,0,0,0,0,.3h0a.19.19,0,0,0,.3,0l10.3-8.9C173.9,126.5,173.9,126.3,173.8,126.2Z"/><path class="cls-6" d="M173.1,125.3h0a.19.19,0,0,0-.3,0l-10.3,8.9a.19.19,0,0,0,0,.3h0a.19.19,0,0,0,.3,0l10.3-8.9C173.2,125.6,173.2,125.4,173.1,125.3Z"/><path class="cls-7" d="M178.3,125.6h0a.19.19,0,0,0-.3,0h0a.19.19,0,0,0,0,.3h0a.19.19,0,0,0,.3,0h0C178.4,125.9,178.4,125.7,178.3,125.6Z"/><path class="cls-7" d="M177.8,125l-1.3-1.7a.19.19,0,0,0-.3,0h0a.3.3,0,0,0,0,.4l1.3,1.7a.19.19,0,0,0,.3,0h0C177.9,125.2,177.9,125.1,177.8,125Z"/><path class="cls-4" d="M157.4,134.7l1.1-1a.63.63,0,0,1,.9.1l3.9,5.1a.63.63,0,0,1-.1.9l-1.1,1a.64.64,0,0,1-.9-.1l-3.9-5a1.18,1.18,0,0,1,.1-1Z"/><path class="cls-5" d="M163.3,138.8l-3.8-5-1.1.9a.63.63,0,0,0-.1.9l3.8,4.9,1.1-.9C163.5,139.5,163.5,139.1,163.3,138.8Z"/><path class="cls-7" d="M162.7,139.1h0a.19.19,0,0,0-.3,0h0a.19.19,0,0,0,0,.3h0a.19.19,0,0,0,.3,0h0A.19.19,0,0,0,162.7,139.1Z"/><path class="cls-7" d="M162.2,138.4l-1.3-1.7a.19.19,0,0,0-.3,0h0a.3.3,0,0,0,0,.4l1.3,1.7a.19.19,0,0,0,.3,0h0A.3.3,0,0,0,162.2,138.4Z"/><polygon class="cls-3" points="153.7 127.5 168.3 114.9 171.2 118.6 156.6 131.3 153.7 127.5"/><path class="cls-4" d="M167.4,113.8l1.1-1a.63.63,0,0,1,.9.1l3.9,5a.63.63,0,0,1-.1.9l-1.1,1a.64.64,0,0,1-.9-.1l-3.9-5a.63.63,0,0,1,.1-.9Z"/><path class="cls-5" d="M173.2,117.9l-3.8-5-1.1.9a.63.63,0,0,0-.1.9h0l3.8,5,1.1-.9A.63.63,0,0,0,173.2,117.9Z"/><path class="cls-5" d="M166.7,117.3l-10.6,9.1a1.09,1.09,0,0,0-.1,1.5l1.7,2.2h0l-.6.5-2.9-3.8,13.5-11.7,2.9,3.8-.7.6h0l-1.7-2.2A1.2,1.2,0,0,0,166.7,117.3Z"/><path class="cls-6" d="M168.8,119.7h0a.19.19,0,0,0-.3,0l-10.3,8.9a.3.3,0,0,0,0,.4h0a.19.19,0,0,0,.3,0l10.3-8.9A.3.3,0,0,0,168.8,119.7Z"/><path class="cls-6" d="M168.1,118.8h0a.19.19,0,0,0-.3,0l-10.3,8.9a.19.19,0,0,0,0,.3h0a.19.19,0,0,0,.3,0l10.3-8.9S168.2,118.9,168.1,118.8Z"/><path class="cls-6" d="M167.4,117.9h0a.19.19,0,0,0-.3,0l-10.3,8.9a.3.3,0,0,0,0,.4h0a.19.19,0,0,0,.3,0l10.3-8.9c.1-.2.1-.3,0-.4Z"/><path class="cls-7" d="M172.6,118.2h0a.19.19,0,0,0-.3,0h0a.3.3,0,0,0,0,.4h0a.19.19,0,0,0,.3,0h0a.3.3,0,0,0,0-.4Z"/><path class="cls-7" d="M172.1,117.5l-1.3-1.7a.19.19,0,0,0-.3,0h0a.19.19,0,0,0,0,.3h0l1.3,1.7a.19.19,0,0,0,.3,0h0C172.2,117.8,172.2,117.6,172.1,117.5Z"/><path class="cls-4" d="M152.3,128.1l1.2-1a.64.64,0,0,1,.9.1l3.9,5.1a.63.63,0,0,1-.1.9l-1.2,1a.64.64,0,0,1-.9-.1l-3.9-5.1A.63.63,0,0,1,152.3,128.1Z"/><path class="cls-5" d="M157.6,131.4l-3.8-5-1.1.9a.63.63,0,0,0-.1.9l3.8,5,1.1-.9A.63.63,0,0,0,157.6,131.4Z"/><path class="cls-7" d="M157,131.7h0a.19.19,0,0,0-.3,0h0a.3.3,0,0,0,0,.4h0a.19.19,0,0,0,.3,0h0c.1-.2.1-.3,0-.4Z"/><path class="cls-7" d="M156.5,131l-1.3-1.7a.19.19,0,0,0-.3,0h0a.19.19,0,0,0,0,.3h0l1.3,1.7a.19.19,0,0,0,.3,0h0A.19.19,0,0,0,156.5,131Z"/><polygon class="cls-3" points="148 120.1 162.6 107.4 165.5 111.2 150.9 123.8 148 120.1"/><path class="cls-4" d="M161.7,106.4l1.2-1a.64.64,0,0,1,.9.1l3.9,5.1a.63.63,0,0,1-.1.9l-1.2,1a.64.64,0,0,1-.9-.1l-3.9-5.1A.63.63,0,0,1,161.7,106.4Z"/><path class="cls-5" d="M167.5,110.5l-3.8-5-1.1.9a.63.63,0,0,0-.1.9h0l3.8,5,1.1-.9a.63.63,0,0,0,.1-.9Z"/><path class="cls-5" d="M161,109.9,150.5,119a1.09,1.09,0,0,0-.1,1.5l1.7,2.2h0l-.6.5-2.9-3.8,13.5-11.7,2.9,3.8-.7.6h0l-1.7-2.2A1.35,1.35,0,0,0,161,109.9Z"/><path class="cls-6" d="M163.1,112.3h0a.19.19,0,0,0-.3,0l-10.3,8.9a.19.19,0,0,0,0,.3h0a.19.19,0,0,0,.3,0l10.3-8.9A.19.19,0,0,0,163.1,112.3Z"/><path class="cls-6" d="M162.4,111.4h0a.19.19,0,0,0-.3,0l-10.3,8.9a.19.19,0,0,0,0,.3h0a.19.19,0,0,0,.3,0l10.3-8.9C162.5,111.6,162.5,111.4,162.4,111.4Z"/><path class="cls-6" d="M161.7,110.4h0a.19.19,0,0,0-.3,0l-10.3,8.9a.3.3,0,0,0,0,.4h0a.19.19,0,0,0,.3,0l10.3-8.9Z"/><path class="cls-7" d="M166.9,110.8h0a.19.19,0,0,0-.3,0h0a.19.19,0,0,0,0,.3h0a.19.19,0,0,0,.3,0h0a.19.19,0,0,0,0-.3Z"/><path class="cls-7" d="M166.4,110.1l-1.3-1.7a.19.19,0,0,0-.3,0h0a.19.19,0,0,0,0,.3l1.3,1.7a.19.19,0,0,0,.3,0h0C166.5,110.4,166.5,110.2,166.4,110.1Z"/><path class="cls-4" d="M146.1,119.8l1.2-1a.64.64,0,0,1,.9.1l3.9,5.1a.63.63,0,0,1-.1.9l-1.2,1a.64.64,0,0,1-.9-.1l-3.9-5.1A.65.65,0,0,1,146.1,119.8Z"/><path class="cls-5" d="M151.9,124l-3.8-5-1.1.9a.63.63,0,0,0-.1.9h0l3.8,5,1.1-.9a.64.64,0,0,0,.1-.9Z"/><path class="cls-7" d="M151.3,124.2h0a.19.19,0,0,0-.3,0h0a.3.3,0,0,0,0,.4h0a.19.19,0,0,0,.3,0h0a.3.3,0,0,0,0-.4Z"/><path class="cls-7" d="M150.8,123.6l-1.3-1.7a.19.19,0,0,0-.3,0h0a.19.19,0,0,0,0,.3l1.3,1.7a.19.19,0,0,0,.3,0h0A.19.19,0,0,0,150.8,123.6Z"/><path class="cls-7" d="M139.8,72.2l47.1,61.4a.3.3,0,0,1,0,.4l-.6.5a.3.3,0,0,1-.4,0L138.7,73a.3.3,0,0,1,0-.4h0l.6-.5c.2-.1.3-.1.5.1C139.7,72.1,139.8,72.1,139.8,72.2Z"/><path class="cls-7" d="M152.9,85.1l4.1,5.4a.91.91,0,0,1-.1,1.1h0a.68.68,0,0,1-1-.1h0l-4.1-5.4a.79.79,0,0,1,.1-1.1h0a.77.77,0,0,1,1,.1Z"/><path class="cls-7" d="M151.2,83l.1.1a.79.79,0,0,1-.1,1.1h0a.68.68,0,0,1-1-.1h0l-.1-.1a.79.79,0,0,1,.1-1.1h0a.61.61,0,0,1,1,.1Z"/><path class="cls-10" d="M120.6,53.1l3-7.5a.37.37,0,0,1,.5-.2h0l16.1,7.2a.37.37,0,0,1,.2.5l-3,7.5a.37.37,0,0,1-.5.2l-16.1-7.2A1.06,1.06,0,0,1,120.6,53.1Z"/><path class="cls-11" d="M122.6,48l1.1-2.8a.52.52,0,0,1,.7-.3l16.8,7.6a.52.52,0,0,1,.3.7L140.4,56a.52.52,0,0,1-.7.3l-16.9-7.6A.57.57,0,0,1,122.6,48Z"/><path class="cls-12" d="M123.4,54.5l1.2-2.9a.7.7,0,0,1,.9-.4l1.7.8a1,1,0,0,1,.4,1l-1.2,2.9a.7.7,0,0,1-.9.4l-1.7-.8A.82.82,0,0,1,123.4,54.5Z"/><path class="cls-12" d="M127.9,56.6l1.2-2.9a.7.7,0,0,1,.9-.4l1.7.8a1,1,0,0,1,.4,1L130.9,58a.7.7,0,0,1-.9.4l-1.7-.8A.76.76,0,0,1,127.9,56.6Z"/><path class="cls-12" d="M132.3,58.6l1.2-2.9a.7.7,0,0,1,.9-.4l1.7.8a1,1,0,0,1,.4,1L135.3,60a.7.7,0,0,1-.9.4l-1.7-.8A.82.82,0,0,1,132.3,58.6Z"/><path class="cls-13" d="M129.5,56.9l9.2,4.1a1,1,0,0,1,.5,1.3l-1.7,4.2a.84.84,0,0,1-1.2.5h0l-9.2-4.1L118,58.8a1,1,0,0,1-.5-1.3h0l1.7-4.2a1,1,0,0,1,1.3-.5Z"/><path class="cls-13" d="M127.8,61.1l-13-5.9a.88.88,0,0,0-1.2.5h0l-1.7,4.1a1,1,0,0,0,.5,1.3l13,5.9,13,5.9a1,1,0,0,0,1.3-.5v-.1l1.7-4.2a1,1,0,0,0-.5-1.3h0Z"/><path class="cls-13" d="M126.1,65.3l-16.9-7.6a.88.88,0,0,0-1.2.5h0l-1.7,4.2a1,1,0,0,0,.5,1.3l16.9,7.7,16.9,7.7a.88.88,0,0,0,1.2-.5h0l1.7-4.2a1,1,0,0,0-.5-1.3h0Z"/><path class="cls-13" d="M124.4,69.6,145.2,79a1,1,0,0,1,.5,1.3L144,84.5a.84.84,0,0,1-1.2.5h0L122,75.6l-20.8-9.4a.88.88,0,0,1-.4-1.3l1.7-4.2a1,1,0,0,1,1.3-.5Z"/><path class="cls-13" d="M122.6,73.8,97.9,62.6a.88.88,0,0,0-1.2.5h0L95,67.3a1,1,0,0,0,.5,1.3h0l24.7,11.2,22,10,3.2-5.7Z"/><path class="cls-13" d="M120.9,78.1l-33-14.9a.88.88,0,0,0-1.2.5h0L85,67.9a1,1,0,0,0,.5,1.3h0l33,14.9,21.4,9.7,3.2-5.7Z"/><polygon class="cls-12" points="111.6 81 122.6 53.7 136.4 60 125.4 87.2 111.6 81"/><polygon class="cls-14" points="112.5 81.3 123.5 54.1 124.3 54.5 113.3 81.7 112.5 81.3"/><polygon class="cls-14" points="114.3 82.2 125.3 54.9 126.1 55.3 115.1 82.5 114.3 82.2"/><polygon class="cls-14" points="121.9 85.6 132.9 58.4 133.7 58.8 122.7 86 121.9 85.6"/><polygon class="cls-14" points="123.7 86.4 134.7 59.2 135.5 59.6 124.5 86.8 123.7 86.4"/><path class="cls-15" d="M123.5,46,141,53.9h.1l.2-.5v-.1h0l-17.5-7.9h-.1l-.2.5V46Z"/><path class="cls-15" d="M123.1,46.8l17.7,8h0l.1-.3h0l-17.6-8.1h0l-.1.2Z"/><polygon class="cls-16" points="141.1 91.7 126.3 85 125.4 87.2 139.9 93.8 141.1 91.7"/><path class="cls-16" d="M111.6,81l.9-2.2L85.6,66.6l-.5,1.3a1,1,0,0,0,.5,1.3h0Z"/><polygon class="cls-16" points="143.7 87.1 128.3 80.1 127.8 81.2 143.1 88.1 143.7 87.1"/><polygon class="cls-17" points="95.4 66.5 95.8 65.4 114.5 73.8 114 74.9 95.4 66.5"/><path class="cls-16" d="M137.4,63.1a.92.92,0,0,1-1.3.5l-1-.4-.4,1,3.1,1.4,1.3-3.3a1,1,0,0,0-.5-1.3l-.3-.1Z"/><polygon class="cls-17" points="117.8 56.6 118.2 55.5 121.3 56.9 120.9 58 117.8 56.6"/><path class="cls-16" d="M139.5,69.1a1,1,0,0,1-1.3.5l-4.9-2.2-.4,1,7,3.2,1.3-3.3a1,1,0,0,0-.5-1.3h0l-.3-.1Z"/><polygon class="cls-17" points="112.2 59 112.6 58 119.6 61.2 119.2 62.2 112.2 59"/><path class="cls-16" d="M142.7,72.9l-.9,2.3a1,1,0,0,1-1.3.5l-8.8-4-.4,1,10.9,4.9,1.3-3.3A1,1,0,0,0,143,73h0Z"/><polygon class="cls-17" points="106.6 61.5 107 60.5 117.9 65.4 117.5 66.5 106.6 61.5"/><path class="cls-16" d="M144.8,78.9l-.9,2.3a.92.92,0,0,1-1.3.5L129.9,76l-.4,1,14.8,6.7,1.3-3.3a1,1,0,0,0-.5-1.3Z"/><polygon class="cls-17" points="101 64 101.4 63 116.2 69.7 115.7 70.7 101 64"/><path class="cls-18" d="M92.1,66.4l8.7,3.9a.69.69,0,0,1,.3.9h0a.6.6,0,0,1-.8.4h0l-8.7-3.9a.69.69,0,0,1-.3-.9h0a.54.54,0,0,1,.8-.4Z"/><path class="cls-18" d="M90.1,65.5l-.3-.1a.74.74,0,0,0-.9.4h0c-.1.4,0,.8.3.9l.3.1c.3.2.7,0,.9-.4h0A.61.61,0,0,0,90.1,65.5Z"/><path class="cls-18" d="M102.6,65.9l8.7,3.9a.69.69,0,0,1,.3.9h0c-.1.4-.5.5-.9.4L102,67.2a.69.69,0,0,1-.3-.9h0A.74.74,0,0,1,102.6,65.9Z"/><path class="cls-18" d="M100.7,65l-.3-.1c-.3-.2-.7,0-.9.4h0c-.1.4,0,.8.3.9l.3.1c.3.2.7,0,.9-.4h0A.69.69,0,0,0,100.7,65Z"/><path class="cls-18" d="M134.7,75.4l8.7,3.9a.87.87,0,0,1,.4.9h0a.7.7,0,0,1-.9.4l-8.7-3.9a.69.69,0,0,1-.3-.9h0C133.9,75.4,134.3,75.2,134.7,75.4Z"/><path class="cls-18" d="M132.7,74.5l-.3-.1c-.3-.2-.7,0-.9.4h0c-.1.4,0,.8.3.9l.3.1a.74.74,0,0,0,.9-.4h0A.63.63,0,0,0,132.7,74.5Z"/><path class="cls-18" d="M117.5,57.6l1.6.7a.69.69,0,0,1,.3.9h0c-.1.4-.5.5-.9.4h0l-1.6-.7a.87.87,0,0,1-.4-.9h0c.3-.4.7-.6,1-.4Z"/><path class="cls-18" d="M115.5,56.7l-.3-.1c-.3-.2-.7,0-.9.4h0c-.1.4,0,.8.4.9h0l.3.1c.3.2.7,0,.9-.4h0C116,57.2,115.9,56.8,115.5,56.7Z"/><polygon class="cls-19" points="165.2 44.3 167.4 40.5 172.3 43.9 170 47.6 165.2 44.3"/><path class="cls-20" d="M168.6,46.6l.9.6,1.4-2.2a.54.54,0,0,0-.2-.8h0a.44.44,0,0,0-.7.2h0Z"/><path class="cls-20" d="M167.2,45.6l.9.6,1.4-2.2a.54.54,0,0,0-.2-.8h0a.43.43,0,0,0-.7.2Z"/><path class="cls-20" d="M165.7,44.6l.9.6L168,43a.54.54,0,0,0-.2-.8h0a.44.44,0,0,0-.7.2h0Z"/><path class="cls-21" d="M165.6,61.3l-10.3-7a.78.78,0,0,0-1,.2L128.5,97.1a.78.78,0,0,0,.2,1h0l10.3,7a.78.78,0,0,0,1-.2l25.8-42.5a.81.81,0,0,0-.2-1.1Z"/><path class="cls-22" d="M148.3,65.8l6-9.9c.1-.1.2-.2.4-.1l9.8,6.6c.1.1.2.3.1.4l-6,9.9c-.1.1-.2.2-.4.1l-9.8-6.6C148.3,66.1,148.2,65.9,148.3,65.8Z"/><path class="cls-7" d="M158.7,60.6a4.58,4.58,0,0,1,1.3,6.2,4.18,4.18,0,0,1-5.9,1.4,4.58,4.58,0,0,1-1.3-6.2h0A4,4,0,0,1,158.7,60.6Z"/><path class="cls-20" d="M156.6,64.1c.1.1.2.3.1.4s-.2.2-.4.1a.6.6,0,0,1-.1-.4c.1-.1.2-.2.4-.1Z"/><path class="cls-20" d="M156.6,64.5a.21.21,0,1,1-.3-.3l1.6-2.7a.22.22,0,1,1,.4.2Z"/><path class="cls-20" d="M156.2,64.4c0-.1,0-.2.1-.2h0c.1,0,.2,0,.2.1h0l.5,2.2c0,.1,0,.2-.1.2s-.2,0-.2-.1Z"/><path class="cls-20" d="M157.3,68.4h0l-.1-.3h0m0,0,.1.4Zm-3.8-5.7-.3-.2v-.1h.1l.2.3Zm6.3,4.2-.3-.3m0,0,.3.2Zm-6.5-1.2h0c.1.1,0,.1,0,.1h0l-.4.1h0l.4-.1Zm7.4-1.6-.4.1m0,0h0l.4-.2Zm-5.3,3.9h0l-.2.4m-.1,0,.2-.4Zm4.3-7.1h0l-.2.4m-.1.1h0l.2-.4Zm-2.6-.6h0l-.1-.3v-.1h.1Z"/><polygon class="cls-19" points="155.1 53.6 157 50.5 168 58.1 166.2 61.2 155.1 53.6"/><path class="cls-20" d="M160.3,57.2l-1.1-.7.9-1.5a.65.65,0,0,1,.9-.2h0a.65.65,0,0,1,.2.9h0Z"/><path class="cls-20" d="M158.6,56l-1.1-.7.9-1.5a.65.65,0,0,1,.9-.2h0a.65.65,0,0,1,.2.9Z"/><path class="cls-20" d="M156.8,54.8l-1.1-.7.9-1.5a.65.65,0,0,1,.9-.2h0a.65.65,0,0,1,.2.9Z"/><path class="cls-20" d="M165.5,60.7l-1.1-.7.9-1.5a.65.65,0,0,1,.9-.2h0a.65.65,0,0,1,.2.9h0Z"/><path class="cls-20" d="M163.8,59.5l-1.1-.7.9-1.5a.65.65,0,0,1,.9-.2h0a.65.65,0,0,1,.2.9h0Z"/><path class="cls-20" d="M162,58.4l-1.1-.7.9-1.5a.65.65,0,0,1,.9-.2h0a.65.65,0,0,1,.2.9Z"/><path class="cls-23" d="M170.3,47.1l-2,10-.3.4-10.5-7.1.3-.4,7.7-6.1Z"/><polygon class="cls-23" points="174.6 34.3 172.5 43.4 172.2 43.8 169.9 42.2 167.5 40.6 167.7 40.1 174.6 34.3"/><path class="cls-20" d="M174.6,34.3l-2.1,9.1-.1.1-4.8-3.3.1-.2,1.3-1.1,1.1.8c1.8,1.2,2.5-.5,2.5-.5l1.1-4.3Z"/><path class="cls-20" d="M174.5,34.6a.79.79,0,0,1,.1,1.1.65.65,0,0,1-.9.2.78.78,0,0,1-.2-1h0a.69.69,0,0,1,1-.3Z"/><path class="cls-20" d="M174,34l1,.7c.1.1.2.3.1.4h0c-.1.1-.3.2-.4.1l-1-.7c-.1-.1-.2-.3-.1-.4h0A.6.6,0,0,1,174,34Z"/><path class="cls-20" d="M174.3,34.4l1.3-2.2c.1-.1.3-.2.4-.1h0c.1.1.2.3.1.4l-1.3,2.2c-.1.1-.3.2-.4.1h0A.25.25,0,0,1,174.3,34.4Z"/><path class="cls-24" d="M145.7,67.4l.7-1.2a.37.37,0,0,1,.3-.1l12.2,8.3a.37.37,0,0,1,.1.3l-.7,1.2a.37.37,0,0,1-.3.1l-12.2-8.3A.37.37,0,0,1,145.7,67.4Z"/><path class="cls-24" d="M156.7,50.5l.4-.6c.1-.1.3-.2.4-.1l11,7.5c.1.1.2.3.1.4l-.4.6c-.1.1-.3.2-.4.1l-11-7.5A.25.25,0,0,1,156.7,50.5Z"/><path class="cls-24" d="M153.6,54.2l.7-1.2a.37.37,0,0,1,.3-.1l12.2,8.3a.37.37,0,0,1,.1.3l-.7,1.2a.37.37,0,0,1-.3.1l-12.2-8.3C153.5,54.4,153.5,54.3,153.6,54.2Z"/><path class="cls-24" d="M167.1,40.4l.1-.1a.38.38,0,0,1,.6-.1h0l4.8,3.3c.2.1.2.4.1.6h0l-.1.1a.38.38,0,0,1-.6.1h0L167.2,41a.48.48,0,0,1-.1-.6Z"/><path class="cls-20" d="M146.8,69.9h0a.65.65,0,0,1,.2.9l-3.7,6.1a.65.65,0,0,1-.9.2h0a.65.65,0,0,1-.2-.9h0l3.7-6.1A.65.65,0,0,1,146.8,69.9Z"/><path class="cls-20" d="M148.6,71.1h0a.65.65,0,0,1,.2.9l-3.7,6.1a.65.65,0,0,1-.9.2h0a.65.65,0,0,1-.2-.9h0l3.7-6.1A.65.65,0,0,1,148.6,71.1Z"/><path class="cls-20" d="M150.3,72.3h0a.65.65,0,0,1,.2.9l-3.7,6.1a.65.65,0,0,1-.9.2h0a.65.65,0,0,1-.2-.9l3.7-6.1C149.7,72.2,150,72.1,150.3,72.3Z"/><path class="cls-20" d="M152.1,73.5h0a.65.65,0,0,1,.2.9l-3.7,6.1a.65.65,0,0,1-.9.2h0a.65.65,0,0,1-.2-.9l3.7-6.1A.65.65,0,0,1,152.1,73.5Z"/><path class="cls-20" d="M153.8,74.7h0a.65.65,0,0,1,.2.9l-3.7,6.1a.65.65,0,0,1-.9.2h0a.65.65,0,0,1-.2-.9h0l3.7-6.1C153.2,74.6,153.5,74.5,153.8,74.7Z"/><path class="cls-20" d="M155.6,75.9h0a.65.65,0,0,1,.2.9h0l-3.7,6.1a.65.65,0,0,1-.9.2h0a.65.65,0,0,1-.2-.9l3.7-6.1a.65.65,0,0,1,.9-.2Z"/><path class="cls-25" d="M140.8,76.6l11.5,7.9c.1.1.2.2.1.4h0c-.1.1-.2.2-.3.1h0l-11.6-7.9c-.1-.1-.1-.2-.1-.4h0a.6.6,0,0,1,.4-.1Z"/><path class="cls-20" d="M141.2,79.2h0a.65.65,0,0,1,.2.9h0l-3.7,6.1a.65.65,0,0,1-.9.2h0a.65.65,0,0,1-.2-.9h0l3.7-6.1a.65.65,0,0,1,.9-.2Z"/><path class="cls-20" d="M143,80.4h0a.65.65,0,0,1,.2.9h0l-3.7,6.1a.65.65,0,0,1-.9.2h0a.65.65,0,0,1-.2-.9l3.7-6.1a.65.65,0,0,1,.9-.2Z"/><path class="cls-20" d="M144.7,81.6h0a.65.65,0,0,1,.2.9l-3.7,6.1a.65.65,0,0,1-.9.2h0a.65.65,0,0,1-.2-.9h0l3.7-6.1A.65.65,0,0,1,144.7,81.6Z"/><path class="cls-20" d="M146.5,82.8h0a.65.65,0,0,1,.2.9h0L143,89.8a.65.65,0,0,1-.9.2h0a.65.65,0,0,1-.2-.9l3.7-6.1A.65.65,0,0,1,146.5,82.8Z"/><path class="cls-20" d="M148.2,84h0a.65.65,0,0,1,.2.9h0L144.7,91a.65.65,0,0,1-.9.2h0a.65.65,0,0,1-.2-.9h0l3.7-6.1a.65.65,0,0,1,.9-.2Z"/><path class="cls-20" d="M150,85.2h0a.65.65,0,0,1,.2.9h0l-3.7,6.1a.65.65,0,0,1-.9.2h0a.65.65,0,0,1-.2-.9l3.7-6.1a.65.65,0,0,1,.9-.2Z"/><path class="cls-25" d="M135.2,85.9l11.5,7.8c.1.1.1.2.1.4h0c-.1.1-.2.2-.3.1h0L135,86.3c-.1-.1-.2-.2-.1-.4h0s.2-.1.3,0Z"/><path class="cls-20" d="M135.6,88.5h0a.65.65,0,0,1,.2.9h0l-3.7,6.1a.65.65,0,0,1-.9.2h0a.65.65,0,0,1-.2-.9l3.7-6.1a.65.65,0,0,1,.9-.2Z"/><path class="cls-20" d="M137.4,89.7h0a.65.65,0,0,1,.2.9l-3.7,6.1a.65.65,0,0,1-.9.2h0a.65.65,0,0,1-.2-.9h0l3.7-6.1a.63.63,0,0,1,.9-.2Z"/><path class="cls-20" d="M139.1,90.9h0a.65.65,0,0,1,.2.9l-3.7,6.1a.65.65,0,0,1-.9.2h0a.65.65,0,0,1-.2-.9h0l3.7-6.1A.65.65,0,0,1,139.1,90.9Z"/><path class="cls-20" d="M140.8,92.1h0a.65.65,0,0,1,.2.9l-3.6,6.2a.65.65,0,0,1-.9.2h0a.65.65,0,0,1-.2-.9l3.7-6.1A.63.63,0,0,1,140.8,92.1Z"/><path class="cls-20" d="M142.6,93.3h0a.65.65,0,0,1,.2.9h0l-3.7,6.1a.65.65,0,0,1-.9.2h0a.65.65,0,0,1-.2-.9l3.7-6.1A.65.65,0,0,1,142.6,93.3Z"/><path class="cls-20" d="M144.3,94.5h0a.65.65,0,0,1,.2.9l-3.7,6.1a.65.65,0,0,1-.9.2h0a.65.65,0,0,1-.2-.9l3.7-6.1a.65.65,0,0,1,.9-.2Z"/><path class="cls-25" d="M129.6,95.2l11.5,7.8c.1.1.1.2.1.4h0c-.1.1-.2.2-.3.1h0l-11.5-7.9c-.1-.1-.2-.2-.1-.4h0q0-.15.3,0Z"/><path class="cls-20" d="M164.7,52.5l-5.6-3.8-1.5,1.2,10.7,7.2,2.1-10-.5-.4-.9-.6-.1-.1-.1.5h0l-1.5,5.4A1.58,1.58,0,0,1,164.7,52.5Z"/><path class="cls-26" d="M159.1,51.3l3.6,2.4a.44.44,0,0,1,.1.5h0c-.1.2-.3.2-.5.1l-3.6-2.4c-.1-.1-.2-.3-.1-.4h0c.2-.2.4-.3.5-.2Z"/><path class="cls-26" d="M158.1,50.7h0a.44.44,0,0,0-.5.1h0c-.1.2-.1.4.1.5h.1a.44.44,0,0,0,.5-.1h0C158.3,51,158.3,50.8,158.1,50.7Z"/><path class="cls-26" d="M157.4,55.3l5.6,3.8c.2.1.2.3.1.5h0c-.1.2-.3.2-.5.1L157,55.9c-.2-.1-.2-.3-.1-.5h0C157.1,55.3,157.3,55.2,157.4,55.3Z"/><path class="cls-26" d="M156.2,54.5l-.4-.3a.44.44,0,0,0-.5.1h0a.44.44,0,0,0,.1.5l.4.2c.2.1.4.1.5-.1h0A.25.25,0,0,0,156.2,54.5Z"/><path class="cls-26" d="M149.3,68.7l5.6,3.8a.44.44,0,0,1,.1.5h0a.25.25,0,0,1-.4.1h0L149,69.3c-.2-.1-.2-.3-.1-.5h0A.25.25,0,0,1,149.3,68.7Z"/><path class="cls-26" d="M148.1,67.8l-.4-.2a.44.44,0,0,0-.5.1h0c-.1.2-.1.4.1.5l.4.2a.25.25,0,0,0,.4-.1h0A.28.28,0,0,0,148.1,67.8Z"/><path class="cls-27" d="M27.4,129.2,2.9,123.4s-.7-.7-.5-1.2.4-.9.6-1.3a1.09,1.09,0,0,0-.3-1.3l-.9-.9c-.1-.1-.4-.4-.2-.7l3.6-8.5c.2-.4.5-1.1,1.9-1s9.2.3,9.5.3a2,2,0,0,0,1.8-1c.4-.9,4.1-9.8,4.5-10.8s1-1.2,2.3-1.1,15.3,2,15.3,2Z"/><path class="cls-28" d="M18.4,107.8h0v-.3l.1-.1v-.1l.1-.1.1-.1.1-.1.1-.2.1-.2.1-.2.1-.2.1-.2.1-.2.1-.2.1-.2.1-.2.1-.2-.3-.3.1-.2.1-.2.1-.2.1-.2.1-.2.1-.2.1-.2.1-.2.1-.2.1-.2.1-.2.1-.2.1-.2.1-.2.1-.2.1-.2.1-.2.1-.2.1-.2.1-.2.1-.2.1-.2.1-.2.1-.2.1-.2.1-.2.1-.2.1-.2.1-.2.1-.2.1-.1.1-.1.1-.1V97.3h0c.4-1,1-1.2,2.3-1.1S41,98,41,98L28.6,127.7l-15-7.1Z"/><path class="cls-25" d="M20.2,146.4,2.5,124.5s-.7-.7-.5-1.2l.5-1.3a1.09,1.09,0,0,0-.3-1.3l-.9-.9c-.1-.1-.4-.4-.2-.7s.3-.8.5-1.2a1.76,1.76,0,0,1,1.9-1.1c1.4.1,9.2.3,9.5.3a1.87,1.87,0,0,0,1.8-.9c.4-.9.4-1.1.8-2s1-1.2,2.3-1.1,15.3,2,15.3,2Z"/><path class="cls-22" d="M4.4,124.5l2.5-6.1c0-.1.1-.1.2-.1l.3.2c.1,0,.1.2.1.3L5,124.9c0,.1-.1.1-.2.1l-.3-.3C4.4,124.7,4.4,124.5,4.4,124.5Z"/><path class="cls-29" d="M19.9,113.4l.8.1-1.4,3.3c0,.1-.1.1-.2.1h0l-.3-.2c-.1,0-.1-.2-.1-.3Z"/><path class="cls-29" d="M3.5,116.9h.8l-1,2.4c0,.1-.1.1-.2.1l-.3-.2a.37.37,0,0,1-.1-.3Z"/><path class="cls-22" d="M9.8,126.2l2.5-6.1c0-.1.1-.1.2-.1l.3.2c.1,0,.1.2.1.3l-2.5,6.1c0,.1-.1.1-.2.1l-.3-.2C9.8,126.4,9.7,126.3,9.8,126.2Z"/><path class="cls-29" d="M6.4,129.4l-.3-.3,2-4.9c0-.1.1-.1.2-.1l.3.2c.1,0,.1.1.1.2h0l-2.2,5.2Z"/><path class="cls-22" d="M12.8,119.1l.3-.6c0-.1.1-.1.2-.1l.3.2c.1,0,.1.2.1.3l-.3.6c0,.1-.1.1-.2.1l-.3-.2C12.8,119.3,12.7,119.2,12.8,119.1Z"/><path class="cls-27" d="M21.3,143.8,7.9,131.6l2.5-6c.7-1.6,1.1-1.7,2.2-1.7l1.9-.1a2.6,2.6,0,0,0,2.4-1.6l.8-2s.3-.9,1.8-.6,11.2,1.8,11.2,1.8Z"/><path class="cls-28" d="M14.5,137.6l-3-2.7,5.3-12.7.8-2h0c0-.1.4-.9,1.8-.6s11.2,1.8,11.2,1.8l-8.3,19.9Z"/><path class="cls-29" d="M18.6,150.1,7.3,136.4c-1.1-1.4-.9-1.6-.2-3.3l.6-1.4c.7-1.7.4-1.4,2.2-1.5l1.8-.1a2.6,2.6,0,0,0,2.4-1.6l.8-2s.3-.9,1.8-.6,11.2,1.8,11.2,1.8Z"/><path class="cls-30" d="M12.4,141.2l2.5-6.1c0-.1.1-.1.2-.1l.3.2c.1,0,.1.2.1.3L13,141.6c0,.1-.1.1-.2.1l-.3-.2A.37.37,0,0,1,12.4,141.2Z"/><path class="cls-30" d="M18,134.1l2.5-6.1c0-.1.1-.1.2-.1l.3.2c.1,0,.1.2.1.3l-2.5,6.1c0,.1-.1.1-.2.1l-.3-.2C18,134.3,17.9,134.2,18,134.1Z"/><path class="cls-30" d="M12.1,136.4l2.5-6.1c0-.1.1-.1.2-.1l.3.2c.1,0,.1.2.1.3l-2.5,6.1c0,.1-.1.1-.2.1l-.3-.2A.19.19,0,0,1,12.1,136.4Z"/><path class="cls-31" d="M24,129.3l.8-2,.7.1-.9,2.2c0,.1-.1.1-.2.1l-.3-.2c-.1,0-.1-.1-.1-.2Z"/><path class="cls-31" d="M9.2,132.9l1.1-2.7h.8l-1.3,3c0,.1-.1.1-.2.1l-.3-.2c-.1,0-.2-.1-.1-.2Z"/><path class="cls-30" d="M19.8,142.3l2.5-6.1c0-.1.1-.1.2-.1l.3.2c.1,0,.1.2.1.3l-2.5,6.1c0,.1-.1.1-.2.1l-.3-.2A.37.37,0,0,1,19.8,142.3Z"/><path class="cls-30" d="M15,129.4l.3-.6c0-.1.1-.1.2-.1l.3.2c.1,0,.1.2.1.3l-.3.6c0,.1-.1.1-.2.1l-.3-.2C15,129.7,15,129.5,15,129.4Z"/><path class="cls-30" d="M22.7,135.4l.3-.6c0-.1.1-.1.2-.1l.3.2c.1,0,.1.2.1.3l-.3.6c0,.1-.1.1-.2.1l-.3-.2A.37.37,0,0,1,22.7,135.4Z"/><path class="cls-30" d="M8.5,134.4l.3-.6c0-.1.1-.1.2-.1l.3.2c.1,0,.1.2.1.3l-.3.6c0,.1-.1.1-.2.1l-.3-.2A.37.37,0,0,1,8.5,134.4Z"/><path class="cls-32" d="M8.9,44.5,11,42.8l.4.5c.7,1,1.4,1.9,2.1,2.8,1.8,2.4,3.6,4.7,5.5,7A141.38,141.38,0,0,0,37.5,71.7c7.4,5.9,17,11.9,26.5,11.8h1.8l-9,7.3-.4-.5a10.1,10.1,0,0,0-14.6-2.4,11.49,11.49,0,0,0-2.3,15.4,1.38,1.38,0,0,1,.3.4l.4.5-9,7.3.5-1.8c2.7-9.7-.1-21.2-3.6-30.3A136.57,136.57,0,0,0,16.2,55.5c-1.6-2.6-3.2-5.1-4.9-7.5-.7-1-1.3-1.9-2-2.9Zm16,20.2c.2.3.3.6.5.9.7,1.2,1.3,2.4,1.9,3.6A13.9,13.9,0,0,1,28.5,72a2.38,2.38,0,0,0,1.1-.6,3.92,3.92,0,0,0,.8-1,20.89,20.89,0,0,1-2.2-2c-.9-.9-1.8-1.9-2.7-2.9l-.6-.8ZM38.3,83.3,41,81.1c.3-.2.4-.4.1-.7-1-1-2.1-1.9-3.2-2.9l-2.8-2.6c-.3-.3-.8-.7-1.2-.4l-1.1.9-1.1.9c-.4.3-.2,1,0,1.4.5,1.2,1,2.4,1.6,3.6s1.1,2.7,1.8,4c.2.4.4.4.7.1Z"/><path class="cls-33" d="M7.6,45.6l2.1-1.7.4.5c.7,1,1.4,1.9,2.1,2.8,1.8,2.4,3.6,4.7,5.5,7A141.38,141.38,0,0,0,36.2,72.8c7.3,5.9,17,11.9,26.5,11.8h1.8l-9,7.3-.4-.5A10.1,10.1,0,0,0,40.5,89a11.49,11.49,0,0,0-2.3,15.4,1.38,1.38,0,0,1,.3.4l.4.5-9,7.3.5-1.8c2.7-9.8-.2-21.2-3.6-30.4A152.13,152.13,0,0,0,14.9,56.5c-1.6-2.6-3.2-5.1-4.9-7.5-.7-1-1.3-1.9-2-2.9Zm16,20.1c.2.3.3.6.5.9.7,1.2,1.3,2.4,1.9,3.6A23.94,23.94,0,0,1,27.3,73a2.38,2.38,0,0,0,1.1-.6c.2-.1.8-.7.8-1a20.89,20.89,0,0,1-2.2-2c-.9-.9-1.8-1.9-2.7-2.9l-.6-.8ZM37,84.3l2.7-2.1c.3-.3.4-.4.1-.7-1-1-2.1-1.9-3.1-2.9L33.9,76c-.4-.2-1-.6-1.4-.3l-1.1.9-1.1.9c-.4.3-.2,1,0,1.4.5,1.2,1,2.4,1.6,3.6s1.1,2.7,1.8,4c.2.4.4.4.7.1Z"/><path class="cls-34" d="M48.7,76.5h0a3.21,3.21,0,0,1-.5,4.2L30.6,94.9a2.67,2.67,0,0,1-3.9-.6h0Z"/><path class="cls-35" d="M25.7,94.1,48.9,75.4a.63.63,0,0,1,.9.1h0a.76.76,0,0,1-.1,1L26.5,95.2a.77.77,0,0,1-1-.1h0A1,1,0,0,1,25.7,94.1Z"/><path class="cls-34" d="M7,42.8l1.2-1a1.42,1.42,0,0,1,2,.1l1.7,2.4a1.69,1.69,0,0,1-.4,2.1l-1.2,1a1.34,1.34,0,0,1-2-.1L6.6,44.9A1.66,1.66,0,0,1,7,42.8Z"/><path class="cls-34" d="M9,47.3,11.9,45c.5-.4,1.1-.4,1.3,0l.5.6c.2.3,0,.9-.4,1.3l-2.9,2.3c-.5.4-1.1.4-1.3,0l-.6-.5A1.23,1.23,0,0,1,9,47.3Z"/><path class="cls-34" d="M2,34.8l.4-.3a.49.49,0,0,1,.7.1l5.2,7.3a.49.49,0,0,1-.1.7l-.4.3a.49.49,0,0,1-.7-.1L1.9,35.5a.62.62,0,0,1,.1-.7Z"/><path class="cls-34" d="M34.7,67.8h0a3.06,3.06,0,0,1-.5,4.1l-7.7,6.2a2.67,2.67,0,0,1-3.9-.6h0Z"/><path class="cls-35" d="M21.5,77.4,34.8,66.7a.63.63,0,0,1,.9.1h0a.76.76,0,0,1-.1,1h0L22.4,78.5a.77.77,0,0,1-1-.1h0A.92.92,0,0,1,21.5,77.4Z"/><path class="cls-36" d="M35.6,52.2,71.5,34.1a1.1,1.1,0,0,1,1.5.6L75.4,40a1.26,1.26,0,0,1-.5,1.6l-36,18.1a1.1,1.1,0,0,1-1.5-.6L35,53.8A1.3,1.3,0,0,1,35.6,52.2Z"/><path class="cls-37" d="M38,60.2,75.9,41.1l14.3,32L77.4,79.6l-8-17.8a6.62,6.62,0,0,0-8.8-4.1A7.37,7.37,0,0,0,56.7,67a4.67,4.67,0,0,0,.5,1l8,17.8L52.3,92.3Z"/><path class="cls-38" d="M38,60.2h.1l.6-.3h.1l.7-.3h0l.7-.3h0l.7-.3h0l.6-.3h.1l.6-.3h.1l.5-.3.1-.1.5-.2.2-.1.4-.2.2-.1.4-.2.2-.1.4-.2.2-.1.3-.2.3-.1.3-.2.3-.1.3-.1.3-.2.3-.1.3-.2.2-.1.4-.2.2-.1L49,55l.2-.1.4-.2.1-.1.4-.2.1-.1.4-.2.1-.1.4-.2h.1l.5-.2h.1l.5-.2h.1l.5-.2h0l.5-.2h0l.5-.2h0l.5-.3h0l.5-.2h0l.5-.3h0l.5-.2h0l.5-.3h0l.5-.2h0l.5-.2h0l.5-.2h0l.5-.2h0l.5-.2h0l.5-.2h.1v-.6h.1l.4-.2h.1l.4-.2h.1l.4-.2.6-.8.4-.2.1-.1.4-.2.2-.1.4-.2.2-.1.4-.2.2-.1.3-.2.3-.1.3-.2.3-.1.3-.1.3-.1.3-.1.3-.2.3-.1.4-.2.2-.1.4-.2.2-.1.4-.2.2-.1.5-.2H69l.5-.3.1-.1.6-.3h.1l.6-.4h0l.7-.3h0l.7-.3h0l.7-.3h.1l.6-.3h.1L88.3,74.3,77.5,79.7l-8-17.8a6.59,6.59,0,0,0-9-3.4c-.3.2-.7.4-1,.6s-.7.3-1.1.4a7.39,7.39,0,0,0-3.2,9.6l8,17.8L52.4,92.3Z"/><path class="cls-39" d="M43.9,73.5l13-6.6a1.18,1.18,0,0,1,1.5.6h0a1.38,1.38,0,0,1-.5,1.6l-13,6.6a1.14,1.14,0,0,1-1.5-.5h0A1.25,1.25,0,0,1,43.9,73.5Z"/><path class="cls-39" d="M39.2,63.6,59.7,53.2l17.8-9a1.79,1.79,0,0,0,.8-2.4h0a1.72,1.72,0,0,0-2.3-.9l-17.8,9L37.7,60.3a1.89,1.89,0,0,0-.8,2.4h0A1.6,1.6,0,0,0,39.2,63.6Z"/><path class="cls-38" d="M80.1,37.2l-23.8,12-23.8,12c-.4.2-.2.6.3,1l1.1.8a2,2,0,0,0,1.6.4L57.6,52.2,79.7,41a2.26,2.26,0,0,0,.8-1.6l.1-1.5C80.7,37.5,80.5,37,80.1,37.2Z"/><path class="cls-39" d="M34.4,54,73.5,34.2a.69.69,0,0,1,.9.3h0a.63.63,0,0,1-.3.9L35,55.3a.69.69,0,0,1-.9-.3h0a.78.78,0,0,1,.3-1Z"/><path class="cls-40" d="M41.6,63.8,51.1,59a.52.52,0,0,1,.7.3l2.8,6.3a.57.57,0,0,1-.2.7l-9.5,4.8a.52.52,0,0,1-.7-.3l-2.8-6.3A.62.62,0,0,1,41.6,63.8Z"/><polygon class="cls-36" points="43.2 64.8 50.8 61 52.8 65.4 45.2 69.2 43.2 64.8"/><path class="cls-40" d="M47.2,76.3l9.5-4.8a.52.52,0,0,1,.7.3l5.3,11.8a.57.57,0,0,1-.2.7L53,89.1a.52.52,0,0,1-.7-.3L47,77A.62.62,0,0,1,47.2,76.3Z"/><polygon class="cls-36" points="48.8 77.3 56.4 73.5 60.8 83.3 53.3 87.2 48.8 77.3"/><path class="cls-39" d="M68.9,60.8l13-6.6a1.14,1.14,0,0,1,1.5.5h0a1.38,1.38,0,0,1-.5,1.6l-13,6.6a1.1,1.1,0,0,1-1.5-.6h0A1.28,1.28,0,0,1,68.9,60.8Z"/><path class="cls-40" d="M66.7,51.2l9.5-4.8a.52.52,0,0,1,.7.3L79.7,53a.57.57,0,0,1-.2.7L70,58.5a.52.52,0,0,1-.7-.3l-2.8-6.3A.43.43,0,0,1,66.7,51.2Z"/><polygon class="cls-36" points="68.3 52.2 75.9 48.3 77.9 52.7 70.3 56.5 68.3 52.2"/><path class="cls-40" d="M72.3,63.6l9.5-4.8a.52.52,0,0,1,.7.3l5.3,11.8a.57.57,0,0,1-.2.7l-9.5,4.8a.52.52,0,0,1-.7-.3L72.1,64.3C71.9,64.1,72.1,63.8,72.3,63.6Z"/><polygon class="cls-36" points="73.9 64.7 81.5 60.8 85.9 70.7 78.3 74.5 73.9 64.7"/><path class="cls-37" d="M72.1,36.5l.7,1.5a1.38,1.38,0,0,1-.5,1.6L36.7,57.5l.6,1.3,19-9.6,19-9.6-1.8-3.8Z"/><path class="cls-37" d="M71.5,35.3l1.4-.7a1,1,0,0,0-1.4-.4l-.4.2Z"/><path class="cls-41" d="M36.3,60.2l1.1-.5a.73.73,0,0,1,1,.4h0a.7.7,0,0,1-.4,1l-1.1.5a.73.73,0,0,1-1-.4h0A.7.7,0,0,1,36.3,60.2Z"/><path class="cls-41" d="M39.8,58.4l9.7-4.9a.73.73,0,0,1,1,.4h0a.7.7,0,0,1-.4,1l-9.7,4.9a.73.73,0,0,1-1-.4h0A.73.73,0,0,1,39.8,58.4Z"/><path class="cls-42" d="M84.4,42.5v.2a1.06,1.06,0,0,0,.6.7l13.1,7.4.2.9H99a1,1,0,0,0,.8-.9V50l-.8-.6-11.2-8Z"/><rect class="cls-43" x="84.8" y="41.2" width="13.9" height="24.1"/><path class="cls-44" d="M97.7,65.3H96.1V42.5h1.7l-.1,22.8Zm-2.7,0h-.8V42.5h.7L95,65.3Zm-3.8,0H89.7V42.5h1.5Zm-4.7,0h-.7V42.5h.7Z"/><path class="cls-42" d="M84.8,41.2H98.7v9.3l-1.8-1.2c-1.6-1-7.2-4.4-8.6-5.2a7.31,7.31,0,0,0-3.3-.8h-.3V41.2Z"/><path class="cls-45" d="M91.5,11l-2.7.1v2.4a1.78,1.78,0,0,1-2,2.1H80.7c-1.4,0-1.4,1.2-3.4,1.2H68.6c-1,0-.9-.8-1.9-.8H62.9c-.8,0-1,1,.4,1.9.8.6,1.7,1.1,2.5,1.6a6.52,6.52,0,0,0,2.4.2c.6,0,.6-.6,1.4-.6h.8v2a3.33,3.33,0,0,0,1.1,2.1,15.45,15.45,0,0,0,2.4,1.9,6.54,6.54,0,0,0,3.1-.2l1.5-.3a6.48,6.48,0,0,1,2-.2h1.4a1.2,1.2,0,0,1,1.3,1v8.7c0,.7,1,.9,1,2.2v6.2h.7a6.36,6.36,0,0,1,3.3.7c1.4.8,7,4.2,8.6,5.2a14.37,14.37,0,0,1,2.5,1.8,1.61,1.61,0,0,1,.4.7V32.1h0V25.6a1.13,1.13,0,0,1,1.1-1.2h1.6a13.55,13.55,0,0,1,2,.2l1.5.3a6.54,6.54,0,0,0,3.1.2,11.78,11.78,0,0,0,2.5-1.9,2.92,2.92,0,0,0,1.1-2.1v-2h.8c.8,0,.8.6,1.4.6a6.52,6.52,0,0,0,2.4-.2,21.28,21.28,0,0,0,2.5-1.6c1.4-.9,1.2-1.9.4-1.9h-3.6c-1.1,0-.9.8-1.9.8h-8.7c-2,0-2-1.2-3.4-1.2H96.3a1.78,1.78,0,0,1-2-2.1V11.1Z"/><path class="cls-44" d="M84.4,41.7v.9h.7a6.36,6.36,0,0,1,3.3.7c1.4.8,7,4.2,8.6,5.2a14.37,14.37,0,0,1,2.5,1.8,1.61,1.61,0,0,1,.4.7V46.3a1.24,1.24,0,0,1-1.4.3c-1.7-.5-2-3.3-2-5.4V24.9c0-3.6-.9-.5-.9,1V37.5c0,2.6-1.1,4.2-4.5,4.2Z"/><path class="cls-44" d="M91.5,11l-2.7.1v2.3a9.72,9.72,0,0,0,1.5,1c.9.5.8,1.3.1,2.4s-1.5,1.8-1.7,2.1.3.6,1-.1S91.6,16,92.9,16h1.8a1.78,1.78,0,0,0,1-.4,1.67,1.67,0,0,1-1.6-1.7V11.2Z"/><path class="cls-44" d="M99.8,33.4V32.1h0V25.6a1.13,1.13,0,0,1,1.1-1.2h1.6a13.55,13.55,0,0,1,2,.2l1.5.3a6.54,6.54,0,0,0,3.1.2,11.78,11.78,0,0,0,2.5-1.9l.2-.2h0a3.38,3.38,0,0,0,.9-1.9v-2s-1.7,2.5-2.6,3.5l-.1.2-.2.2h0c-1.3,1.5-2-.4-1.4-1.2s.9-1.5.1-1-4.4,2.9-5.2,2.9-1.4-.6-1-1a20.69,20.69,0,0,1,2-2.7c.6-.6.5-1.1,0-.7s-2.3,1.9-3.1,2.6-1.3.4-1.5,0-.5-2.3-.7-3-.6-1.2-.5-.3S99.8,33.4,99.8,33.4Z"/><path class="cls-44" d="M83.3,34.1c0,.7,1,.9,1,2.2v1.4c0-1.6,1.7-1.7,2.4-1.7s1.1-.8.7-.8H86c-1.1,0-1.3-1.1-1.8-1.1Z"/><path class="cls-44" d="M80.5,15.6c-1.1.1-1.3,1.2-3.2,1.2H75.2a4.72,4.72,0,0,1,3,1c1.1.6,7.5,4.7,8.4,5a3.46,3.46,0,0,0,2,.2c.1-.1-.1-.4-.1-.4s-3-1.8-5.4-3.5-3-2.3-3.2-2.8A1.06,1.06,0,0,1,80.5,15.6Z"/><path class="cls-44" d="M65.8,16H62.9c-.5,0-.7.3-.6.8h1.3c.6,0,1.1-.2,1.7.4s.6.7,1.1.7.5-.4.4-.5l-1-1C65.5,16.2,65.8,16,65.8,16Z"/><path class="cls-44" d="M78.9,24.5a9.85,9.85,0,0,1,1.7-.2H82a1.2,1.2,0,0,1,1.3,1v.2c0-1.3-1.1-2-2.1-2.4s-6.2-2.9-6.7-3.2-1.1-.4-.6.2S78.9,24.5,78.9,24.5Z"/><path class="cls-44" d="M70.4,19.1v2a3.33,3.33,0,0,0,1.1,2.1A11.78,11.78,0,0,0,74,25.1h.1A3.35,3.35,0,0,0,73,22.6C72.2,21.6,70.4,19.1,70.4,19.1Z"/><path class="cls-44" d="M117.4,16h2.9c.5,0,.7.3.6.8h-1.3c-.6,0-1.1-.2-1.7.4s-.6.7-1.1.7-.5-.4-.4-.5l1-1A.28.28,0,0,0,117.4,16Z"/><path class="cls-45" d="M91.5,6.5h0a2.8,2.8,0,0,1,2.7,2.9v1.4a2.71,2.71,0,0,1-2.7,2.8h0a2.78,2.78,0,0,1-2.7-2.8V9.4A2.8,2.8,0,0,1,91.5,6.5Z"/><path class="cls-44" d="M90.4,8.9a.73.73,0,0,0,.7-.6h0a.1.1,0,0,1,.1-.1c.1,0,.1,0,.1.1v1h0c0,.1,0,.1-.1.1H89.6c-.1,0-.1,0-.1-.1V8.9h0a.1.1,0,0,1,.1-.1Z"/><path class="cls-44" d="M92.8,8.9a.73.73,0,0,1-.7-.6h0a.1.1,0,0,0-.1-.1c-.1,0-.1,0-.1.1v.9l-.1,1.5c-.1.1-.2.2-.3.2h-.4l.3.3c.1.1.3.2.4.1s.4-.3.4-.6v-1s0-.3.4-.3h1.1a.1.1,0,0,0,.1-.1V8.9h0c0-.1,0-.1-.1-.1Z"/><path class="cls-44" d="M91.5,11.5h.8c.1,0,.1,0,.1.1h0c0,.1,0,.1-.1.1h-.8s-.1,0,0-.2Z"/><path class="cls-44" d="M90.9,11.8h1.4a.22.22,0,0,1,.2.2h0a.22.22,0,0,1-.2.2H90.9a.22.22,0,0,1-.2-.2h0A.22.22,0,0,1,90.9,11.8Z"/><path class="cls-44" d="M92.7,6.8a2.72,2.72,0,0,1,.9,2.1h0a.1.1,0,0,1,.1.1h0v.4c0,.1,0,.1-.1.1h0v.8a2,2,0,0,1-.1.8,2.67,2.67,0,0,1-2.6,2,4.25,4.25,0,0,1-1.1-.2,2.41,2.41,0,0,0,1.8.7,2.78,2.78,0,0,0,2.7-2.4V9.4A3,3,0,0,0,92.7,6.8Z"/><path class="cls-46" d="M80.5,65h22.6a.65.65,0,0,1,.6.6V86.8a.65.65,0,0,1-.6.6H80.5a.65.65,0,0,1-.6-.6V65.6A.65.65,0,0,1,80.5,65Z"/><path class="cls-47" d="M79.3,62.5h25a.47.47,0,0,1,.5.5v2.6a.47.47,0,0,1-.5.5h-25a.47.47,0,0,1-.5-.5V63A.47.47,0,0,1,79.3,62.5Z"/><path class="cls-48" d="M103.1,65H78.8v.6a.47.47,0,0,0,.5.5h25a.47.47,0,0,0,.5-.5h0V63a.47.47,0,0,0-.5-.5h-.7v2A.47.47,0,0,1,103.1,65Z"/><path class="cls-49" d="M79.9,69.1H99.8a.65.65,0,0,1,.6.6V87.5H103a.65.65,0,0,0,.6-.6V66.2H79.9Z"/><path class="cls-50" d="M86.6,70.2h9.5a1.32,1.32,0,0,1,1.3,1.3h0a1.32,1.32,0,0,1-1.3,1.3H86.6a1.32,1.32,0,0,1-1.3-1.3h0A1.32,1.32,0,0,1,86.6,70.2Z"/><path class="cls-50" d="M82.6,70.2h0a1.26,1.26,0,0,1,1.3,1.3h0a1.32,1.32,0,0,1-1.3,1.3h-.1a1.32,1.32,0,0,1-1.3-1.3h0A1.58,1.58,0,0,1,82.6,70.2Z"/><path class="cls-51" d="M91.5,74.6c40.6,0,73.6,34.8,73.6,77.9v.1H18c0-43,32.9-77.9,73.5-78Z"/><path class="cls-52" d="M88.4,141.8s-2.6,1.3-3.9.8-2.5-2.1-3.3-1.2-3,1.4-3.8.6a3.21,3.21,0,0,0-4.2-.4c-2,1.2-4.8-.1-6.5-.6s-3.4-2.9-3.9-3.6-1.3-.3-3.3-.1-3-1.9-4.6-2a27.85,27.85,0,0,0-5,.1c-1,.1-2.3,2.9-3.2,4.2s-11,11.3-12.1,12.6l-.3.3H92.6a26.77,26.77,0,0,1-1.1-3.5c-.5-1.6.5-3.6.7-4.3s.8-.4,2-.4,2.3,4.1,2.8,5.7c.4,1.2,1.5,1.7,2.5,2.5h13.6a27.46,27.46,0,0,1-3.2-4.4c-.4-.6.8-1.5,1.7-2a3.58,3.58,0,0,1,2.5,0c.7.1,3.4.6,4,.8s.6,1.6,3.9,2,4.2.6,5.7.9,2.3-.6,4-.5,2.2,1.1,2.8,2.1a1.28,1.28,0,0,1,0,1.2h18.1a31.06,31.06,0,0,1,.4-3.2c.4-1.4,2.8-.8,3.7-.4.4.2.8,1.8,1.1,3.6h7.1c0-32.2-18.7-61.1-47-72.7-1.3,0-4,.1-4.4.7-.6.8-1.7,2.6-3,3.1s-2.6-.1-3.7.8a32.25,32.25,0,0,0-2.5,2.4,26.72,26.72,0,0,1-.9,2.6,4.53,4.53,0,0,1-3.7,2.4c-.8,0-1.8-.9-2.4-1s-2.8.2-3.4.1-1.6-1.6-1.7-2.4-1-.9-2-.9-1.7-2,.1-2h2.4c.9,0,1.1-1.4,2.3-1.4h2.4c1,0,2.9.1,2.9-2.7s-2.3-2.7-5.8-2.7-2.4-1.5-4.7-1.5H86.6c-1.1,0-1.9-1.3-2.1-2.1v-.1a71.89,71.89,0,0,0-17.1,3.9,3.2,3.2,0,0,1-.3,2.7,16,16,0,0,1-2.7,2.5c-1.1,1-.2,2.1-1.3,3.7l-3.2,4.5a2.19,2.19,0,0,0-.4,1.9,7.49,7.49,0,0,1-1,3.3c-.3.7.8,2.6,1.4,3.2s2.2-.3,2.8-.4,2,2,2.4,2.4a5.69,5.69,0,0,0,2.6.4,3.33,3.33,0,0,0,2.8-1.2,27.06,27.06,0,0,0,2.1-3.7c.3-.6-.4-4.2-.4-4.9a5.56,5.56,0,0,1,1.3-3.2c1.1-1.6,1.6-2.1,1.9-2.6s1.4-.5,2-.1a2,2,0,0,1,1,2.5c-.1.2-.1.3-.2.5-.9,1.8-1.5,2.9-1.7,3.3a2.6,2.6,0,0,0,.6,2.9c1.2.9,2.1.1,3.2-.9,1.5-1.6,2.9-3.3,4.3-5,.4-.6,1.2-.4,1.9-.3s.4,1.4.4,2.2A3.33,3.33,0,0,0,88,94.9c.5.4,1.5-.5,2.5-.2a6.52,6.52,0,0,1,2.4,2.2c.2.4.9,2.6-1.9,2.6H82.4c-2.8,0-3.1,7.5-7.9,7.5H64.9c-3.1,0-5.6,5.1-9.1,5.1s-3.9,1.2-5,2.7-2.6,3.8-2.3,5.3,1,3.1-.8,5.2-2.7,1.6-4.2,1.7-2.5,1.7-3,3.2-.2,4.3,1.9,4.3h3.4c1.1,0,3.9-.8,3.9-3.5v-3.6c0-.8-.2-1.8,1.4-4s2.7-2,4.9-2h3.3c1.5,0,3.1.9,4.7,3.5s1.5,2,3.1,2a35.3,35.3,0,0,1,4.6,0c.6.2,3,.7,3,4.6,0,0,0,2.3,1.8,2.3h2.7c1.2,0,1.1-2,2.5-2h2.5c.8,0,1.1,3.5,2.2,4.5s1.8.9,3.2.9,2.7.7,2.7,2,.1,2.6-1.3,2.6a5.7,5.7,0,0,0-2.6,0Zm-34.3-42s1.7,3,2.1,3.6.9.6,1.7.6h2.4a1.19,1.19,0,0,1,1.1,1.4c0,.8-.5,1.6-2.3,1.6H53.5c-1,0-2-2.6-4.4-2.6s-3-2.6-1.3-2.6h3.5c.9,0,.8-1.5.8-1.9s1.6-.8,2-.1Zm69.2,23.9a2.41,2.41,0,1,1-2.2,2.4,2.21,2.21,0,0,1,2.2-2.4ZM84,122.2a37.28,37.28,0,0,1,3.2-3.6,2.86,2.86,0,0,1,2.2-.6H91c.3,0,.5.9,1.1.9h1.4a3.82,3.82,0,0,1,2.7.7,41.17,41.17,0,0,1,3.3,4.3,3.22,3.22,0,0,1,.6,2.3c0,1.4-.6,1.6-1.5,1.6H91.9c-1.4,0-1.5-.9-3.8-.9H85.4c-2.6-.1-2.3-3.5-1.4-4.7Zm29.7-1.3c1.1,0,1.3,1.9,1.3,1.9v5.8c0,3,1.6,3,4.2,3s1.9,4.4.4,4.4h-5.9c-1.7,0-2.3-1-2.3-3.2v-8.5C111.4,121.1,113.7,120.9,113.7,120.9Z"/><path class="cls-51" d="M140.3,152.7h12.5a31.06,31.06,0,0,1,.4-3.2c.4-1.4,2.8-.8,3.7-.4.4.2.8,1.8,1.1,3.6h3.4c0-24.3-11.3-47-30.1-60.9a10.25,10.25,0,0,0-14.5,3.9,11.7,11.7,0,0,0,2.4,14.5,51.6,51.6,0,0,1,15.5,18.5A53.57,53.57,0,0,1,140.3,152.7Z"/><path class="cls-53" d="M125.7,100.8a3,3,0,0,1-.7-3.9,2.53,2.53,0,0,1,3.7-.7h0c.5.3,1,.8,1.6,1.2s1.1.9,1.6,1.3a2.93,2.93,0,0,1,.4,3.9,2.5,2.5,0,0,1-3.7.4h0a15.76,15.76,0,0,0-1.5-1.2c-.3-.2-.8-.6-1.4-1Zm8.9,8.1a2.93,2.93,0,0,1-.1-4,2.49,2.49,0,0,1,3.7-.1l.2.2a66.11,66.11,0,0,1,15.4,30.1,2.83,2.83,0,0,1-2.2,3.2,2.55,2.55,0,0,1-2.9-2,62.48,62.48,0,0,0-14.1-27.4Z"/><path class="cls-54" d="M30.8,152.7a82.13,82.13,0,0,1,8.5-54.9A79.69,79.69,0,0,0,18,152.7Z"/><path class="cls-7" d="M30,48a.3.3,0,0,1,0,.6h-.4V49a.3.3,0,0,1-.6,0v-.4h-.4a.3.3,0,0,1,0-.6H29v-.4a.3.3,0,0,1,.6,0V48Z"/><path class="cls-7" d="M17.2,97.1a.3.3,0,1,1,0,.6h-.4v.4a.3.3,0,1,1-.6,0v-.4h-.4a.3.3,0,1,1,0-.6h.4v-.4a.3.3,0,0,1,.6,0v.4Z"/><path class="cls-7" d="M105.3,33.6a.3.3,0,1,1,0,.6h-.4v.4a.3.3,0,0,1-.6,0v-.4h-.4a.3.3,0,1,1,0-.6h.4v-.4a.3.3,0,1,1,.6,0v.4Z"/><path class="cls-7" d="M152.2,49.4a.3.3,0,1,1,0,.6h-.4v.4a.3.3,0,0,1-.6,0V50h-.4a.3.3,0,1,1,0-.6h.4V49a.3.3,0,1,1,.6,0v.4Z"/><path class="cls-7" d="M167.5,67.1a.27.27,0,0,1,.3.3.32.32,0,0,1-.3.3h-.4v.4a.3.3,0,0,1-.6,0v-.4h-.4a.3.3,0,0,1,0-.6h.4v-.4a.3.3,0,0,1,.6,0v.4Z"/><path class="cls-7" d="M137.9,37.2a.3.3,0,1,1,0,.6h-.4v.4a.3.3,0,1,1-.6,0v-.4h-.4a.3.3,0,1,1,0-.6h.4v-.4a.3.3,0,1,1,.6,0v.4Z"/><path class="cls-7" d="M183.2,100.3a.3.3,0,0,1,0,.6h-.4v.4a.32.32,0,0,1-.6.2V101h-.4a.3.3,0,1,1,0-.6h.4V100c0-.2.2-.3.4-.2a.22.22,0,0,1,.2.2v.4h.4Z"/><path class="cls-7" d="M4.1,64.4c.2,0,.3.2.2.4a.22.22,0,0,1-.2.2H3.7v.4a.27.27,0,0,1-.3.3.27.27,0,0,1-.3-.3V65H2.7a.52.52,0,0,1-.4-.2.52.52,0,0,1,.2-.4H3v-.5a.27.27,0,0,1,.3-.3.27.27,0,0,1,.3.3v.4Z"/><path class="cls-7" d="M104,110.7a.3.3,0,0,1,0,.6h-.4v.4a.3.3,0,0,1-.6,0v-.4h-.4a.3.3,0,0,1,0-.6h.4v-.4a.3.3,0,0,1,.6,0v.4Z"/><path class="cls-7" d="M36.3,137.5a.3.3,0,1,1,0,.6h-.4v.4a.3.3,0,1,1-.6,0v-.4h-.4a.3.3,0,1,1,0-.6h.4v-.4a.3.3,0,1,1,.6,0v.4Z"/><path class="cls-7" d="M71.8,85.1a.3.3,0,1,1,0,.6h-.4v.4c0,.2-.2.3-.4.2a.22.22,0,0,1-.2-.2v-.4h-.3a.3.3,0,0,1,0-.6h.4v-.4c0-.2.2-.3.4-.2a.22.22,0,0,1,.2.2v.4Z"/><path class="cls-7" d="M55.1,6.5a.27.27,0,0,1,.3.3.27.27,0,0,1-.3.3h-.4v.4a.3.3,0,0,1-.6,0V7.1h-.4a.27.27,0,0,1-.3-.3.27.27,0,0,1,.3-.3h.4V6.1a.3.3,0,0,1,.6,0v.4Z"/><path class="cls-7" d="M178.6,2.2c.2,0,.3.2.2.4a.22.22,0,0,1-.2.2h-.4v.4a.3.3,0,1,1-.6,0V2.8h-.4c-.2,0-.3-.2-.2-.4a.22.22,0,0,1,.2-.2h.4V1.7a.3.3,0,1,1,.6,0v.4Z"/><path class="cls-7" d="M127,.7a.27.27,0,0,1,.3.3.27.27,0,0,1-.3.3h-.4v.4a.3.3,0,1,1-.6,0V1.3h-.4a.27.27,0,0,1-.3-.3.27.27,0,0,1,.3-.3h.4V.3a.3.3,0,1,1,.6,0h0V.7Z"/><path class="cls-7" d="M3.7,27.1a.27.27,0,0,1,.3.3.32.32,0,0,1-.3.3H3.3v.4a.27.27,0,0,1-.3.3.27.27,0,0,1-.3-.3v-.4H2.3a.3.3,0,0,1,0-.6h.4v-.4a.27.27,0,0,1,.3-.3.27.27,0,0,1,.3.3v.4Z"/><path class="cls-7" d="M33.9,11.6a.3.3,0,0,1,0,.6h-.4v.4a.3.3,0,0,1-.6,0v-.4h-.4a.3.3,0,0,1,0-.6h.4v-.4a.3.3,0,0,1,.6,0v.4Z"/><path class="cls-7" d="M145.3,7.6a.3.3,0,1,1,0,.6h-.4v.4a.3.3,0,0,1-.6,0V8.2h-.4a.3.3,0,0,1,0-.6h.4V7.2a.3.3,0,0,1,.6,0v.4Z"/><path class="cls-20" d="M145.4,33h0l.5,2.2v.1h-.1l-.4-2.3Zm4.5.1-.4,2.2h-.1v-.1l.5-2.1Zm-1.4-.1h0c.1,0,.1,0,.1.1l-.3,2.2h-.1v-.1l.3-2.2Zm-1.7,0h0l.3,2.2a.1.1,0,0,1-.1.1Z"/><path class="cls-55" d="M149.8,32.6v-.3a5,5,0,0,1,.9-2.3c9.2-9.4,11-26-3-25.9s-12.3,16.5-3,25.9a3.78,3.78,0,0,1,.8,2.3v.3Z"/><path class="cls-24" d="M146.7,35h2a.9.9,0,0,1,.9.9v1.7a.9.9,0,0,1-.9.9h-2a.9.9,0,0,1-.9-.9V35.9A1,1,0,0,1,146.7,35Z"/><path class="cls-56" d="M145.8,35h3.8a.32.32,0,0,1,.3.3v.4a.32.32,0,0,1-.3.3h-3.8a.32.32,0,0,1-.3-.3v-.4A.32.32,0,0,1,145.8,35Z"/><path class="cls-24" d="M145.5,35h4.4a.22.22,0,0,1,.2.2h0a.35.35,0,0,1-.1.2h-4.5c-.1,0-.1-.1-.1-.2h0c-.1-.1,0-.2.1-.2Z"/><path class="cls-7" d="M149.3,32.6v-.3A4.76,4.76,0,0,1,150,30c6.9-9.4,8.1-26-2.3-25.9s-9.1,16.5-2.2,25.9a4.65,4.65,0,0,1,.6,2.3v.3Z"/><path class="cls-55" d="M148.6,32.6v-.3a9.08,9.08,0,0,1,.3-2.3c3.8-9.4,4.5-26-1.2-25.9s-5,16.5-1.2,25.9a15.72,15.72,0,0,1,.4,2.3v.3Z"/><path class="cls-7" d="M148,32.6v-.3a18.48,18.48,0,0,1,.1-2.3c1.2-9.4,1.5-26-.4-25.9S146,20.6,147.3,30a17.7,17.7,0,0,1,.1,2.3v.3Z"/><path class="cls-24" d="M145.5,32.1h4.4a.27.27,0,0,1,.3.3v.5a.27.27,0,0,1-.3.3h-4.4a.27.27,0,0,1-.3-.3v-.5A.32.32,0,0,1,145.5,32.1Z"/><path class="cls-57" d="M148.8,35.9v.9a.9.9,0,0,1-.9.9h-2.2a.88.88,0,0,0,.9.8h2a.9.9,0,0,0,.9-.9V35.9Z"/><path class="cls-58" d="M149.7,32.6c0,.1-.2.2-.3.2h-4.2v.1a.27.27,0,0,0,.3.3h4.3a.27.27,0,0,0,.3-.3h0v-.5a.27.27,0,0,0-.3-.3h-.1v.5Z"/><path class="cls-7" d="M149.36,23.12a4,4,0,0,1,1.5.3,1,1,0,0,1,.9-.4c.2,0,.3,0,.4.1a2,2,0,0,1,2.1-1.9,1.78,1.78,0,0,1,1,.4,1.19,1.19,0,0,1,.9-.5h.2a3.59,3.59,0,0,1-.2-1.1,2.59,2.59,0,0,1,2.5-2.7,1.48,1.48,0,0,1,.7.1,1.2,1.2,0,0,1,1-.7h0v-.3a4.61,4.61,0,0,1,5.2-4.1,4.68,4.68,0,0,1,3.8,4.1v.1c.2,0,.5-.1.7,0a2.77,2.77,0,0,1,1.3.3,3.5,3.5,0,0,1,5.1-.8,3.9,3.9,0,0,1,1.3,4.3h.1a1.82,1.82,0,0,1,1.8,1.9h0v.4h0a1,1,0,0,1,1,1.1h.5a2.34,2.34,0,0,1,1.7.7c1.1,1.2-.1,1.5-1.3,1.5h-33.8c-1.3,0-3.1.2-1.8-1.2A4.55,4.55,0,0,1,149.36,23.12Z"/><path class="cls-7" d="M9.43,22.4a4.53,4.53,0,0,1,1.6.3,1.09,1.09,0,0,1,.9-.4.9.9,0,0,1,.5.1,2.15,2.15,0,0,1,2-2,2.45,2.45,0,0,1,1.2.4,1.23,1.23,0,0,1,1-.5h.2a1.93,1.93,0,0,1-.3-1,2.76,2.76,0,0,1,2.6-2.8h0a2.2,2.2,0,0,1,.8.1,1.23,1.23,0,0,1,1.1-.7h0v-.3a4.71,4.71,0,1,1,9.4,0v.1a1.7,1.7,0,0,1,.7-.1,2.5,2.5,0,0,1,1.4.4,3.66,3.66,0,0,1,5.3-.9,3.93,3.93,0,0,1,1.5,3.2,5,5,0,0,1-.2,1.2h.1a2,2,0,0,1,1.9,2v.4h0a1.11,1.11,0,0,1,1.1,1.1h.5a2.19,2.19,0,0,1,1.7.7c1.2,1.2-.1,1.5-1.4,1.5H8c-1.3,0-3.2.2-1.9-1.2A4.55,4.55,0,0,1,9.43,22.4Z"/><path class="cls-7" d="M67.2,95.3a5.08,5.08,0,0,0-1.7.3,1,1,0,0,0-1-.4.9.9,0,0,0-.5.1,2.2,2.2,0,0,0-2.2-2.1,2.11,2.11,0,0,0-1.3.5,1.1,1.1,0,0,0-1-.6h-.2a5,5,0,0,0,.2-1.2,2.91,2.91,0,0,0-2.8-3h0a2,2,0,0,0-.8.1,1.23,1.23,0,0,0-1.1-.7h0V88a5,5,0,1,0-10,0h0v.1A2,2,0,0,0,44,88a2.3,2.3,0,0,0-1.4.4,3.84,3.84,0,0,0-5.6-.9A4.27,4.27,0,0,0,35.3,91a5.07,5.07,0,0,0,.2,1.3h-.2a2,2,0,0,0-1.9,2.1h0v.4h0A1.13,1.13,0,0,0,32.3,96h-.5a3.41,3.41,0,0,0-1.9.7c-1.3,1.3.1,1.6,1.5,1.6H68.7c1.4,0,3.4.2,2-1.3A4.55,4.55,0,0,0,67.2,95.3Z"/><path class="cls-7" d="M130.3,126.8a4.67,4.67,0,0,1,1.7.3,1.39,1.39,0,0,1,1-.5.75.75,0,0,1,.5.1,2.36,2.36,0,0,1,2.2-2.2,2.39,2.39,0,0,1,1.4.5,1.15,1.15,0,0,1,1.1-.6h.2a2.54,2.54,0,0,1-.2-1.2,2.93,2.93,0,0,1,2.9-3h0a2,2,0,0,1,.8.1,1.27,1.27,0,0,1,1.1-.8h0v-.3a5.17,5.17,0,1,1,10.3-.7v.8a2.2,2.2,0,0,1,.8-.1,2.82,2.82,0,0,1,1.5.4,3.91,3.91,0,0,1,5.8-.9,4.27,4.27,0,0,1,1.7,3.5,6.75,6.75,0,0,1-.2,1.4h.1a2.12,2.12,0,0,1,2,2.2v.4h0a1.13,1.13,0,0,1,1.1,1.2,2.88,2.88,0,0,1,2.5.7c1.3,1.3-.1,1.7-1.5,1.7H128.7c-1.4,0-3.5.3-2.1-1.3A5,5,0,0,1,130.3,126.8Z"/></g></g></svg>