<svg xmlns="http://www.w3.org/2000/svg" xmlns:xlink="http://www.w3.org/1999/xlink" viewBox="0 0 672.85 221.78"><defs><style>.cls-1{fill:#53b848;}.cls-2{fill:url(#linear-gradient);}.cls-3{fill:none;stroke:#53b848;stroke-miterlimit:10;}</style><linearGradient id="linear-gradient" x1="25.79" y1="123.99" x2="672.85" y2="123.99" gradientUnits="userSpaceOnUse"><stop offset="0" stop-color="#226332"/><stop offset="0.99" stop-color="#3e9d46"/></linearGradient></defs><g id="Layer_2" data-name="Layer 2"><g id="OBJECTS"><path class="cls-1" d="M395.36,50.66C366.86,43,338.92,30,309.47,31.46c-56,2.8-103.32,57.33-158.64,48.26-21.65-3.56-41.48-16.85-63.42-16.44C60.88,63.76,38.27,85,28.08,109.49c-6.4,15.38-8.81,33.39-1.8,48.5C38,183.29,69.85,190.79,97.5,194.4c152.07,19.89,306.69,14.86,458.75-5,27.33-3.58,56.76-8.7,75.78-28.66,25.26-26.51,22.57-68.54,14.87-104.34-2.43-11.32-5.38-22.94-12.47-32.1-15.22-19.62-32.83-13.53-50.07-2.91A248,248,0,0,1,523.9,48.58C482.29,60.76,437.31,61.88,395.36,50.66Z"/><path class="cls-2" d="M409.08,65.4c-29.25-7.63-57.94-20.68-88.18-19.21C263.41,49,214.82,103.53,158,94.45,135.79,90.9,115.43,77.61,92.91,78,65.67,78.5,42.46,99.72,32,124.22c-6.56,15.38-9,33.4-1.84,48.51,12.05,25.3,44.73,32.79,73.12,36.41,156.13,19.89,314.88,14.86,471-5,28.05-3.57,58.27-8.7,77.79-28.65C678,149,675.25,106.92,667.35,71.12c-2.5-11.32-5.53-23-12.81-32.1-15.62-19.62-33.71-13.53-51.41-2.91a258.25,258.25,0,0,1-62.07,27.2C498.34,75.5,452.16,76.62,409.08,65.4Z"/><path class="cls-3" d="M623.72,3.26C594.88-4.54,564.4,5.47,537,17.35s-55,26-84.88,26.74c-38.17,1-73.31-20-110.91-26.66A151.15,151.15,0,0,0,240.93,34.85C220.06,46.77,201.25,64,177.6,68.27c-31,5.56-61.51-12.81-93-13.33C56.8,54.49,29.26,69,14,92.21S-3.8,146.43,7.55,171.76"/></g></g></svg>