<svg xmlns="http://www.w3.org/2000/svg" viewBox="0 0 341.79 226.99"><defs><style>.cls-1{fill:#53b848;}.cls-2{fill:none;stroke:#53b848;stroke-miterlimit:10;}</style></defs><g id="Layer_2" data-name="Layer 2"><g id="OBJECTS"><path class="cls-1" d="M119.5,32.89c13.49,13.51,22.15,32,38.05,42.52,30.7,20.4,73.29,3.14,108.09,15.3,21.58,7.55,38.6,27.17,42.58,49.68s-5.47,47-23.81,60.65c-16.07,12-36.8,15.22-56.63,18.11-36.59,5.35-73.72,10.7-110.41,6.07S43.85,204.66,22,174.86C-6,136.88-6,77.31,14.74,35.77,34.33-3.48,92.74,6.09,119.5,32.89Z"/><path class="cls-2" d="M28.66,11C64.77-9,114.49.36,140.89,32.08c8.94,10.73,15.46,23.64,26.3,32.45,20.53,16.67,50.07,14.14,76.31,10.79s55.81-5.78,76.23,11c13.78,11.34,20.36,29.61,21.39,47.43s-2.83,35.51-6.67,52.94"/></g></g></svg>