<svg xmlns="http://www.w3.org/2000/svg" xmlns:xlink="http://www.w3.org/1999/xlink" viewBox="0 0 694.87 324.77"><defs><style>.cls-1,.cls-5{fill:none;}.cls-2{clip-path:url(#clip-path);}.cls-3{fill:#53b848;}.cls-4{fill:url(#linear-gradient);}.cls-5{stroke:#53b848;stroke-miterlimit:10;}</style><clipPath id="clip-path" transform="translate(15.24 106.43)"><rect class="cls-1" width="1024" height="234.96"/></clipPath><linearGradient id="linear-gradient" x1="-21.53" y1="-29.7" x2="627.95" y2="-29.7" gradientTransform="matrix(1, 0.03, -0.03, 1, 6.64, 48.1)" gradientUnits="userSpaceOnUse"><stop offset="0" stop-color="#226332"/><stop offset="0.99" stop-color="#3e9d46"/></linearGradient></defs><g id="Layer_2" data-name="Layer 2"><g id="OBJECTS"><g class="cls-2"><path class="cls-3" d="M637.38,90.28c-22.6,24.07-57.3,33.4-90.32,33.43s-65.42-8.06-98-13.64-66.6-8.59-98.1,1.31c-27.12,8.53-51.7,26.42-80.07,28.14-32.63,2-64.54-18-96.68-12-20.06,3.73-36.87,17.07-51.95,30.81S92.46,187,73.75,195.14s-42.89,7.81-57.1-6.83c-14.4-14.83-14-38.14-12.59-58.76Q7.69,75,11.31,20.37c1-15.77,2.75-33,14-44.15C37.08-35.41,55.38-36.43,71.93-36.65q140.79-1.87,281.47,6.56C446.48-24.51,541.64-18.71,633.65-3,674.11,3.94,656.42,70,637.38,90.28Z" transform="translate(15.24 106.43)"/><path class="cls-4" d="M634.9,42.41C635.43,61.16,629.47,81,615,93c-12.1,10-28.42,13.22-44.1,14-60.54,3-120.13-25.19-180.3-17.84C336,95.8,284.17,131.38,230.25,120.56c-22.53-4.52-44.56-17.1-67.09-12.59-24.09,4.82-40.15,27.5-62,38.65-32.64,16.64-75.79,3.34-97.71-26S-20.33,49.83-6.14,16.06s42.57-60.19,74.79-77.6S136.9-88.09,173-94.62c137.5-24.9,286.31-12.25,410.39,55.44C596-32.29,614.66-25,622.09-12,630.54,2.75,634.42,25.7,634.9,42.41Z" transform="translate(15.24 106.43)"/><path class="cls-5" d="M-5.29,170.53c7,33.05,45.85,55.31,77.89,44.6,36.73-12.28,54.86-56.68,91.2-70.08,49.89-18.39,103.24,30.39,155.45,20.37,31.56-6.06,55.74-32.5,86.69-41.14,33.91-9.46,69.39,3.75,104.05,9.92,31.1,5.54,63.8,5.24,93.55-5.38s56.27-32.35,68.59-61.44,8.56-65.44-12.63-88.86" transform="translate(15.24 106.43)"/></g></g></g></svg>